<svg width="540" height="380" viewBox="0 0 540 380" fill="none" xmlns="http://www.w3.org/2000/svg">
<rect width="540" height="380" fill="white"/>
<rect width="124" height="380" fill="#F6F6FE"/>
<path d="M19.4593 23.8898C19.6381 23.7819 19.8619 23.7819 20.0407 23.8898L22.0849 25.1236C22.5109 25.3808 23.0364 24.9988 22.9234 24.5143L22.3809 22.1888C22.3334 21.9854 22.4025 21.7725 22.5604 21.6358L24.3693 20.0688C24.7451 19.7432 24.5447 19.1259 24.0493 19.0832L21.6678 18.8778C21.4604 18.8599 21.2797 18.7289 21.1984 18.5372L20.2678 16.3448C20.0738 15.8879 19.4262 15.8879 19.2322 16.3448L18.3016 18.5372C18.2203 18.7289 18.0396 18.8599 17.8322 18.8778L15.449 19.0833C14.9539 19.126 14.7533 19.7428 15.1287 20.0686L16.9349 21.6362C17.0922 21.7727 17.1612 21.9851 17.1141 22.188L16.5743 24.5163C16.462 25.0007 16.9872 25.3819 17.4129 25.1249L19.4593 23.8898Z" fill="#FEB149"/>
<path d="M91.25 56.75C91.25 62.927 89.2945 68.9454 85.6637 73.9427C82.033 78.94 76.9134 82.6596 71.0387 84.5684C65.1641 86.4772 58.8359 86.4772 52.9613 84.5684C47.0866 82.6596 41.967 78.94 38.3363 73.9427C34.7055 68.9454 32.75 62.927 32.75 56.75C32.75 50.573 34.7055 44.5546 38.3363 39.5573C41.967 34.56 47.0866 30.8404 52.9613 28.9316C58.8359 27.0228 65.1641 27.0228 71.0387 28.9316L70.4964 30.6007C64.9742 28.8064 59.0258 28.8064 53.5036 30.6007C47.9814 32.395 43.169 35.8914 39.7561 40.5888C36.3432 45.2863 34.505 50.9436 34.505 56.75C34.505 62.5564 36.3432 68.2137 39.7561 72.9112C43.169 77.6086 47.9814 81.105 53.5036 82.8993C59.0258 84.6936 64.9742 84.6936 70.4964 82.8993C76.0186 81.105 80.831 77.6086 84.2439 72.9112C87.6568 68.2137 89.495 62.5564 89.495 56.75H91.25Z" fill="url(#paint0_linear_2316_35888)"/>
<mask id="mask0_2316_35888" style="mask-type:alpha" maskUnits="userSpaceOnUse" x="37" y="32" width="50" height="50">
<circle cx="62" cy="56.75" r="24.75" fill="#D9D9D9"/>
</mask>
<g mask="url(#mask0_2316_35888)">
<rect x="13.2734" y="30.4531" width="97.4531" height="54.9141" fill="#E3E3FD"/>
</g>
<rect x="13" y="92.75" width="98" height="10" rx="3.53519" fill="#DCDCDC"/>
<rect x="13" y="109.5" width="98" height="10" rx="3.53519" fill="#DCDCDC"/>
<path d="M21.2502 137.593C21.2502 137.393 21.0078 137.293 20.8661 137.434L19.6093 138.691C19.5214 138.779 19.5214 138.921 19.6093 139.009L20.8661 140.266C21.0078 140.408 21.2502 140.307 21.2502 140.107V139.3H24.1752C24.2995 139.3 24.4002 139.199 24.4002 139.075V138.625C24.4002 138.501 24.2995 138.4 24.1752 138.4H21.2502V137.593Z" fill="#9495A8"/>
<path d="M27.3911 135.991C27.479 136.079 27.479 136.221 27.3911 136.309L26.1343 137.566C25.9926 137.708 25.7502 137.607 25.7502 137.407V136.6L22.8252 136.6C22.7009 136.6 22.6002 136.499 22.6002 136.375V135.925C22.6002 135.801 22.7009 135.7 22.8252 135.7L25.7502 135.7V134.893C25.7502 134.693 25.9926 134.593 26.1343 134.734L27.3911 135.991Z" fill="#9495A8"/>
<path d="M18.4463 147.944H13.9749V147.576H18.4463V147.944ZM18.0178 144.538H14.3704V144.181H18.0178V144.538ZM18.0068 146.598H14.3813V146.246H18.0068V146.598ZM15.5734 146.29H15.1449V144.505H15.5734V146.29ZM17.2433 146.29H16.8203V144.505H17.2433V146.29ZM23.3077 147.966H18.8363V147.603H23.3077V147.966ZM21.2698 147.762H20.8468V146.554H21.2698V147.762ZM22.7419 145.527H19.8251V146.516H19.3966V145.175H22.319V144.406H19.3856V144.049H22.7419V145.527ZM22.8573 146.68H19.3966V146.323H22.8573V146.68ZM26.6366 145.307H25.7302V144.95H26.6366V145.307ZM26.8948 146.631H26.4773V143.796H26.8948V146.631ZM25.071 144.736C25.0692 144.99 25.0244 145.237 24.9365 145.477C24.8504 145.715 24.7231 145.929 24.5547 146.117C24.3862 146.306 24.1848 146.451 23.9504 146.554L23.7197 146.213C23.9248 146.127 24.1042 146.006 24.2581 145.848C24.4119 145.689 24.5281 145.512 24.6069 145.318C24.6874 145.124 24.7268 144.93 24.725 144.736V144.324H25.071V144.736ZM25.1425 144.736C25.1425 144.915 25.1818 145.094 25.2606 145.271C25.3393 145.449 25.4519 145.611 25.5984 145.757C25.7449 145.904 25.9188 146.019 26.1202 146.104L25.895 146.433C25.6661 146.338 25.4693 146.201 25.3045 146.024C25.1415 145.846 25.017 145.646 24.931 145.422C24.8467 145.199 24.8055 144.97 24.8074 144.736V144.324H25.1425V144.736ZM26.0049 144.445H23.8131V144.088H26.0049V144.445ZM27.8451 146.675H27.4331V143.687H27.8451V146.675ZM27.8451 148.57H27.4221V147.241H24.5547V146.889H27.8451V148.57ZM32.5143 146.68H29.136V146.329H32.5143V146.68ZM33.0306 147.933H28.5592V147.576H33.0306V147.933ZM32.4594 144.472H29.5754V146.433H29.136V144.109H32.4594V144.472ZM32.355 145.543H29.4381V145.197H32.355V145.543ZM22.698 152.4H21.4456V152.043H22.698V152.4ZM22.8848 154.274H22.4508V150.692H22.8848V154.274ZM23.0221 155.466H19.7482V155.103H23.0221V155.466ZM20.1821 155.279H19.7482V153.949H20.1821V155.279ZM20.4568 151.697C20.4568 151.988 20.3991 152.264 20.2838 152.524C20.1684 152.782 20.0063 153.009 19.7976 153.205C19.5907 153.399 19.3527 153.547 19.0835 153.647L18.8583 153.296C19.0963 153.212 19.3096 153.088 19.4982 152.925C19.6868 152.762 19.8342 152.574 19.9404 152.362C20.0466 152.148 20.0997 151.926 20.0997 151.697V151.296H20.4568V151.697ZM20.5337 151.697C20.5337 151.906 20.585 152.109 20.6875 152.307C20.79 152.505 20.9319 152.681 21.1132 152.834C21.2945 152.988 21.5023 153.105 21.7367 153.186L21.5115 153.532C21.2496 153.437 21.018 153.297 20.8166 153.112C20.617 152.927 20.4614 152.713 20.3497 152.469C20.238 152.226 20.1821 151.968 20.1821 151.697V151.296H20.5337V151.697ZM21.6268 151.445H18.9956V151.088H21.6268V151.445ZM27.51 154.51H27.076V150.687H27.51V154.51ZM28.2406 152.763H27.3287V152.4H28.2406V152.763ZM27.6858 155.466H24.4064V155.103H27.6858V155.466ZM24.8403 155.218H24.4064V154.252H24.8403V155.218ZM25.4281 153.741H24.9996V153.076H25.4281V153.741ZM23.6758 153.592C24.2727 153.591 24.8257 153.579 25.3347 153.557C25.8456 153.533 26.3253 153.486 26.7739 153.417L26.8124 153.724C26.3748 153.807 25.9188 153.862 25.4446 153.892C24.9722 153.919 24.4448 153.937 23.8625 153.944C23.8314 153.944 23.8085 153.944 23.7939 153.944C23.7792 153.944 23.7563 153.944 23.7252 153.944L23.6758 153.592ZM26.6256 151.494H23.7966V151.17H26.6256V151.494ZM25.2084 151.708C25.4373 151.708 25.6378 151.738 25.8099 151.796C25.9838 151.855 26.1175 151.942 26.2109 152.057C26.3061 152.171 26.3546 152.305 26.3564 152.461C26.3546 152.613 26.3061 152.746 26.2109 152.859C26.1175 152.971 25.9838 153.057 25.8099 153.117C25.6378 153.178 25.4373 153.208 25.2084 153.208C24.9795 153.208 24.779 153.177 24.6069 153.115C24.4366 153.052 24.3038 152.966 24.2086 152.856C24.1134 152.745 24.0658 152.613 24.0658 152.461C24.0658 152.307 24.1134 152.172 24.2086 152.057C24.3038 151.942 24.4366 151.855 24.6069 151.796C24.779 151.738 24.9795 151.708 25.2084 151.708ZM25.2084 152.016C25.0601 152.016 24.9301 152.033 24.8184 152.068C24.7085 152.103 24.6243 152.154 24.5657 152.222C24.5071 152.29 24.4778 152.369 24.4778 152.461C24.4778 152.549 24.5071 152.626 24.5657 152.692C24.6243 152.757 24.7085 152.809 24.8184 152.845C24.9301 152.882 25.0601 152.9 25.2084 152.9C25.3567 152.9 25.4858 152.882 25.5956 152.845C25.7073 152.809 25.7934 152.757 25.8538 152.692C25.9142 152.626 25.9445 152.549 25.9445 152.461C25.9445 152.369 25.9152 152.29 25.8566 152.222C25.798 152.154 25.7119 152.103 25.5984 152.068C25.4867 152.033 25.3567 152.016 25.2084 152.016ZM25.4281 151.324H24.9996V150.676H25.4281V151.324Z" fill="#9495A8"/>
<g clip-path="url(#clip0_2316_35888)">
<path d="M62 135.063C62.3481 135.063 62.6819 135.201 62.9281 135.447C63.1742 135.693 63.3125 136.027 63.3125 136.375C63.3125 136.723 63.1742 137.057 62.9281 137.303C62.6819 137.549 62.3481 137.688 62 137.688C61.6519 137.688 61.3181 137.549 61.0719 137.303C60.8258 137.057 60.6875 136.723 60.6875 136.375C60.6875 136.027 60.8258 135.693 61.0719 135.447C61.3181 135.201 61.6519 135.063 62 135.063ZM59.375 136C59.585 136 59.78 136.056 59.9488 136.158C59.8925 136.694 60.05 137.226 60.3725 137.643C60.185 138.003 59.81 138.25 59.375 138.25C59.0766 138.25 58.7905 138.131 58.5795 137.921C58.3685 137.71 58.25 137.423 58.25 137.125C58.25 136.827 58.3685 136.54 58.5795 136.33C58.7905 136.119 59.0766 136 59.375 136ZM64.625 136C64.9234 136 65.2095 136.119 65.4205 136.33C65.6315 136.54 65.75 136.827 65.75 137.125C65.75 137.423 65.6315 137.71 65.4205 137.921C65.2095 138.131 64.9234 138.25 64.625 138.25C64.19 138.25 63.815 138.003 63.6275 137.643C63.95 137.226 64.1075 136.694 64.0512 136.158C64.22 136.056 64.415 136 64.625 136ZM59.5625 139.844C59.5625 139.068 60.6537 138.438 62 138.438C63.3463 138.438 64.4375 139.068 64.4375 139.844V140.5H59.5625V139.844ZM57.5 140.5V139.938C57.5 139.416 58.2087 138.978 59.1687 138.85C58.9475 139.105 58.8125 139.458 58.8125 139.844V140.5H57.5ZM66.5 140.5H65.1875V139.844C65.1875 139.458 65.0525 139.105 64.8312 138.85C65.7912 138.978 66.5 139.416 66.5 139.938V140.5Z" fill="#9495A8"/>
</g>
<path d="M53.362 144.703C53.362 144.977 53.3043 145.234 53.189 145.472C53.0736 145.71 52.9116 145.916 52.7028 146.09C52.4941 146.264 52.2542 146.395 51.9832 146.483L51.769 146.142C52.0107 146.069 52.2258 145.96 52.4144 145.815C52.603 145.67 52.7495 145.503 52.8539 145.312C52.9583 145.12 53.0104 144.917 53.0104 144.703V144.494H53.362V144.703ZM53.4334 144.703C53.4334 144.901 53.4847 145.088 53.5872 145.266C53.6898 145.443 53.8317 145.601 54.0129 145.738C54.196 145.874 54.4075 145.977 54.6474 146.049L54.4442 146.389C54.1732 146.305 53.9351 146.18 53.73 146.013C53.525 145.846 53.3657 145.651 53.2521 145.428C53.1386 145.203 53.0818 144.961 53.0818 144.703V144.494H53.4334V144.703ZM54.5375 144.615H51.9063V144.269H54.5375V144.615ZM53.4444 144.406H53.0104V143.665H53.4444V144.406ZM55.5867 146.581H55.1583V143.687H55.5867V146.581ZM56.3228 145.291H55.4659V144.928H56.3228V145.291ZM55.5867 148.504H52.5051V146.807H55.5867V148.504ZM52.928 148.152H55.1583V147.147H52.928V148.152ZM60.3548 145.142H58.8497V144.78H60.3548V145.142ZM60.3548 146.686H58.8497V146.329H60.3548V146.686ZM57.9433 144.066C58.1795 144.066 58.3901 144.135 58.575 144.274C58.7618 144.413 58.9064 144.612 59.009 144.87C59.1115 145.128 59.1628 145.428 59.1628 145.768C59.1628 146.111 59.1115 146.41 59.009 146.667C58.9064 146.921 58.7618 147.118 58.575 147.257C58.3901 147.396 58.1795 147.466 57.9433 147.466C57.7034 147.466 57.4901 147.396 57.3033 147.257C57.1184 147.118 56.9747 146.921 56.8721 146.667C56.7696 146.41 56.7183 146.111 56.7183 145.768C56.7183 145.428 56.7696 145.128 56.8721 144.87C56.9747 144.612 57.1184 144.413 57.3033 144.274C57.4901 144.135 57.7034 144.066 57.9433 144.066ZM57.9433 144.45C57.784 144.45 57.643 144.505 57.5203 144.615C57.3995 144.725 57.3043 144.879 57.2347 145.079C57.1651 145.277 57.1303 145.507 57.1303 145.768C57.1303 146.03 57.1651 146.261 57.2347 146.461C57.3043 146.658 57.3995 146.811 57.5203 146.919C57.643 147.027 57.784 147.081 57.9433 147.081C58.1008 147.081 58.2418 147.027 58.3663 146.919C58.4908 146.811 58.5869 146.657 58.6547 146.458C58.7224 146.258 58.7563 146.028 58.7563 145.768C58.7563 145.508 58.7224 145.279 58.6547 145.079C58.5869 144.879 58.4908 144.725 58.3663 144.615C58.2418 144.505 58.1008 144.45 57.9433 144.45ZM60.6789 148.581H60.2504V143.687H60.6789V148.581ZM67.051 146.521H66.639V143.692H67.051V146.521ZM66.1171 146.461H65.7051V143.791H66.1171V146.461ZM65.8425 145.241H64.9031V144.884H65.8425V145.241ZM65.0185 146.153H63.1288V144.044H65.0185V146.153ZM63.5353 145.823H64.6175V144.384H63.5353V145.823ZM67.051 148.504H63.8265V146.763H67.051V148.504ZM64.2495 148.152H66.628V147.103H64.2495V148.152ZM71.8135 148.581H71.3851V143.687H71.8135V148.581ZM71.5114 145.862H70.0777V145.505H71.5114V145.862ZM68.3968 145.345H69.7921V144.071H70.215V147.345H67.9628V144.071H68.3968V145.345ZM69.7921 146.988V145.692H68.3968V146.988H69.7921ZM59.7917 151.428H57.611V151.066H59.7917V151.428ZM58.7865 153.373H58.358V152.148H58.7865V153.373ZM60.0444 151.357C60.0426 151.598 60.0344 151.827 60.0197 152.043C60.0051 152.258 59.9712 152.499 59.9181 152.768L59.4841 152.735C59.5391 152.466 59.5748 152.231 59.5912 152.03C59.6077 151.828 59.6178 151.611 59.6215 151.379V151.324V151.066H60.0444V151.324V151.357ZM61.165 154.361H60.7256V150.687H61.165V154.361ZM61.8792 152.648H60.9673V152.28H61.8792V152.648ZM61.3243 155.466H58.0614V155.103H61.3243V155.466ZM58.4954 155.218H58.0614V154.032H58.4954V155.218ZM57.3088 153.224C57.8911 153.223 58.4395 153.212 58.954 153.191C59.4686 153.169 59.9492 153.127 60.396 153.065L60.4235 153.384C59.9675 153.462 59.486 153.515 58.9788 153.54C58.4716 153.566 57.9296 153.58 57.3528 153.581L57.3088 153.224ZM66.2297 155.581H65.8013V150.687H66.2297V155.581ZM62.8899 154.032C63.333 154.034 63.745 154.022 64.1259 153.996C64.5085 153.971 64.9095 153.924 65.3289 153.856L65.3728 154.219C64.948 154.285 64.5415 154.33 64.1533 154.356C63.7651 154.382 63.344 154.394 62.8899 154.394H62.4834V154.032H62.8899ZM64.7466 152.878H62.9229V154.169H62.4834V152.527H64.3126V151.5H62.4724V151.142H64.7466V152.878Z" fill="#9495A8"/>
<g clip-path="url(#clip1_2316_35888)">
<path d="M100.5 138.812C100.152 138.812 99.8181 138.674 99.572 138.428C99.3258 138.182 99.1876 137.848 99.1876 137.5C99.1876 137.152 99.3258 136.818 99.572 136.572C99.8181 136.326 100.152 136.187 100.5 136.187C100.848 136.187 101.182 136.326 101.428 136.572C101.674 136.818 101.813 137.152 101.813 137.5C101.813 137.848 101.674 138.182 101.428 138.428C101.182 138.674 100.848 138.812 100.5 138.812ZM103.286 137.864C103.301 137.744 103.313 137.624 103.313 137.5C103.313 137.376 103.301 137.252 103.286 137.125L104.078 136.514C104.149 136.457 104.168 136.356 104.123 136.274L103.373 134.976C103.328 134.894 103.226 134.86 103.144 134.894L102.21 135.269C102.015 135.122 101.813 134.995 101.576 134.901L101.438 133.907C101.423 133.817 101.344 133.75 101.25 133.75H99.7501C99.6563 133.75 99.5776 133.817 99.5626 133.907L99.4238 134.901C99.1876 134.995 98.9851 135.122 98.7901 135.269L97.8563 134.894C97.7738 134.86 97.6726 134.894 97.6276 134.976L96.8776 136.274C96.8288 136.356 96.8513 136.457 96.9226 136.514L97.7138 137.125C97.6988 137.252 97.6876 137.376 97.6876 137.5C97.6876 137.624 97.6988 137.744 97.7138 137.864L96.9226 138.486C96.8513 138.542 96.8288 138.644 96.8776 138.726L97.6276 140.024C97.6726 140.106 97.7738 140.136 97.8563 140.106L98.7901 139.727C98.9851 139.877 99.1876 140.005 99.4238 140.099L99.5626 141.092C99.5776 141.182 99.6563 141.25 99.7501 141.25H101.25C101.344 141.25 101.423 141.182 101.438 141.092L101.576 140.099C101.813 140.001 102.015 139.877 102.21 139.727L103.144 140.106C103.226 140.136 103.328 140.106 103.373 140.024L104.123 138.726C104.168 138.644 104.149 138.542 104.078 138.486L103.286 137.864Z" fill="#9495A8"/>
</g>
<path d="M95.4463 147.944H90.9749V147.576H95.4463V147.944ZM95.0178 144.538H91.3704V144.181H95.0178V144.538ZM95.0068 146.598H91.3813V146.246H95.0068V146.598ZM92.5734 146.29H92.1449V144.505H92.5734V146.29ZM94.2433 146.29H93.8203V144.505H94.2433V146.29ZM100.308 147.966H95.8363V147.603H100.308V147.966ZM98.2698 147.762H97.8468V146.554H98.2698V147.762ZM99.7419 145.527H96.8251V146.516H96.3966V145.175H99.319V144.406H96.3856V144.049H99.7419V145.527ZM99.8573 146.68H96.3966V146.323H99.8573V146.68ZM103.637 145.307H102.73V144.95H103.637V145.307ZM103.895 146.631H103.477V143.796H103.895V146.631ZM102.071 144.736C102.069 144.99 102.024 145.237 101.936 145.477C101.85 145.715 101.723 145.929 101.555 146.117C101.386 146.306 101.185 146.451 100.95 146.554L100.72 146.213C100.925 146.127 101.104 146.006 101.258 145.848C101.412 145.689 101.528 145.512 101.607 145.318C101.687 145.124 101.727 144.93 101.725 144.736V144.324H102.071V144.736ZM102.142 144.736C102.142 144.915 102.182 145.094 102.261 145.271C102.339 145.449 102.452 145.611 102.598 145.757C102.745 145.904 102.919 146.019 103.12 146.104L102.895 146.433C102.666 146.338 102.469 146.201 102.305 146.024C102.142 145.846 102.017 145.646 101.931 145.422C101.847 145.199 101.806 144.97 101.807 144.736V144.324H102.142V144.736ZM103.005 144.445H100.813V144.088H103.005V144.445ZM104.845 146.675H104.433V143.687H104.845V146.675ZM104.845 148.57H104.422V147.241H101.555V146.889H104.845V148.57ZM109.514 146.68H106.136V146.329H109.514V146.68ZM110.031 147.933H105.559V147.576H110.031V147.933ZM109.459 144.472H106.575V146.433H106.136V144.109H109.459V144.472ZM109.355 145.543H106.438V145.197H109.355V145.543ZM99.6321 151.944H98.3632V151.587H99.6321V151.944ZM99.8848 153.213H99.4508V150.687H99.8848V153.213ZM99.8848 154.625H97.1547V155.372H96.7317V154.296H99.4563V153.807H96.7207V153.461H99.8848V154.625ZM100.066 155.504H96.7317V155.158H100.066V155.504ZM97.4238 151.307C97.4238 151.604 97.3671 151.879 97.2535 152.134C97.14 152.388 96.9807 152.61 96.7756 152.799C96.5724 152.985 96.3362 153.127 96.067 153.224L95.8308 152.878C96.0743 152.798 96.2895 152.679 96.4763 152.521C96.6649 152.364 96.8113 152.181 96.9157 151.972C97.0219 151.763 97.0759 151.542 97.0778 151.307V150.846H97.4238V151.307ZM97.5007 151.307C97.4989 151.518 97.5493 151.72 97.6518 151.914C97.7562 152.107 97.8999 152.278 98.083 152.428C98.2679 152.578 98.4785 152.692 98.7147 152.768L98.484 153.104C98.2222 153.01 97.9896 152.876 97.7864 152.7C97.585 152.522 97.4275 152.313 97.314 152.074C97.2004 151.834 97.1437 151.578 97.1437 151.307V150.846H97.5007V151.307ZM104.444 152.318H103.329V151.961H104.444V152.318ZM104.746 153.598H104.312V150.687H104.746V153.598ZM103.126 153.752C103.463 153.752 103.754 153.787 103.999 153.859C104.245 153.93 104.433 154.034 104.565 154.169C104.697 154.305 104.763 154.468 104.763 154.658C104.763 154.849 104.697 155.011 104.565 155.147C104.433 155.282 104.245 155.386 103.999 155.457C103.754 155.531 103.463 155.568 103.126 155.57C102.787 155.568 102.495 155.531 102.25 155.457C102.006 155.386 101.818 155.282 101.687 155.147C101.555 155.011 101.489 154.849 101.489 154.658C101.489 154.468 101.555 154.305 101.687 154.169C101.818 154.034 102.007 153.93 102.252 153.859C102.498 153.787 102.789 153.752 103.126 153.752ZM103.126 154.087C102.877 154.087 102.662 154.11 102.48 154.155C102.299 154.201 102.16 154.267 102.063 154.353C101.966 154.439 101.917 154.541 101.917 154.658C101.917 154.775 101.966 154.876 102.063 154.96C102.16 155.044 102.299 155.109 102.48 155.155C102.662 155.201 102.877 155.224 103.126 155.224C103.373 155.224 103.587 155.201 103.768 155.155C103.952 155.109 104.092 155.044 104.189 154.96C104.286 154.876 104.334 154.775 104.334 154.658C104.334 154.541 104.286 154.439 104.189 154.353C104.092 154.267 103.952 154.201 103.768 154.155C103.587 154.11 103.373 154.087 103.126 154.087ZM102.318 151.587C102.318 151.88 102.261 152.158 102.145 152.42C102.03 152.681 101.868 152.91 101.659 153.106C101.452 153.302 101.214 153.451 100.945 153.554L100.72 153.208C100.96 153.122 101.173 152.995 101.36 152.829C101.548 152.66 101.696 152.469 101.802 152.255C101.908 152.039 101.961 151.816 101.961 151.587V151.181H102.318V151.587ZM102.395 151.582C102.395 151.792 102.445 151.997 102.546 152.194C102.647 152.39 102.789 152.565 102.972 152.719C103.155 152.873 103.364 152.99 103.598 153.071L103.373 153.417C103.111 153.321 102.879 153.181 102.678 152.996C102.478 152.811 102.323 152.597 102.211 152.354C102.099 152.108 102.044 151.851 102.044 151.582V151.181H102.395V151.582ZM103.488 151.406H100.857V151.044H103.488V151.406Z" fill="#9495A8"/>
<path d="M20.9937 198.75C21.118 198.75 21.2188 198.649 21.2188 198.525V196.444C21.2188 196.319 21.3195 196.219 21.4437 196.219H22.6813C22.8055 196.219 22.9062 196.319 22.9062 196.444V198.525C22.9062 198.649 23.007 198.75 23.1312 198.75H24.7906C24.9149 198.75 25.0156 198.649 25.0156 198.525V195.6C25.0156 195.476 25.1164 195.375 25.2406 195.375H25.6949C25.9011 195.375 25.9987 195.121 25.8454 194.983L22.213 191.714C22.1274 191.637 21.9976 191.637 21.912 191.714L18.2796 194.983C18.1263 195.121 18.2239 195.375 18.4301 195.375H18.8844C19.0086 195.375 19.1094 195.476 19.1094 195.6V198.525C19.1094 198.649 19.2101 198.75 19.3344 198.75H20.9937Z" fill="#9495A8"/>
<path d="M38.8342 196.88H36.5436V193.192H38.8342V196.88ZM37.1302 196.382H38.2476V193.689H37.1302V196.382ZM41.4248 198.432H40.8217V192.526H41.4248V198.432ZM39.8889 195.242H38.5277V194.731H39.8889V195.242ZM40.2218 198.142H39.6285V192.638H40.2218V198.142ZM47.074 196.827H46.451V192.532H47.074V196.827ZM47.252 198.317H43.2145V197.799H47.252V198.317ZM43.8407 197.987H43.2145V196.392H43.8407V197.987ZM43.8704 192.931C44.1648 192.931 44.4318 192.994 44.6713 193.119C44.9108 193.244 45.0986 193.418 45.2349 193.64C45.3733 193.862 45.4425 194.113 45.4425 194.395C45.4425 194.678 45.3733 194.932 45.2349 195.156C45.0986 195.378 44.9108 195.551 44.6713 195.677C44.4318 195.802 44.1648 195.865 43.8704 195.865C43.5759 195.865 43.309 195.802 43.0695 195.677C42.8322 195.551 42.6443 195.378 42.5059 195.156C42.3674 194.932 42.2982 194.678 42.2982 194.395C42.2982 194.113 42.3674 193.862 42.5059 193.64C42.6443 193.418 42.8322 193.244 43.0695 193.119C43.309 192.994 43.5759 192.931 43.8704 192.931ZM43.8704 193.478C43.688 193.478 43.5232 193.517 43.376 193.594C43.231 193.671 43.1167 193.778 43.0332 193.917C42.9497 194.055 42.9091 194.214 42.9113 194.395C42.9091 194.577 42.9497 194.738 43.0332 194.879C43.1167 195.017 43.231 195.125 43.376 195.202C43.5232 195.279 43.688 195.317 43.8704 195.317C44.0505 195.317 44.2131 195.279 44.3582 195.202C44.5032 195.125 44.6174 195.017 44.7009 194.879C44.7844 194.738 44.8262 194.577 44.8262 194.395C44.8262 194.214 44.7844 194.055 44.7009 193.917C44.6174 193.778 44.5032 193.671 44.3582 193.594C44.2131 193.517 44.0505 193.478 43.8704 193.478Z" fill="#9495A8"/>
<path d="M25.8594 214.528C25.8594 214.28 25.6579 214.078 25.4094 214.078H22.9344C22.6858 214.078 22.4844 214.28 22.4844 214.528V216.159C22.4844 216.408 22.6858 216.609 22.9344 216.609H25.4094C25.6579 216.609 25.8594 216.408 25.8594 216.159V214.528ZM21.6406 214.528C21.6406 214.28 21.4392 214.078 21.1906 214.078H18.7156C18.4671 214.078 18.2656 214.28 18.2656 214.528V217.847C18.2656 218.095 18.4671 218.297 18.7156 218.297H21.1906C21.4392 218.297 21.6406 218.095 21.6406 217.847V214.528ZM25.8594 217.903C25.8594 217.655 25.6579 217.453 25.4094 217.453H22.9344C22.6858 217.453 22.4844 217.655 22.4844 217.903V221.222C22.4844 221.47 22.6858 221.672 22.9344 221.672H25.4094C25.6579 221.672 25.8594 221.47 25.8594 221.222V217.903ZM21.6406 219.591C21.6406 219.342 21.4392 219.141 21.1906 219.141H18.7156C18.4671 219.141 18.2656 219.342 18.2656 219.591V221.222C18.2656 221.47 18.4671 221.672 18.7156 221.672H21.1906C21.4392 221.672 21.6406 221.47 21.6406 221.222V219.591Z" fill="#9495A8"/>
<path d="M39.3748 215.471C39.3726 216 39.2781 216.477 39.0913 216.901C38.9045 217.323 38.6123 217.695 38.2146 218.018C37.8191 218.341 37.3104 218.607 36.6886 218.816L36.4249 218.318C36.9633 218.143 37.4027 217.926 37.7433 217.669C38.0839 217.412 38.3333 217.121 38.4915 216.796C38.6497 216.468 38.7288 216.104 38.7288 215.701V215.471H39.3748ZM39.1012 215.982H36.7084V215.471H39.1012V215.982ZM36.5073 217.234L36.4084 216.73L38.7452 216.628V217.059L36.5073 217.234ZM40.9832 219.422H40.3503V215.026H40.9832V219.422ZM41.8434 217.339H40.792V216.825H41.8434V217.339ZM41.2303 220.817H37.2357V220.299H41.2303V220.817ZM37.8619 220.632H37.2357V219.001H37.8619V220.632ZM46.8169 219.376H46.194V215.032H46.8169V219.376ZM47.6771 217.3H46.6257V216.779H47.6771V217.3ZM47.0674 220.817H43.076V220.299H47.0674V220.817ZM43.6957 220.415H43.076V218.945H43.6957V220.415ZM43.02 216.407H44.5658V215.458H45.192V218.397H42.4037V215.458H43.02V216.407ZM44.5658 217.896V216.891H43.02V217.896H44.5658ZM53.4153 220.2H48.01V219.686H53.4153V220.2ZM51.006 219.831H50.3929V218.308H51.006V219.831ZM49.2559 216.45H52.1562V215.431H52.7726V218.473H48.6263V215.431H49.2559V216.45ZM52.1562 217.966V216.954H49.2559V217.966H52.1562ZM58.6294 218.345H54.5161V217.834H58.6294V218.345ZM59.249 220.157H53.8438V219.637H59.249V220.157ZM58.5734 216.071H55.1357V218.055H54.5161V215.56H58.5734V216.071Z" fill="#9495A8"/>
<rect x="8" y="229.125" width="108" height="22.5" rx="4.5" fill="#3F40E9"/>
<path d="M21.6406 236.156C21.8644 236.156 22.079 236.245 22.2372 236.403C22.3955 236.562 22.4844 236.776 22.4844 237V243.75C22.4844 243.974 22.3955 244.188 22.2372 244.347C22.079 244.505 21.8644 244.594 21.6406 244.594H17.8438V236.156H21.6406ZM18.6875 239.531V241.219H21.6406V239.531H18.6875ZM18.6875 242.062V243.75H21.6406V242.062H18.6875ZM18.6875 237V238.688H21.6406V237H18.6875ZM23.3281 239.953H24.5938V238.688H25.4375V239.953H26.7031V240.797H25.4375V242.062H24.5938V240.797H23.3281V239.953Z" fill="white"/>
<path d="M40.9832 241.866H40.3602V237.529H40.9832V241.866ZM41.8434 239.813H40.792V239.292H41.8434V239.813ZM41.2336 243.317H37.2423V242.799H41.2336V243.317ZM37.8619 243.013H37.2423V241.415H37.8619V243.013ZM38.0037 237.931C38.2981 237.931 38.5651 237.994 38.8046 238.119C39.0463 238.244 39.2352 238.419 39.3715 238.643C39.5077 238.867 39.5769 239.12 39.5791 239.401C39.5769 239.685 39.5077 239.938 39.3715 240.162C39.2352 240.384 39.0463 240.559 38.8046 240.687C38.5651 240.812 38.2981 240.874 38.0037 240.874C37.7092 240.874 37.4423 240.812 37.2028 240.687C36.9633 240.559 36.7743 240.383 36.6359 240.159C36.4996 239.935 36.4315 239.682 36.4315 239.401C36.4315 239.12 36.4996 238.867 36.6359 238.643C36.7743 238.419 36.9622 238.244 37.1995 238.119C37.439 237.994 37.707 237.931 38.0037 237.931ZM38.0037 238.478C37.8257 238.478 37.6631 238.517 37.5159 238.594C37.3708 238.671 37.2555 238.78 37.1698 238.923C37.0863 239.064 37.0446 239.223 37.0446 239.401C37.0446 239.581 37.0863 239.742 37.1698 239.882C37.2555 240.021 37.3708 240.13 37.5159 240.209C37.6631 240.286 37.8257 240.324 38.0037 240.324C38.186 240.324 38.3497 240.286 38.4948 240.209C38.642 240.13 38.7573 240.021 38.8408 239.882C38.9243 239.742 38.9661 239.581 38.9661 239.401C38.9661 239.221 38.9243 239.061 38.8408 238.92C38.7573 238.779 38.642 238.671 38.4948 238.594C38.3497 238.517 38.186 238.478 38.0037 238.478ZM47.1003 241.883H46.4741V237.532H47.1003V241.883ZM46.5829 239.836H45.2513V239.315H46.5829V239.836ZM45.2876 237.977C45.2854 238.485 45.1733 238.951 44.9514 239.375C44.7295 239.799 44.412 240.168 43.9989 240.482C43.5858 240.796 43.0958 241.045 42.5289 241.227L42.262 240.726C42.7388 240.57 43.1541 240.369 43.5078 240.123C43.8638 239.875 44.1373 239.591 44.3285 239.273C44.5219 238.954 44.6185 238.611 44.6185 238.244V237.977H45.2876ZM45.0239 238.498H42.5652V237.977H45.0239V238.498ZM47.252 243.317H43.2936V242.799H47.252V243.317ZM43.9297 243.069H43.2936V241.438H43.9297V243.069Z" fill="white"/>
<mask id="path-22-inside-1_2316_35888" fill="white">
<path d="M124 0H540V21H124V0Z"/>
</mask>
<path d="M124 0H540V21H124V0Z" fill="white"/>
<path d="M140.485 8.29935C140.662 8.00222 141.103 8.00222 141.28 8.29935L142.793 10.8379L143.856 9.04807C144.032 8.74994 144.475 8.74994 144.652 9.04807L146.729 12.5486H149.152C149.337 12.5486 149.504 12.6531 149.579 12.8154C149.79 13.2701 149.851 13.4087 150.046 13.8786C150.107 14.0264 149.994 14.1875 149.829 14.1875H145.712L144.652 12.4003C144.475 12.1021 144.032 12.1021 143.855 12.4003L142.795 14.1875H137.773C137.419 14.1875 137.198 13.8144 137.375 13.5164L140.485 8.29935Z" fill="url(#paint1_linear_2316_35888)"/>
<path d="M145.321 6.92256C145.321 7.4666 144.863 7.90763 144.298 7.90763C143.733 7.90763 143.275 7.4666 143.275 6.92256C143.275 6.37852 143.733 5.93748 144.298 5.93748C144.863 5.93748 145.321 6.37852 145.321 6.92256Z" fill="#8788E4"/>
<path d="M157.683 9.05733C157.722 9.13249 157.745 9.20013 157.75 9.26027C157.759 9.3204 157.764 9.40809 157.764 9.52334V13.6949C157.764 14.0406 157.671 14.2436 157.484 14.3037C157.391 14.3338 157.273 14.3488 157.13 14.3488C156.987 14.3488 156.874 14.3363 156.791 14.3112C156.707 14.2862 156.643 14.2561 156.599 14.221C156.555 14.1859 156.52 14.1358 156.496 14.0707C156.471 13.9855 156.459 13.8552 156.459 13.6798V11.1619C156.336 11.3172 156.156 11.5653 155.92 11.906C155.684 12.2417 155.534 12.4522 155.47 12.5374C155.407 12.6226 155.362 12.6827 155.338 12.7178C155.313 12.7478 155.252 12.7929 155.153 12.8531C155.06 12.9082 154.957 12.9357 154.844 12.9357C154.735 12.9357 154.635 12.9107 154.541 12.8606C154.453 12.8054 154.389 12.7528 154.349 12.7027L154.29 12.62C154.192 12.4948 153.998 12.2292 153.708 11.8233C153.418 11.4124 153.26 11.192 153.236 11.1619V13.6949C153.236 13.8101 153.231 13.8978 153.221 13.9579C153.216 14.0131 153.194 14.0757 153.154 14.1459C153.081 14.2811 152.889 14.3488 152.579 14.3488C152.279 14.3488 152.092 14.2811 152.019 14.1459C151.979 14.0757 151.955 14.0106 151.945 13.9504C151.94 13.8903 151.938 13.8001 151.938 13.6798V9.5083C151.938 9.39305 151.94 9.30787 151.945 9.25275C151.955 9.19262 151.979 9.12497 152.019 9.04981C152.092 8.91953 152.284 8.85439 152.594 8.85439C152.727 8.85439 152.84 8.87192 152.933 8.907C153.032 8.93706 153.095 8.96964 153.125 9.00471L153.169 9.04981L154.844 11.2897C155.679 10.1622 156.238 9.41811 156.518 9.05733C156.601 8.92203 156.798 8.85439 157.108 8.85439C157.423 8.85439 157.614 8.92203 157.683 9.05733Z" fill="#3F40E9"/>
<path d="M158.245 12.3795C158.245 11.7782 158.451 11.2821 158.864 10.8913C159.277 10.5005 159.749 10.305 160.28 10.305C160.811 10.305 161.281 10.5005 161.689 10.8913C162.097 11.2771 162.301 11.7707 162.301 12.372C162.301 12.7879 162.195 13.1587 161.984 13.4844C161.773 13.8051 161.514 14.0431 161.21 14.1985C160.91 14.3488 160.597 14.424 160.273 14.424C159.948 14.424 159.634 14.3438 159.329 14.1834C159.024 14.0181 158.766 13.7776 158.554 13.4619C158.348 13.1412 158.245 12.7804 158.245 12.3795ZM159.786 12.9207C159.943 13.041 160.103 13.1011 160.266 13.1011C160.428 13.1011 160.59 13.0385 160.752 12.9132C160.915 12.7879 160.996 12.6025 160.996 12.357C160.996 12.1114 160.919 11.9285 160.767 11.8083C160.615 11.688 160.45 11.6279 160.273 11.6279C160.096 11.6279 159.931 11.6905 159.779 11.8158C159.626 11.9411 159.55 12.1265 159.55 12.372C159.55 12.6125 159.629 12.7954 159.786 12.9207Z" fill="#3F40E9"/>
<path d="M162.86 11.0566C162.86 10.9414 162.863 10.8562 162.868 10.8011C162.878 10.7409 162.9 10.6733 162.934 10.5981C163.003 10.4678 163.195 10.4027 163.509 10.4027C163.745 10.4027 163.913 10.4453 164.011 10.5305C164.095 10.6006 164.139 10.7084 164.144 10.8537C164.149 10.9038 164.151 10.9764 164.151 11.0717V13.7024C164.151 13.8176 164.146 13.9053 164.136 13.9654C164.131 14.0205 164.109 14.0857 164.07 14.1608C164.006 14.2911 163.817 14.3563 163.502 14.3563C163.192 14.3563 163.003 14.2886 162.934 14.1533C162.9 14.0782 162.878 14.013 162.868 13.9579C162.863 13.9028 162.86 13.8151 162.86 13.6948V11.0566Z" fill="#3F40E9"/>
<path d="M166.901 10.3952C167.393 10.3952 167.801 10.5881 168.126 10.9739C168.455 11.3548 168.62 11.8208 168.62 12.372V13.6948C168.62 13.8101 168.615 13.8978 168.605 13.9579C168.6 14.013 168.581 14.0757 168.546 14.1458C168.477 14.2811 168.286 14.3488 167.971 14.3488C167.622 14.3488 167.42 14.2561 167.366 14.0707C167.337 13.9855 167.322 13.8577 167.322 13.6873V12.3645C167.322 12.159 167.263 11.9987 167.145 11.8834C167.032 11.7682 166.877 11.7105 166.68 11.7105C166.488 11.7105 166.331 11.7707 166.208 11.8909C166.09 12.0112 166.031 12.169 166.031 12.3645V13.6948C166.031 13.8101 166.026 13.8978 166.016 13.9579C166.011 14.013 165.989 14.0757 165.95 14.1458C165.886 14.2811 165.697 14.3488 165.382 14.3488C165.072 14.3488 164.883 14.2811 164.814 14.1458C164.78 14.0707 164.757 14.0055 164.748 13.9504C164.743 13.8903 164.74 13.8026 164.74 13.6873V11.0266C164.74 10.9163 164.743 10.8336 164.748 10.7785C164.757 10.7184 164.782 10.6532 164.821 10.5831C164.89 10.4578 165.08 10.3952 165.389 10.3952C165.689 10.3952 165.874 10.4528 165.943 10.5681C165.992 10.6532 166.016 10.756 166.016 10.8762C166.036 10.8412 166.08 10.791 166.149 10.7259C166.218 10.6608 166.284 10.6081 166.348 10.5681C166.515 10.4528 166.7 10.3952 166.901 10.3952Z" fill="#3F40E9"/>
<path d="M171.677 13.8602C171.49 14.1107 171.192 14.236 170.784 14.236C170.376 14.236 169.993 14.0456 169.634 13.6648C169.28 13.2789 169.103 12.8305 169.103 12.3194C169.103 11.8082 169.282 11.3598 169.641 10.9739C170 10.5881 170.393 10.3952 170.821 10.3952C170.988 10.3952 171.141 10.4278 171.278 10.4929C171.416 10.553 171.51 10.6107 171.559 10.6658C171.613 10.7159 171.655 10.7635 171.684 10.8086C171.699 10.6683 171.748 10.5631 171.832 10.4929C171.92 10.4177 172.06 10.3802 172.252 10.3802C172.444 10.3802 172.584 10.3952 172.672 10.4253C172.761 10.4553 172.822 10.5079 172.857 10.5831C172.896 10.6532 172.918 10.7159 172.923 10.771C172.933 10.8261 172.938 10.9113 172.938 11.0266V14.1383C172.938 14.7145 172.741 15.1781 172.348 15.5288C171.955 15.8846 171.512 16.0625 171.02 16.0625C170.647 16.0625 170.29 15.9698 169.951 15.7844C169.612 15.599 169.442 15.4311 169.442 15.2808C169.442 15.0854 169.516 14.9125 169.663 14.7622C169.757 14.6569 169.828 14.5843 169.877 14.5442C169.931 14.5041 169.993 14.484 170.061 14.484C170.13 14.484 170.202 14.5141 170.275 14.5742C170.511 14.7596 170.767 14.8523 171.042 14.8523C171.229 14.8523 171.382 14.7772 171.5 14.6269C171.618 14.4765 171.677 14.2961 171.677 14.0857V13.8602ZM170.364 12.3269C170.364 12.4872 170.425 12.6325 170.548 12.7628C170.676 12.8931 170.829 12.9582 171.006 12.9582C171.187 12.9582 171.337 12.8931 171.455 12.7628C171.573 12.6275 171.632 12.4822 171.632 12.3269C171.632 12.1665 171.576 12.0187 171.463 11.8834C171.35 11.7431 171.197 11.673 171.006 11.673C170.814 11.673 170.659 11.7406 170.541 11.8759C170.423 12.0112 170.364 12.1615 170.364 12.3269Z" fill="#3F40E9"/>
<path d="M164.164 9.22014C164.164 9.58337 163.875 9.87782 163.519 9.87782C163.162 9.87782 162.873 9.58337 162.873 9.22014C162.873 8.85692 163.162 8.56247 163.519 8.56247C163.875 8.56247 164.164 8.85692 164.164 9.22014Z" fill="#3F40E9"/>
<path d="M477.75 13.875H479.25C479.25 14.2875 478.912 14.625 478.5 14.625C478.088 14.625 477.75 14.2875 477.75 13.875ZM481.875 13.125V13.5H475.125V13.125L475.875 12.375V10.125C475.875 8.9625 476.625 7.95 477.75 7.6125V7.5C477.75 7.0875 478.088 6.75 478.5 6.75C478.912 6.75 479.25 7.0875 479.25 7.5V7.6125C480.375 7.95 481.125 8.9625 481.125 10.125V12.375L481.875 13.125ZM480.375 10.125C480.375 9.075 479.55 8.25 478.5 8.25C477.45 8.25 476.625 9.075 476.625 10.125V12.75H480.375V10.125Z" fill="#A6A6A6"/>
<g clip-path="url(#clip2_2316_35888)">
<path d="M500.625 7.5V10.125H496.939L496.5 10.5638V7.5H500.625ZM501 6.75H496.125C496.026 6.75 495.93 6.78951 495.86 6.85983C495.79 6.93016 495.75 7.02554 495.75 7.125V12.375L497.25 10.875H501C501.099 10.875 501.195 10.8355 501.265 10.7652C501.335 10.6948 501.375 10.5995 501.375 10.5V7.125C501.375 7.02554 501.335 6.93016 501.265 6.85983C501.195 6.78951 501.099 6.75 501 6.75ZM502.875 8.25H502.125V11.625H497.25V12.375C497.25 12.4745 497.29 12.5698 497.36 12.6402C497.43 12.7105 497.526 12.75 497.625 12.75H501.75L503.25 14.25V8.625C503.25 8.52554 503.21 8.43016 503.14 8.35984C503.07 8.28951 502.974 8.25 502.875 8.25Z" fill="#A6A6A6"/>
</g>
<circle cx="522" cy="10.5" r="6" fill="#B1B2F6"/>
<rect x="185.5" y="4.125" width="120" height="12.75" rx="3.75" fill="#F4F4F4"/>
<path d="M192.219 7.6875C192.757 7.6875 193.274 7.90151 193.655 8.28244C194.036 8.66337 194.25 9.18003 194.25 9.71875C194.25 10.2219 194.066 10.6844 193.762 11.0406L193.847 11.125H194.094L195.656 12.6875L195.188 13.1562L193.625 11.5938V11.3469L193.541 11.2625C193.184 11.5656 192.722 11.75 192.219 11.75C191.68 11.75 191.163 11.536 190.782 11.1551C190.402 10.7741 190.188 10.2575 190.188 9.71875C190.188 9.18003 190.402 8.66337 190.782 8.28244C191.163 7.90151 191.68 7.6875 192.219 7.6875ZM192.219 8.3125C191.438 8.3125 190.812 8.9375 190.812 9.71875C190.812 10.5 191.438 11.125 192.219 11.125C193 11.125 193.625 10.5 193.625 9.71875C193.625 8.9375 193 8.3125 192.219 8.3125Z" fill="#3F40E9"/>
<path d="M540 20.625H124V21.375H540V20.625Z" fill="#EBEBEB" mask="url(#path-22-inside-1_2316_35888)"/>
<g clip-path="url(#clip3_2316_35888)">
<rect width="416" height="345.548" transform="translate(124 20)" fill="white"/>
<rect x="134.064" y="98" width="395.871" height="194.581" rx="3.35484" fill="white"/>
<path d="M134.064 104.71C134.064 101.004 137.068 98 140.774 98H523.226C526.931 98 529.935 101.004 529.935 104.71V122.323H134.064V104.71Z" fill="#F6F6FE"/>
<path d="M157.355 109.057H155.956V108.538H157.355V109.057ZM157.825 110.964H157.189V107.139H157.825V110.964ZM157.937 112.219H154.408V111.698H157.937V112.219ZM155.056 111.981H154.408V110.585H155.056V111.981ZM154.359 108.315H155.518V107.481H156.145V110.124H153.72V107.481H154.359V108.315ZM155.518 109.616V108.805H154.359V109.616H155.518ZM163.057 108.344H158.771V107.828H163.057V108.344ZM163.298 111.761H158.562V111.245H163.298V111.761ZM161.228 111.442H160.6V110.499H161.228V111.442ZM160.915 108.61C161.269 108.608 161.577 108.647 161.839 108.728C162.102 108.806 162.305 108.921 162.446 109.072C162.588 109.221 162.658 109.398 162.658 109.605C162.658 109.815 162.588 109.996 162.446 110.147C162.305 110.298 162.103 110.414 161.841 110.496C161.58 110.577 161.271 110.618 160.915 110.62C160.556 110.618 160.245 110.577 159.981 110.496C159.719 110.414 159.518 110.298 159.376 110.147C159.237 109.996 159.167 109.815 159.167 109.605C159.167 109.398 159.237 109.221 159.376 109.072C159.518 108.921 159.719 108.806 159.981 108.728C160.245 108.647 160.556 108.608 160.915 108.61ZM160.915 109.109C160.679 109.109 160.479 109.128 160.316 109.166C160.154 109.203 160.03 109.258 159.944 109.333C159.86 109.405 159.819 109.496 159.82 109.605C159.819 109.714 159.86 109.806 159.944 109.88C160.03 109.955 160.154 110.011 160.316 110.049C160.479 110.087 160.679 110.107 160.915 110.107C161.149 110.107 161.345 110.087 161.506 110.049C161.668 110.011 161.792 109.955 161.876 109.88C161.962 109.806 162.005 109.714 162.005 109.605C162.005 109.498 161.962 109.407 161.876 109.333C161.792 109.258 161.668 109.203 161.506 109.166C161.345 109.128 161.149 109.109 160.915 109.109ZM161.228 108.146H160.6V107.2H161.228V108.146Z" fill="#8788E4"/>
<path d="M184.65 108.189C184.65 108.512 184.592 108.815 184.475 109.097C184.361 109.38 184.192 109.628 183.968 109.84C183.746 110.052 183.48 110.212 183.168 110.319L182.838 109.814C183.11 109.726 183.342 109.598 183.535 109.43C183.728 109.262 183.873 109.071 183.971 108.857C184.07 108.643 184.12 108.42 184.12 108.189V107.707H184.65V108.189ZM184.765 108.189C184.765 108.408 184.814 108.619 184.911 108.819C185.01 109.02 185.155 109.2 185.344 109.358C185.535 109.515 185.764 109.634 186.032 109.717L185.705 110.218C185.399 110.119 185.137 109.969 184.917 109.768C184.699 109.566 184.532 109.33 184.415 109.06C184.3 108.789 184.243 108.498 184.243 108.189V107.707H184.765V108.189ZM185.857 108.04H183.005V107.529H185.857V108.04ZM187.113 110.901H186.473V107.139H187.113V110.901ZM187.259 112.219H183.684V111.698H187.259V112.219ZM184.326 111.95H183.684V110.554H184.326V111.95ZM192.304 110.39H191.697V107.134H192.304V110.39ZM191.863 108.983H190.966V108.461H191.863V108.983ZM191.192 110.215H190.596V107.234H191.192V110.215ZM190.424 108.197H187.847V107.696H190.424V108.197ZM189.142 108.407C189.36 108.407 189.554 108.444 189.724 108.518C189.894 108.591 190.027 108.696 190.123 108.834C190.218 108.969 190.266 109.126 190.266 109.304C190.266 109.48 190.218 109.634 190.123 109.768C190.027 109.902 189.894 110.006 189.724 110.081C189.554 110.155 189.36 110.193 189.142 110.193C188.926 110.193 188.733 110.155 188.563 110.081C188.395 110.006 188.263 109.902 188.168 109.768C188.074 109.634 188.027 109.48 188.027 109.304C188.027 109.126 188.074 108.969 188.168 108.834C188.263 108.696 188.395 108.591 188.563 108.518C188.733 108.444 188.926 108.407 189.142 108.407ZM189.142 108.865C189.035 108.865 188.941 108.883 188.859 108.92C188.776 108.954 188.711 109.005 188.664 109.072C188.618 109.137 188.595 109.214 188.595 109.304C188.595 109.39 188.618 109.466 188.664 109.533C188.709 109.598 188.773 109.649 188.856 109.685C188.938 109.72 189.033 109.737 189.142 109.737C189.249 109.737 189.344 109.72 189.426 109.685C189.51 109.649 189.575 109.598 189.621 109.533C189.667 109.466 189.69 109.39 189.69 109.304C189.69 109.214 189.667 109.137 189.621 109.072C189.575 109.005 189.51 108.954 189.426 108.92C189.344 108.883 189.249 108.865 189.142 108.865ZM189.455 108.028H188.821V107.18H189.455V108.028ZM190.556 110.456C190.924 110.456 191.242 110.493 191.507 110.565C191.773 110.636 191.977 110.742 192.118 110.883C192.259 111.023 192.33 111.191 192.33 111.388C192.33 111.581 192.259 111.746 192.118 111.884C191.977 112.023 191.772 112.128 191.504 112.199C191.239 112.272 190.923 112.308 190.556 112.308C190.187 112.308 189.869 112.272 189.601 112.199C189.335 112.128 189.132 112.023 188.99 111.884C188.849 111.746 188.779 111.581 188.781 111.388C188.779 111.191 188.849 111.023 188.99 110.883C189.132 110.742 189.335 110.636 189.601 110.565C189.869 110.493 190.187 110.456 190.556 110.456ZM190.556 110.938C190.307 110.938 190.099 110.954 189.931 110.987C189.762 111.019 189.634 111.07 189.547 111.139C189.461 111.205 189.418 111.289 189.418 111.388C189.418 111.482 189.461 111.561 189.547 111.626C189.634 111.691 189.762 111.741 189.931 111.775C190.101 111.809 190.309 111.827 190.556 111.827C190.8 111.827 191.007 111.809 191.175 111.775C191.345 111.741 191.473 111.691 191.559 111.626C191.647 111.561 191.692 111.482 191.694 111.388C191.692 111.287 191.647 111.203 191.559 111.136C191.473 111.069 191.346 111.019 191.178 110.987C191.009 110.954 190.802 110.938 190.556 110.938ZM194.666 107.899C194.666 108.243 194.612 108.563 194.503 108.86C194.394 109.156 194.232 109.414 194.016 109.634C193.8 109.851 193.539 110.015 193.233 110.124L192.889 109.622C193.16 109.528 193.39 109.394 193.577 109.218C193.766 109.042 193.908 108.842 194.001 108.619C194.097 108.393 194.145 108.153 194.145 107.899V107.406H194.666V107.899ZM194.781 107.959C194.781 108.181 194.828 108.392 194.922 108.593C195.017 108.792 195.156 108.969 195.337 109.126C195.521 109.281 195.741 109.399 195.999 109.482L195.658 109.978C195.364 109.878 195.113 109.729 194.904 109.53C194.696 109.33 194.537 109.096 194.428 108.828C194.32 108.559 194.265 108.269 194.265 107.959V107.406H194.781V107.959ZM197.034 110.233H196.398V107.134H197.034V110.233ZM197.76 108.923H196.854V108.392H197.76V108.923ZM195.349 110.347C195.704 110.347 196.012 110.386 196.272 110.462C196.534 110.538 196.734 110.65 196.874 110.797C197.013 110.945 197.083 111.12 197.083 111.325C197.083 111.531 197.013 111.708 196.874 111.855C196.734 112.002 196.534 112.114 196.272 112.191C196.012 112.269 195.704 112.308 195.349 112.308C194.987 112.308 194.675 112.269 194.411 112.191C194.149 112.114 193.947 112.002 193.804 111.855C193.662 111.708 193.591 111.531 193.591 111.325C193.591 111.12 193.662 110.945 193.804 110.797C193.947 110.65 194.15 110.538 194.414 110.462C194.678 110.386 194.989 110.347 195.349 110.347ZM195.349 110.849C195.112 110.849 194.91 110.868 194.744 110.906C194.578 110.943 194.45 110.996 194.363 111.067C194.275 111.138 194.232 111.224 194.234 111.325C194.232 111.43 194.274 111.519 194.36 111.591C194.448 111.662 194.575 111.717 194.741 111.755C194.907 111.791 195.11 111.809 195.349 111.809C195.586 111.809 195.787 111.791 195.954 111.755C196.12 111.717 196.245 111.662 196.329 111.591C196.413 111.519 196.455 111.43 196.455 111.325C196.455 111.224 196.412 111.138 196.326 111.067C196.242 110.994 196.117 110.94 195.951 110.903C195.784 110.867 195.584 110.849 195.349 110.849ZM202.128 110.643H201.489V107.139H202.128V110.643ZM202.828 109.166H201.893V108.642H202.828V109.166ZM200.408 110.691C200.775 110.689 201.09 110.72 201.352 110.783C201.613 110.844 201.812 110.937 201.948 111.061C202.083 111.183 202.151 111.332 202.151 111.505C202.151 111.681 202.083 111.829 201.948 111.95C201.812 112.07 201.613 112.161 201.352 112.222C201.092 112.285 200.777 112.318 200.408 112.32C200.036 112.318 199.718 112.285 199.457 112.222C199.197 112.161 198.999 112.07 198.863 111.95C198.729 111.829 198.663 111.681 198.663 111.505C198.663 111.332 198.73 111.183 198.866 111.061C199.004 110.937 199.202 110.844 199.462 110.783C199.722 110.72 200.038 110.689 200.408 110.691ZM200.408 111.159C200.158 111.157 199.951 111.168 199.786 111.193C199.624 111.218 199.502 111.257 199.419 111.311C199.339 111.364 199.3 111.429 199.302 111.505C199.3 111.58 199.339 111.642 199.419 111.692C199.502 111.741 199.625 111.78 199.789 111.806C199.954 111.833 200.16 111.847 200.408 111.847C200.653 111.847 200.857 111.833 201.019 111.806C201.183 111.78 201.306 111.741 201.386 111.692C201.468 111.642 201.509 111.58 201.509 111.505C201.509 111.429 201.468 111.364 201.386 111.311C201.306 111.257 201.183 111.218 201.019 111.193C200.857 111.168 200.653 111.157 200.408 111.159ZM199.915 110.193H199.279V109.447H199.915V110.193ZM197.975 109.978C198.611 109.978 199.193 109.968 199.72 109.949C200.25 109.93 200.75 109.889 201.223 109.826L201.271 110.261C200.778 110.347 200.267 110.404 199.738 110.43C199.21 110.455 198.645 110.468 198.043 110.468L197.975 109.978ZM201.082 108.005H198.106V107.532H201.082V108.005ZM199.591 108.16C199.844 108.16 200.064 108.19 200.254 108.249C200.443 108.308 200.588 108.393 200.689 108.504C200.793 108.615 200.844 108.747 200.844 108.9C200.844 109.053 200.793 109.184 200.689 109.295C200.588 109.406 200.443 109.492 200.254 109.553C200.064 109.612 199.844 109.642 199.591 109.642C199.339 109.642 199.118 109.612 198.929 109.553C198.742 109.492 198.597 109.406 198.493 109.295C198.392 109.184 198.341 109.053 198.341 108.9C198.341 108.747 198.392 108.615 198.493 108.504C198.597 108.393 198.742 108.308 198.929 108.249C199.118 108.19 199.339 108.16 199.591 108.16ZM199.591 108.584C199.458 108.586 199.342 108.6 199.245 108.624C199.149 108.647 199.076 108.683 199.027 108.731C198.977 108.778 198.952 108.835 198.952 108.9C198.952 108.968 198.977 109.027 199.027 109.075C199.076 109.12 199.149 109.157 199.245 109.183C199.342 109.208 199.458 109.221 199.591 109.221C199.725 109.221 199.841 109.208 199.938 109.183C200.036 109.157 200.109 109.12 200.159 109.075C200.209 109.027 200.234 108.968 200.234 108.9C200.234 108.835 200.208 108.778 200.156 108.731C200.106 108.683 200.033 108.647 199.935 108.624C199.84 108.6 199.725 108.586 199.591 108.584ZM199.915 107.742H199.279V107.094H199.915V107.742Z" fill="#8788E4"/>
<path d="M212.331 107.647C212.329 108.218 212.264 108.731 212.134 109.186C212.004 109.639 211.767 110.064 211.423 110.459C211.079 110.853 210.601 111.202 209.989 111.505L209.64 111.024C210.171 110.762 210.588 110.469 210.889 110.144C211.193 109.817 211.405 109.46 211.526 109.072C211.648 108.684 211.71 108.236 211.712 107.727V107.647H212.331ZM212.091 108.163H209.952V107.647H212.091V108.163ZM209.766 109.596L209.683 109.046L211.695 108.923V109.413L209.766 109.596ZM213.696 112.308H213.06V107.134H213.696V112.308ZM214.464 109.688H213.533V109.161H214.464V109.688ZM217.801 109.565H216.855V109.052H217.801V109.565ZM215.224 110.625C215.625 110.622 215.958 110.611 216.221 110.594C216.487 110.577 216.759 110.545 217.038 110.499L217.09 111.012C216.817 111.064 216.548 111.097 216.285 111.113C216.023 111.128 215.669 111.136 215.224 111.136H214.883V110.625H215.224ZM216.818 108.235H215.49V110.806H214.883V107.73H216.818V108.235ZM216.603 109.613H215.313V109.12H216.603V109.613ZM219.18 112.311H218.566V107.134H219.18V112.311ZM218.096 112.067H217.497V107.237H218.096V112.067ZM223.609 108.12H220.275V107.607H223.609V108.12ZM224.506 111.646H219.788V111.127H224.506V111.646ZM222.158 111.394H221.531V109.321H222.158V111.394ZM224.013 108.169C224.011 108.595 223.999 108.984 223.976 109.335C223.953 109.685 223.898 110.092 223.812 110.557L223.167 110.488C223.229 110.18 223.274 109.89 223.302 109.616C223.333 109.341 223.352 109.099 223.36 108.891C223.367 108.683 223.371 108.433 223.371 108.143V108.108V107.607H224.013V108.108V108.169ZM229.176 112.325H228.542V107.134H229.176V112.325ZM225.598 110.571C226.08 110.573 226.518 110.561 226.911 110.537C227.305 110.51 227.711 110.462 228.13 110.393L228.187 110.915C227.77 110.986 227.361 111.034 226.96 111.061C226.559 111.086 226.105 111.098 225.598 111.098H225.145V110.571H225.598ZM227.582 109.527H225.802V110.769H225.145V109.023H226.934V108.103H225.14V107.584H227.582V109.527Z" fill="#8788E4"/>
<path d="M300.314 112.311H299.712V107.134H300.314V112.311ZM298.837 109.456H297.917V108.943H298.837V109.456ZM299.259 112.064H298.663V107.234H299.259V112.064ZM297.329 108.553C297.328 108.946 297.283 109.323 297.195 109.682C297.107 110.04 296.975 110.362 296.799 110.648C296.625 110.935 296.41 111.158 296.154 111.316L295.761 110.846C296.002 110.699 296.204 110.504 296.366 110.261C296.531 110.019 296.651 109.752 296.727 109.462C296.804 109.169 296.842 108.866 296.842 108.553V107.965H297.329V108.553ZM297.456 108.553C297.456 108.857 297.493 109.147 297.567 109.424C297.644 109.701 297.76 109.954 297.917 110.181C298.074 110.408 298.272 110.591 298.511 110.729L298.135 111.196C297.875 111.043 297.659 110.832 297.487 110.562C297.317 110.291 297.19 109.985 297.106 109.645C297.024 109.303 296.983 108.939 296.983 108.553V107.965H297.456V108.553ZM298.296 108.206H295.942V107.69H298.296V108.206ZM305.055 109.143H301.526V107.346H305.055V109.143ZM302.148 108.642H304.425V107.845H302.148V108.642ZM305.651 110.207H300.933V109.694H305.651V110.207ZM303.605 109.863H302.965V109.029H303.605V109.863ZM305.075 112.311H304.436V111.147H301.455V110.643H305.075V112.311Z" fill="#8788E4"/>
<path d="M391.508 108.031C391.508 108.356 391.452 108.66 391.339 108.943C391.226 109.225 391.06 109.472 390.84 109.682C390.622 109.892 390.359 110.05 390.052 110.155L389.713 109.662C389.985 109.572 390.216 109.443 390.407 109.275C390.598 109.105 390.742 108.914 390.84 108.702C390.939 108.488 390.989 108.264 390.989 108.031V107.667H391.508V108.031ZM391.631 108.037C391.629 108.253 391.675 108.461 391.769 108.662C391.862 108.862 392.001 109.042 392.184 109.201C392.368 109.359 392.592 109.483 392.858 109.57L392.534 110.064C392.23 109.962 391.971 109.81 391.757 109.608C391.545 109.405 391.384 109.169 391.273 108.9C391.164 108.63 391.109 108.343 391.109 108.037V107.667H391.631V108.037ZM392.706 107.971H389.894V107.461H392.706V107.971ZM393.859 110.258H393.222V107.134H393.859V110.258ZM394.584 108.963H393.678V108.43H394.584V108.963ZM393.859 112.311H393.222V111.007H390.404V110.496H393.859V112.311ZM396.625 107.905C396.625 108.253 396.569 108.576 396.456 108.874C396.343 109.17 396.176 109.428 395.954 109.648C395.734 109.868 395.467 110.033 395.151 110.144L394.81 109.628C395.089 109.536 395.325 109.403 395.518 109.229C395.713 109.055 395.859 108.856 395.954 108.63C396.052 108.403 396.101 108.161 396.103 107.905V107.415H396.625V107.905ZM396.742 107.876C396.742 108.117 396.788 108.344 396.88 108.556C396.972 108.766 397.108 108.953 397.29 109.118C397.473 109.28 397.697 109.403 397.961 109.487L397.617 109.983C397.317 109.876 397.063 109.72 396.854 109.516C396.648 109.311 396.492 109.071 396.387 108.794C396.282 108.515 396.229 108.209 396.229 107.876V107.415H396.742V107.876ZM399.185 110.181H398.548V107.134H399.185V110.181ZM397.433 110.322C397.796 110.322 398.111 110.361 398.376 110.439C398.642 110.515 398.846 110.629 398.987 110.78C399.13 110.929 399.202 111.109 399.202 111.319C399.202 111.527 399.13 111.705 398.987 111.852C398.846 112.001 398.642 112.114 398.376 112.191C398.111 112.269 397.796 112.308 397.433 112.308C397.068 112.308 396.754 112.269 396.49 112.191C396.226 112.114 396.023 112.001 395.88 111.852C395.738 111.705 395.667 111.527 395.667 111.319C395.667 111.111 395.738 110.931 395.88 110.78C396.023 110.629 396.226 110.515 396.49 110.439C396.754 110.361 397.068 110.322 397.433 110.322ZM397.433 110.817C397.191 110.817 396.985 110.837 396.817 110.875C396.649 110.913 396.521 110.969 396.433 111.044C396.345 111.118 396.301 111.21 396.301 111.319C396.301 111.424 396.345 111.513 396.433 111.586C396.521 111.658 396.649 111.714 396.817 111.752C396.987 111.79 397.193 111.809 397.433 111.809C397.674 111.809 397.879 111.79 398.047 111.752C398.217 111.714 398.346 111.658 398.434 111.586C398.522 111.513 398.566 111.424 398.566 111.319C398.566 111.21 398.522 111.118 398.434 111.044C398.348 110.969 398.22 110.913 398.05 110.875C397.88 110.837 397.674 110.817 397.433 110.817ZM398.649 108.662H397.516V108.14H398.649V108.662ZM401.647 108.602C401.647 108.986 401.587 109.359 401.467 109.722C401.348 110.085 401.178 110.409 400.956 110.694C400.735 110.979 400.478 111.191 400.185 111.331L399.81 110.829C400.075 110.703 400.31 110.52 400.512 110.281C400.715 110.041 400.87 109.774 400.977 109.482C401.085 109.189 401.141 108.896 401.143 108.602V107.919H401.647V108.602ZM401.779 108.602C401.777 108.877 401.828 109.152 401.931 109.427C402.034 109.7 402.183 109.95 402.378 110.175C402.575 110.401 402.806 110.576 403.072 110.7L402.714 111.202C402.421 111.064 402.166 110.86 401.948 110.591C401.73 110.32 401.563 110.011 401.447 109.665C401.33 109.319 401.272 108.965 401.272 108.602V107.919H401.779V108.602ZM402.863 108.169H400.01V107.647H402.863V108.169ZM403.978 112.311H403.342V107.134H403.978V112.311ZM404.778 109.688H403.835V109.152H404.778V109.688Z" fill="#8788E4"/>
<path d="M446.863 108.031C446.863 108.356 446.806 108.66 446.694 108.943C446.581 109.225 446.415 109.472 446.195 109.682C445.977 109.892 445.714 110.05 445.407 110.155L445.068 109.662C445.34 109.572 445.571 109.443 445.762 109.275C445.953 109.105 446.097 108.914 446.195 108.702C446.294 108.488 446.344 108.264 446.344 108.031V107.667H446.863V108.031ZM446.986 108.037C446.984 108.253 447.03 108.461 447.124 108.662C447.217 108.862 447.356 109.042 447.539 109.201C447.723 109.359 447.947 109.483 448.213 109.57L447.889 110.064C447.585 109.962 447.326 109.81 447.112 109.608C446.9 109.405 446.739 109.169 446.628 108.9C446.519 108.63 446.464 108.343 446.464 108.037V107.667H446.986V108.037ZM448.061 107.971H445.249V107.461H448.061V107.971ZM449.214 110.258H448.577V107.134H449.214V110.258ZM449.939 108.963H449.033V108.43H449.939V108.963ZM449.214 112.311H448.577V111.007H445.759V110.496H449.214V112.311ZM451.98 107.905C451.98 108.253 451.924 108.576 451.811 108.874C451.698 109.17 451.531 109.428 451.309 109.648C451.089 109.868 450.822 110.033 450.506 110.144L450.165 109.628C450.444 109.536 450.68 109.403 450.873 109.229C451.068 109.055 451.214 108.856 451.309 108.63C451.407 108.403 451.456 108.161 451.458 107.905V107.415H451.98V107.905ZM452.097 107.876C452.097 108.117 452.143 108.344 452.235 108.556C452.327 108.766 452.463 108.953 452.645 109.118C452.828 109.28 453.052 109.403 453.316 109.487L452.972 109.983C452.672 109.876 452.418 109.72 452.209 109.516C452.003 109.311 451.847 109.071 451.742 108.794C451.637 108.515 451.584 108.209 451.584 107.876V107.415H452.097V107.876ZM454.54 110.181H453.903V107.134H454.54V110.181ZM452.788 110.322C453.151 110.322 453.466 110.361 453.731 110.439C453.997 110.515 454.201 110.629 454.342 110.78C454.485 110.929 454.557 111.109 454.557 111.319C454.557 111.527 454.485 111.705 454.342 111.852C454.201 112.001 453.997 112.114 453.731 112.191C453.466 112.269 453.151 112.308 452.788 112.308C452.423 112.308 452.109 112.269 451.845 112.191C451.581 112.114 451.378 112.001 451.235 111.852C451.093 111.705 451.022 111.527 451.022 111.319C451.022 111.111 451.093 110.931 451.235 110.78C451.378 110.629 451.581 110.515 451.845 110.439C452.109 110.361 452.423 110.322 452.788 110.322ZM452.788 110.817C452.546 110.817 452.34 110.837 452.172 110.875C452.004 110.913 451.876 110.969 451.788 111.044C451.7 111.118 451.656 111.21 451.656 111.319C451.656 111.424 451.7 111.513 451.788 111.586C451.876 111.658 452.004 111.714 452.172 111.752C452.342 111.79 452.548 111.809 452.788 111.809C453.029 111.809 453.234 111.79 453.402 111.752C453.572 111.714 453.701 111.658 453.789 111.586C453.877 111.513 453.921 111.424 453.921 111.319C453.921 111.21 453.877 111.118 453.789 111.044C453.703 110.969 453.575 110.913 453.405 110.875C453.235 110.837 453.029 110.817 452.788 110.817ZM454.004 108.662H452.871V108.14H454.004V108.662ZM456.744 107.3C457.002 107.3 457.235 107.35 457.444 107.449C457.654 107.548 457.817 107.688 457.934 107.868C458.052 108.045 458.112 108.246 458.112 108.47C458.112 108.695 458.052 108.897 457.934 109.075C457.817 109.25 457.655 109.389 457.447 109.49C457.238 109.59 457.004 109.639 456.744 109.639C456.483 109.639 456.246 109.59 456.036 109.49C455.828 109.389 455.665 109.25 455.546 109.075C455.428 108.897 455.368 108.695 455.368 108.47C455.368 108.246 455.428 108.045 455.546 107.868C455.665 107.688 455.828 107.548 456.036 107.449C456.246 107.35 456.483 107.3 456.744 107.3ZM456.744 107.825C456.597 107.827 456.466 107.853 456.352 107.905C456.237 107.957 456.147 108.032 456.082 108.131C456.019 108.229 455.988 108.342 455.99 108.47C455.988 108.602 456.019 108.717 456.082 108.817C456.147 108.914 456.237 108.989 456.352 109.043C456.466 109.096 456.597 109.123 456.744 109.123C456.888 109.123 457.017 109.096 457.131 109.043C457.246 108.989 457.336 108.914 457.401 108.817C457.466 108.717 457.498 108.602 457.498 108.47C457.498 108.342 457.466 108.229 457.401 108.131C457.336 108.032 457.246 107.957 457.131 107.905C457.017 107.853 456.888 107.827 456.744 107.825ZM459.588 109.754H458.949V107.134H459.588V109.754ZM459.588 111.333H456.784V112.016H456.162V110.863H458.952V110.476H456.151V109.978H459.588V111.333ZM459.743 112.251H456.162V111.749H459.743V112.251Z" fill="#8788E4"/>
<path d="M486.683 108.2C486.683 108.5 486.627 108.779 486.514 109.037C486.401 109.295 486.235 109.519 486.015 109.708C485.796 109.895 485.531 110.034 485.221 110.124L484.914 109.628C485.18 109.553 485.408 109.443 485.597 109.298C485.788 109.151 485.931 108.984 486.027 108.796C486.124 108.609 486.173 108.41 486.173 108.2V108.002H486.683V108.2ZM486.804 108.2C486.804 108.393 486.85 108.577 486.944 108.751C487.04 108.924 487.18 109.081 487.366 109.221C487.551 109.358 487.775 109.463 488.039 109.536L487.747 110.032C487.435 109.946 487.17 109.812 486.95 109.631C486.732 109.449 486.567 109.236 486.454 108.991C486.341 108.747 486.285 108.483 486.285 108.2V108.002H486.804V108.2ZM487.89 108.192H485.086V107.687H487.89V108.192ZM486.812 107.902H486.173V107.111H486.812V107.902ZM489.031 110.181H488.395V107.134H489.031V110.181ZM489.756 108.908H488.85V108.384H489.756V108.908ZM489.031 112.251H485.686V110.405H489.031V112.251ZM486.316 111.738H488.4V110.906H486.316V111.738ZM493.847 108.751H492.354V108.232H493.847V108.751ZM493.847 110.362H492.354V109.849H493.847V110.362ZM491.433 107.512C491.689 107.512 491.918 107.587 492.118 107.736C492.321 107.885 492.478 108.098 492.589 108.375C492.701 108.652 492.758 108.974 492.758 109.341C492.758 109.712 492.701 110.036 492.589 110.313C492.478 110.588 492.321 110.801 492.118 110.952C491.918 111.101 491.689 111.176 491.433 111.176C491.173 111.176 490.943 111.101 490.742 110.952C490.542 110.801 490.385 110.588 490.272 110.313C490.16 110.036 490.103 109.712 490.103 109.341C490.103 108.974 490.16 108.652 490.272 108.375C490.385 108.098 490.542 107.885 490.742 107.736C490.943 107.587 491.173 107.512 491.433 107.512ZM491.433 108.086C491.29 108.086 491.165 108.136 491.058 108.237C490.951 108.337 490.867 108.481 490.806 108.67C490.744 108.86 490.714 109.083 490.714 109.341C490.714 109.603 490.744 109.828 490.806 110.018C490.867 110.207 490.951 110.351 491.058 110.451C491.165 110.55 491.29 110.599 491.433 110.597C491.575 110.599 491.7 110.55 491.809 110.451C491.92 110.351 492.005 110.207 492.064 110.018C492.123 109.828 492.153 109.603 492.153 109.341C492.153 109.083 492.123 108.86 492.064 108.67C492.005 108.479 491.92 108.334 491.809 108.235C491.7 108.135 491.575 108.086 491.433 108.086ZM494.36 112.325H493.73V107.134H494.36V112.325ZM499.523 110.129H498.913V107.139H499.523V110.129ZM498.491 110.072H497.886V107.234H498.491V110.072ZM498.067 108.894H497.172V108.369H498.067V108.894ZM497.333 109.791H495.292V107.515H497.333V109.791ZM495.894 109.315H496.74V108.002H495.894V109.315ZM499.523 112.251H496.031V110.353H499.523V112.251ZM496.656 111.738H498.892V110.849H496.656V111.738ZM504.508 112.325H503.878V107.134H504.508V112.325ZM504.058 109.513H502.619V108.994H504.058V109.513ZM500.999 108.825H502.198V107.538H502.823V111.067H500.363V107.538H500.999V108.825ZM502.198 110.554V109.327H500.999V110.554H502.198Z" fill="#8788E4"/>
<rect x="183.129" y="129.871" width="19.2903" height="8.3871" rx="1.67742" fill="#FC3B3B"/>
<rect x="209.968" y="129.871" width="19.2903" height="8.3871" rx="1.67742" fill="#8788E4"/>
<circle cx="489.5" cy="134.484" r="4.5" fill="#F3DEDE" stroke="white" stroke-width="0.375"/>
<circle cx="495.5" cy="134.484" r="4.5" fill="#E9F4E4" stroke="white" stroke-width="0.375"/>
<circle cx="501.5" cy="134.484" r="4.5" fill="#EBEBEB" stroke="white" stroke-width="0.375"/>
<path d="M500.125 133.268H500.53V135.057H500.125V133.268ZM499.433 133.96H501.224V134.363H499.433V133.96ZM502.694 135.521C502.507 135.521 502.34 135.489 502.192 135.425C502.046 135.362 501.93 135.273 501.844 135.158C501.76 135.042 501.716 134.911 501.712 134.764H502.194C502.198 134.835 502.222 134.897 502.267 134.951C502.312 135.004 502.372 135.044 502.445 135.074C502.518 135.103 502.6 135.118 502.692 135.118C502.79 135.118 502.877 135.101 502.954 135.068C503.031 135.035 503.091 134.989 503.133 134.929C503.176 134.869 503.197 134.801 503.196 134.724C503.196 134.643 503.174 134.572 503.131 134.51C503.089 134.448 503.025 134.399 502.941 134.365C502.858 134.33 502.76 134.312 502.646 134.312H502.41V133.944H502.646C502.739 133.944 502.822 133.928 502.895 133.896C502.969 133.863 503.025 133.818 503.064 133.759C503.104 133.7 503.124 133.633 503.124 133.558C503.124 133.484 503.106 133.42 503.071 133.364C503.037 133.306 502.987 133.262 502.923 133.23C502.859 133.198 502.785 133.182 502.699 133.182C502.615 133.183 502.538 133.199 502.467 133.228C502.396 133.257 502.339 133.299 502.295 133.354C502.251 133.409 502.228 133.473 502.225 133.547H501.766C501.769 133.4 501.812 133.27 501.896 133.157C501.98 133.042 502.092 132.953 502.232 132.891C502.373 132.828 502.529 132.796 502.701 132.796C502.877 132.796 503.031 132.829 503.164 132.895C503.299 132.959 503.402 133.048 503.476 133.16C503.549 133.271 503.585 133.395 503.584 133.53C503.585 133.628 503.565 133.716 503.525 133.796C503.486 133.875 503.429 133.941 503.355 133.993C503.28 134.046 503.195 134.083 503.099 134.103V134.123C503.222 134.141 503.327 134.177 503.415 134.233C503.504 134.288 503.572 134.36 503.617 134.449C503.662 134.537 503.684 134.637 503.684 134.748C503.684 134.894 503.642 135.026 503.556 135.143C503.472 135.261 503.354 135.353 503.203 135.42C503.053 135.487 502.883 135.521 502.694 135.521Z" fill="#202020"/>
<rect x="147" y="130.323" width="21" height="8" rx="2" fill="#EBEBEB"/>
<rect x="249" y="130" width="106" height="8" rx="2" fill="#EBEBEB"/>
<rect x="372" y="130" width="43" height="8" rx="2" fill="#EBEBEB"/>
<rect x="432" y="130" width="43" height="8" rx="2" fill="#EBEBEB"/>
<rect x="183.129" y="154.194" width="19.2903" height="8.3871" rx="1.67742" fill="#13C53B"/>
<rect x="209.968" y="154.194" width="19.2903" height="8.3871" rx="1.67742" fill="#8788E4"/>
<rect x="147" y="154.645" width="21" height="8" rx="2" fill="#EBEBEB"/>
<rect x="249" y="154.323" width="106" height="8" rx="2" fill="#EBEBEB"/>
<rect x="372" y="154.323" width="43" height="8" rx="2" fill="#EBEBEB"/>
<rect x="432" y="154.323" width="43" height="8" rx="2" fill="#EBEBEB"/>
<circle cx="495.5" cy="161.823" r="4.5" fill="#E9F4E4" stroke="white" stroke-width="0.375"/>
<g clip-path="url(#clip4_2316_35888)">
<rect x="183.129" y="178.516" width="19.2903" height="8.3871" rx="1.67742" fill="#1F93FF"/>
</g>
<g clip-path="url(#clip5_2316_35888)">
<rect x="209.968" y="178.516" width="19.2903" height="8.3871" rx="1.67742" fill="#8788E4"/>
</g>
<rect x="147" y="178.968" width="21" height="8" rx="2" fill="#EBEBEB"/>
<rect x="249" y="178.645" width="106" height="8" rx="2" fill="#EBEBEB"/>
<rect x="372" y="178.645" width="43" height="8" rx="2" fill="#EBEBEB"/>
<rect x="432" y="178.645" width="43" height="8" rx="2" fill="#EBEBEB"/>
<circle cx="492.5" cy="183.5" r="4.5" fill="#F3DEDE" stroke="white" stroke-width="0.375"/>
<circle cx="498.5" cy="183.5" r="4.5" fill="#E9F4E4" stroke="white" stroke-width="0.375"/>
<rect x="183.129" y="202.839" width="19.2903" height="8.3871" rx="1.67742" fill="#7100E1"/>
<rect x="209.968" y="202.839" width="19.2903" height="8.3871" rx="1.67742" fill="#8788E4"/>
<rect x="147" y="203.29" width="21" height="8" rx="2" fill="#EBEBEB"/>
<rect x="249" y="202.968" width="106" height="8" rx="2" fill="#EBEBEB"/>
<rect x="372" y="202.968" width="43" height="8" rx="2" fill="#EBEBEB"/>
<rect x="432" y="202.968" width="43" height="8" rx="2" fill="#EBEBEB"/>
<circle cx="492.5" cy="207.823" r="4.5" fill="#F3DEDE" stroke="white" stroke-width="0.375"/>
<circle cx="498.5" cy="207.823" r="4.5" fill="#E9F4E4" stroke="white" stroke-width="0.375"/>
<rect x="183.129" y="227.161" width="19.2903" height="8.3871" rx="1.67742" fill="#13C53B"/>
<rect x="209.968" y="227.161" width="19.2903" height="8.3871" rx="1.67742" fill="#8788E4"/>
<rect x="147" y="227.613" width="21" height="8" rx="2" fill="#EBEBEB"/>
<rect x="249" y="227.29" width="106" height="8" rx="2" fill="#EBEBEB"/>
<rect x="372" y="227.29" width="43" height="8" rx="2" fill="#EBEBEB"/>
<rect x="432" y="227.29" width="43" height="8" rx="2" fill="#EBEBEB"/>
<circle cx="495.5" cy="234.79" r="4.5" fill="#E9F4E4" stroke="white" stroke-width="0.375"/>
<g clip-path="url(#clip6_2316_35888)">
<rect x="183.129" y="251.484" width="19.2903" height="8.3871" rx="1.67742" fill="#FC3B3B"/>
</g>
<g clip-path="url(#clip7_2316_35888)">
<rect x="209.968" y="251.484" width="19.2903" height="8.3871" rx="1.67742" fill="#8788E4"/>
</g>
<circle cx="489.5" cy="256.097" r="4.5" fill="#F3DEDE" stroke="white" stroke-width="0.375"/>
<circle cx="495.5" cy="256.097" r="4.5" fill="#E9F4E4" stroke="white" stroke-width="0.375"/>
<circle cx="501.5" cy="256.097" r="4.5" fill="#EBEBEB" stroke="white" stroke-width="0.375"/>
<path d="M500.14 254.881H500.544V256.67H500.14V254.881ZM499.447 255.573H501.238V255.976H499.447V255.573ZM502.712 257.133C502.538 257.133 502.38 257.101 502.24 257.036C502.099 256.97 501.988 256.881 501.906 256.767C501.826 256.652 501.783 256.522 501.778 256.377H502.242C502.246 256.448 502.27 256.511 502.313 256.568C502.357 256.624 502.414 256.668 502.483 256.701C502.553 256.733 502.629 256.748 502.712 256.747C502.81 256.747 502.897 256.725 502.974 256.681C503.051 256.637 503.111 256.577 503.155 256.5C503.199 256.423 503.221 256.336 503.221 256.238C503.221 256.139 503.199 256.051 503.153 255.973C503.109 255.893 503.048 255.832 502.969 255.788C502.889 255.742 502.799 255.72 502.698 255.72C502.593 255.719 502.503 255.737 502.43 255.775C502.357 255.811 502.3 255.869 502.258 255.947H501.817L501.976 254.445H503.542V254.845H502.37L502.289 255.55H502.311C502.365 255.49 502.438 255.442 502.529 255.405C502.621 255.367 502.72 255.348 502.828 255.346C502.989 255.346 503.135 255.384 503.265 255.46C503.397 255.534 503.5 255.639 503.573 255.773C503.647 255.907 503.684 256.058 503.684 256.225C503.684 256.4 503.643 256.556 503.56 256.694C503.477 256.832 503.362 256.94 503.214 257.018C503.067 257.095 502.9 257.133 502.712 257.133Z" fill="#202020"/>
<rect x="147" y="251.935" width="21" height="8" rx="2" fill="#EBEBEB"/>
<rect x="249" y="251.613" width="106" height="8" rx="2" fill="#EBEBEB"/>
<rect x="372" y="251.613" width="43" height="8" rx="2" fill="#EBEBEB"/>
<rect x="432" y="251.613" width="43" height="8" rx="2" fill="#EBEBEB"/>
<rect x="183.129" y="275.806" width="19.2903" height="8.3871" rx="1.67742" fill="#1F93FF"/>
<rect x="209.968" y="275.806" width="19.2903" height="8.3871" rx="1.67742" fill="#8788E4"/>
<rect x="147" y="276.258" width="21" height="8" rx="2" fill="#EBEBEB"/>
<rect x="249" y="275.935" width="106" height="8" rx="2" fill="#EBEBEB"/>
<rect x="372" y="275.935" width="43" height="8" rx="2" fill="#EBEBEB"/>
<rect x="432" y="275.935" width="43" height="8" rx="2" fill="#EBEBEB"/>
<circle cx="492.5" cy="280.79" r="4.5" fill="#F3DEDE" stroke="white" stroke-width="0.375"/>
<circle cx="498.5" cy="280.79" r="4.5" fill="#E9F4E4" stroke="white" stroke-width="0.375"/>
<rect x="134.064" y="98" width="395.871" height="194.581" rx="3.35484" stroke="#F6F6FE" stroke-width="0.419355"/>
<path d="M254.845 321.45L254.352 320.957L252.255 323.054L254.352 325.151L254.845 324.658L253.244 323.054L254.845 321.45Z" fill="#202020"/>
<path d="M250.561 320.957H251.242V325.151H250.561V320.957Z" fill="#202020"/>
<path d="M268.998 324.654L267.398 323.054L268.998 321.45L268.505 320.957L266.409 323.054L268.505 325.151L268.998 324.654Z" fill="#202020"/>
<path d="M284.312 324.699H283.791V321.087H283.768L282.759 321.758V321.236L283.791 320.548H284.312V324.699Z" fill="#202020"/>
<path d="M298.339 324.321L299.755 322.83C299.94 322.631 300.082 322.471 300.179 322.348C300.278 322.226 300.354 322.109 300.406 321.998C300.457 321.886 300.483 321.767 300.483 321.643C300.483 321.504 300.447 321.381 300.374 321.276C300.301 321.169 300.202 321.086 300.076 321.027C299.952 320.967 299.812 320.938 299.657 320.938C299.495 320.938 299.353 320.97 299.23 321.035C299.11 321.1 299.016 321.192 298.949 321.31C298.882 321.427 298.849 321.563 298.849 321.718H298.362C298.36 321.477 298.415 321.264 298.528 321.078C298.643 320.893 298.8 320.749 299.001 320.645C299.202 320.542 299.426 320.491 299.675 320.491C299.921 320.491 300.142 320.541 300.337 320.643C300.534 320.744 300.687 320.882 300.798 321.058C300.909 321.234 300.965 321.429 300.965 321.643C300.963 321.802 300.933 321.954 300.876 322.099C300.82 322.242 300.725 322.402 300.589 322.578C300.453 322.753 300.261 322.969 300.013 323.225L299.061 324.206V324.24H301.039V324.699H298.344L298.339 324.321Z" fill="#202020"/>
<path d="M315.624 324.756C315.351 324.756 315.107 324.71 314.891 324.619C314.677 324.527 314.506 324.398 314.38 324.232C314.254 324.063 314.187 323.871 314.18 323.655H314.701C314.711 323.785 314.757 323.898 314.839 323.994C314.923 324.089 315.032 324.164 315.166 324.217C315.301 324.271 315.452 324.298 315.619 324.298C315.8 324.298 315.963 324.267 316.106 324.206C316.251 324.145 316.364 324.059 316.444 323.948C316.525 323.837 316.565 323.711 316.565 323.569C316.563 323.418 316.523 323.285 316.444 323.168C316.368 323.05 316.253 322.958 316.1 322.893C315.947 322.828 315.766 322.795 315.556 322.795H315.217V322.342H315.556C315.722 322.342 315.87 322.313 316 322.254C316.132 322.194 316.233 322.111 316.304 322.004C316.375 321.895 316.41 321.771 316.41 321.632C316.41 321.494 316.378 321.373 316.315 321.267C316.252 321.162 316.162 321.081 316.046 321.024C315.929 320.966 315.793 320.938 315.636 320.938C315.487 320.94 315.347 320.967 315.217 321.021C315.087 321.073 314.981 321.148 314.899 321.247C314.817 321.345 314.772 321.46 314.764 321.591H314.266C314.273 321.377 314.34 321.186 314.466 321.018C314.592 320.85 314.759 320.72 314.965 320.628C315.172 320.536 315.397 320.491 315.642 320.491C315.898 320.491 316.122 320.541 316.315 320.643C316.508 320.744 316.655 320.88 316.757 321.05C316.86 321.22 316.911 321.404 316.909 321.603C316.911 321.758 316.883 321.899 316.826 322.027C316.77 322.153 316.689 322.26 316.582 322.348C316.475 322.436 316.349 322.501 316.204 322.543V322.572C316.381 322.599 316.535 322.657 316.665 322.747C316.797 322.837 316.897 322.952 316.966 323.094C317.035 323.235 317.069 323.394 317.069 323.569C317.069 323.793 317.007 323.996 316.883 324.177C316.759 324.357 316.586 324.498 316.364 324.601C316.144 324.705 315.898 324.756 315.624 324.756Z" fill="#202020"/>
<path d="M330.003 323.426L331.872 320.548H332.182V321.202H331.964L330.56 323.363V323.397H333.088V323.85H330.003V323.426ZM332.016 323.724V323.524V320.548H332.509V324.699H332.016V323.724Z" fill="#202020"/>
<path d="M347.475 324.756C347.229 324.756 347.004 324.708 346.802 324.613C346.601 324.517 346.441 324.386 346.32 324.22C346.202 324.054 346.138 323.866 346.128 323.655H346.627C346.638 323.778 346.683 323.888 346.762 323.985C346.84 324.083 346.941 324.16 347.066 324.217C347.192 324.275 347.328 324.303 347.475 324.303C347.653 324.303 347.812 324.263 347.951 324.183C348.093 324.103 348.204 323.993 348.284 323.853C348.364 323.714 348.404 323.558 348.404 323.386C348.404 323.208 348.363 323.049 348.281 322.907C348.199 322.764 348.084 322.651 347.937 322.569C347.79 322.487 347.625 322.446 347.441 322.446C347.26 322.442 347.104 322.471 346.974 322.532C346.844 322.591 346.742 322.687 346.667 322.818H346.168L346.461 320.548H348.708V321.007H346.891L346.736 322.222H346.776C346.872 322.149 346.985 322.091 347.117 322.047C347.251 322.003 347.389 321.981 347.533 321.981C347.793 321.981 348.028 322.041 348.238 322.159C348.448 322.278 348.613 322.444 348.731 322.658C348.85 322.87 348.909 323.109 348.909 323.375C348.909 323.638 348.847 323.875 348.722 324.085C348.598 324.296 348.427 324.46 348.209 324.579C347.993 324.697 347.749 324.756 347.475 324.756Z" fill="#202020"/>
<path d="M363.454 324.756C363.186 324.752 362.939 324.689 362.714 324.567C362.488 324.445 362.303 324.237 362.158 323.945C362.013 323.653 361.94 323.266 361.94 322.784C361.94 322.299 362.004 321.884 362.132 321.54C362.26 321.196 362.442 320.935 362.677 320.757C362.912 320.579 363.192 320.491 363.517 320.491C363.755 320.491 363.97 320.536 364.162 320.628C364.355 320.72 364.511 320.85 364.632 321.018C364.752 321.184 364.83 321.375 364.864 321.591H364.354C364.321 321.465 364.268 321.353 364.193 321.256C364.121 321.159 364.027 321.083 363.912 321.03C363.798 320.976 363.666 320.949 363.517 320.949C363.289 320.949 363.093 321.011 362.929 321.136C362.766 321.26 362.642 321.441 362.556 321.68C362.47 321.917 362.427 322.201 362.427 322.532H362.479C362.559 322.415 362.654 322.316 362.763 322.234C362.872 322.149 362.992 322.086 363.124 322.044C363.258 322.002 363.398 321.981 363.545 321.981C363.79 321.981 364.015 322.041 364.222 322.159C364.428 322.278 364.593 322.442 364.715 322.652C364.837 322.86 364.898 323.095 364.898 323.357C364.898 323.619 364.838 323.857 364.718 324.071C364.597 324.283 364.427 324.451 364.207 324.576C363.99 324.698 363.738 324.758 363.454 324.756ZM363.454 324.303C363.629 324.303 363.789 324.26 363.932 324.174C364.076 324.088 364.189 323.975 364.273 323.833C364.357 323.69 364.4 323.533 364.4 323.363C364.4 323.195 364.359 323.04 364.279 322.899C364.199 322.757 364.087 322.644 363.944 322.56C363.8 322.476 363.641 322.434 363.465 322.434C363.287 322.434 363.125 322.477 362.978 322.563C362.832 322.649 362.716 322.765 362.628 322.91C362.542 323.053 362.498 323.206 362.496 323.369C362.496 323.531 362.538 323.684 362.622 323.827C362.706 323.969 362.821 324.084 362.966 324.171C363.111 324.259 363.274 324.303 363.454 324.303Z" fill="#202020"/>
<circle cx="379.355" cy="323.054" r="6.70968" fill="#B1B2F6"/>
<path d="M380.16 321.035V321.007H377.964V320.548H380.693V321.03L378.796 324.699H378.257L380.16 321.035Z" fill="#202020"/>
<path d="M394.099 324.654L395.699 323.054L394.099 321.45L394.591 320.957L396.688 323.054L394.591 325.151L394.099 324.654Z" fill="#A6A6A6"/>
<path d="M408.238 324.658L408.73 325.151L410.827 323.054L408.73 320.957L408.238 321.45L409.838 323.054L408.238 324.658Z" fill="#A6A6A6"/>
<path d="M412.522 325.151L411.841 325.151L411.841 320.957L412.522 320.957L412.522 325.151Z" fill="#A6A6A6"/>
<rect x="134.064" y="73.6774" width="112.387" height="14.2581" rx="4.19355" fill="#F4F4F4"/>
<path d="M141.578 77.6613C142.18 77.6613 142.758 77.9006 143.184 78.3266C143.61 78.7526 143.849 79.3304 143.849 79.9328C143.849 80.4954 143.643 81.0126 143.304 81.411L143.398 81.5054H143.674L145.422 83.2527L144.898 83.7769L143.15 82.0296V81.7535L143.056 81.6591C142.657 81.9981 142.14 82.2043 141.578 82.2043C140.975 82.2043 140.397 81.965 139.971 81.539C139.545 81.113 139.306 80.5352 139.306 79.9328C139.306 79.3304 139.545 78.7526 139.971 78.3266C140.397 77.9006 140.975 77.6613 141.578 77.6613ZM141.578 78.3602C140.704 78.3602 140.005 79.0591 140.005 79.9328C140.005 80.8064 140.704 81.5054 141.578 81.5054C142.451 81.5054 143.15 80.8064 143.15 79.9328C143.15 79.0591 142.451 78.3602 141.578 78.3602Z" fill="#3F40E9"/>
<rect x="251.484" y="73.6774" width="58.7097" height="14.2581" rx="3.35484" fill="white"/>
<path d="M298.204 79.3722L300.129 81.2971L302.054 79.3722L302.645 79.9677L300.129 82.4838L297.613 79.9677L298.204 79.3722Z" fill="#202020"/>
<rect x="251.484" y="73.6774" width="58.7097" height="14.2581" rx="3.35484" stroke="#3F40E9" stroke-width="0.419355"/>
<rect x="315.226" y="73.6774" width="58.7097" height="14.2581" rx="3.35484" fill="white"/>
<path d="M361.946 79.3722L363.871 81.2971L365.795 79.3722L366.387 79.9677L363.871 82.4838L361.354 79.9677L361.946 79.3722Z" fill="#202020"/>
<rect x="315.226" y="73.6774" width="58.7097" height="14.2581" rx="3.35484" stroke="#3F40E9" stroke-width="0.419355"/>
<rect x="378.968" y="73.6774" width="58.7097" height="14.2581" rx="3.35484" fill="white"/>
<path d="M425.688 79.3723L427.613 81.2971L429.538 79.3723L430.129 79.9677L427.613 82.4839L425.097 79.9677L425.688 79.3723Z" fill="#202020"/>
<rect x="378.968" y="73.6774" width="58.7097" height="14.2581" rx="3.35484" stroke="#3F40E9" stroke-width="0.419355"/>
<rect x="496.387" y="74.5161" width="33.5484" height="13.4194" rx="3.35484" fill="#3F40E9"/>
<path d="M504.215 81.5054H502.538V83.1828H501.979V81.5054H500.301V80.9462H501.979V79.2688H502.538V80.9462H504.215V81.5054Z" fill="white"/>
<path d="M510.869 81.969H510.324V78.7231H510.869V81.969ZM511.491 80.475H510.707V80.0229H511.491V80.475ZM511.044 83.0796H508.024V82.6324H511.044V83.0796ZM508.567 82.8265H508.024V81.6299H508.567V82.8265ZM508.611 79.0155C508.836 79.0155 509.039 79.0638 509.221 79.1605C509.404 79.2555 509.548 79.3882 509.651 79.5585C509.756 79.7272 509.809 79.9189 509.81 80.1335C509.809 80.3465 509.756 80.5381 509.651 80.7085C509.548 80.8772 509.404 81.0099 509.221 81.1065C509.039 81.2032 508.836 81.2515 508.611 81.2515C508.39 81.2515 508.188 81.2032 508.004 81.1065C507.821 81.0099 507.677 80.8764 507.572 80.706C507.467 80.5357 507.415 80.3448 507.415 80.1335C507.415 79.9189 507.467 79.7272 507.572 79.5585C507.677 79.3882 507.82 79.2555 508.002 79.1605C508.185 79.0638 508.389 79.0155 508.611 79.0155ZM508.611 79.4946C508.488 79.4946 508.376 79.5208 508.275 79.5733C508.175 79.624 508.095 79.6986 508.036 79.7969C507.979 79.8935 507.95 80.0057 507.95 80.1335C507.95 80.2596 507.979 80.371 508.036 80.4677C508.095 80.5627 508.175 80.6372 508.275 80.6913C508.376 80.7453 508.488 80.7724 508.611 80.7724C508.737 80.7724 508.851 80.7461 508.95 80.6937C509.052 80.6397 509.131 80.5643 509.189 80.4677C509.248 80.371 509.277 80.2596 509.277 80.1335C509.277 80.0057 509.248 79.8935 509.189 79.7969C509.131 79.6986 509.052 79.624 508.95 79.5733C508.851 79.5208 508.737 79.4946 508.611 79.4946ZM515.435 81.9837H514.889V78.7255H515.435V81.9837ZM514.975 80.4873H514.032V80.0401H514.975V80.4873ZM514.066 79.0573C514.065 79.4455 513.982 79.8001 513.818 80.1212C513.656 80.4423 513.42 80.7208 513.11 80.9566C512.801 81.1925 512.431 81.3785 512.002 81.5144L511.776 81.077C512.125 80.9657 512.428 80.8215 512.685 80.6446C512.942 80.466 513.14 80.2629 513.277 80.0352C513.415 79.8059 513.484 79.5602 513.484 79.2981V79.0573H514.066ZM513.835 79.5069H512.005V79.0573H513.835V79.5069ZM515.55 83.0796H512.54V82.6324H515.55V83.0796ZM513.096 82.8781H512.54V81.652H513.096V82.8781ZM519.551 83.1681H519.012V81.5488H519.551V83.1681ZM521.31 81.8388H517.265V81.3866H521.31V81.8388ZM519.492 79.615C519.492 79.8657 519.415 80.0966 519.263 80.308C519.112 80.5176 518.9 80.6937 518.627 80.8362C518.353 80.9788 518.039 81.0721 517.683 81.1164L517.484 80.6864C517.786 80.6503 518.052 80.5766 518.283 80.4652C518.514 80.3538 518.692 80.2244 518.818 80.077C518.946 79.9279 519.011 79.7739 519.012 79.615V79.502H519.492V79.615ZM519.558 79.615C519.558 79.7707 519.62 79.9238 519.745 80.0745C519.871 80.2236 520.049 80.3538 520.28 80.4652C520.513 80.5766 520.779 80.6503 521.079 80.6864L520.88 81.1164C520.524 81.0721 520.21 80.9779 519.936 80.8338C519.664 80.688 519.453 80.5094 519.302 80.2981C519.153 80.0868 519.078 79.8591 519.076 79.615V79.502H519.558V79.615ZM520.932 79.6789H517.639V79.2465H520.932V79.6789ZM519.551 79.3964H519.012V78.7255H519.551V79.3964ZM525.091 83.1558H524.546V78.7206H525.091V83.1558ZM525.75 80.91H524.951V80.4578H525.75V80.91ZM523.919 79.185C523.918 79.6372 523.85 80.0581 523.715 80.448C523.581 80.8362 523.364 81.1934 523.064 81.5193C522.765 81.8453 522.376 82.1263 521.9 82.3621L521.593 81.9395C521.992 81.738 522.325 81.507 522.59 81.2466C522.855 80.9845 523.054 80.6913 523.185 80.3669C523.316 80.0409 523.381 79.6789 523.381 79.2809V79.185H523.919ZM523.659 79.6347H521.823V79.185H523.659V79.6347Z" fill="white"/>
<path d="M142.324 40.8216H140.856V40.3105H142.324V40.8216ZM142.602 43.0232H141.98V38.7215H142.602V43.0232ZM142.76 44.4713H138.789V43.9569H142.76V44.4713ZM139.415 44.2288H138.789V42.6366H139.415V44.2288ZM139.69 39.9075C139.69 40.2679 139.623 40.6075 139.49 40.9264C139.357 41.2431 139.166 41.5216 138.917 41.7618C138.668 41.9999 138.375 42.1801 138.039 42.3024L137.714 41.7979C138.009 41.6974 138.267 41.5511 138.487 41.3589C138.71 41.1645 138.881 40.9417 138.999 40.6905C139.119 40.4393 139.179 40.1783 139.179 39.9075V39.4587H139.69V39.9075ZM139.808 39.9108C139.808 40.1576 139.866 40.3978 139.981 40.6315C140.097 40.8631 140.261 41.0706 140.473 41.254C140.685 41.4375 140.935 41.5773 141.223 41.6734L140.905 42.1681C140.578 42.0545 140.293 41.8841 140.05 41.657C139.81 41.4277 139.624 41.1634 139.493 40.8642C139.364 40.5649 139.301 40.2471 139.303 39.9108V39.4587H139.808V39.9108ZM141.072 39.6782H137.901V39.1704H141.072V39.6782ZM146.993 41.5227H145.921V41.0018H146.993V41.5227ZM145.155 40.5169C145.152 40.9209 145.1 41.3119 144.997 41.6898C144.895 42.0676 144.742 42.4072 144.539 42.7087C144.336 43.0101 144.091 43.246 143.805 43.4163L143.438 42.9445C143.702 42.7917 143.927 42.5863 144.113 42.3286C144.298 42.0709 144.438 41.7859 144.532 41.4735C144.626 41.1612 144.674 40.8423 144.676 40.5169V40.2548H145.155V40.5169ZM145.263 40.5169C145.265 40.8336 145.313 41.1404 145.407 41.4375C145.501 41.7324 145.641 42.0021 145.826 42.2467C146.014 42.4892 146.239 42.6803 146.501 42.8201L146.151 43.282C145.86 43.1269 145.612 42.9063 145.407 42.6202C145.204 42.3341 145.05 42.0108 144.945 41.6504C144.84 41.2879 144.789 40.91 144.791 40.5169V40.2548H145.263V40.5169ZM146.305 40.281H143.618V39.7732H146.305V40.281ZM145.266 40.1663H144.676V38.9279H145.266V40.1663ZM148.545 44.5859H147.956V38.715H148.545V44.5859ZM147.353 44.2943H146.766V38.846H147.353V44.2943Z" fill="#1A1BE0"/>
<path d="M152.516 49.7742H134.064V50.6129H152.516V49.7742Z" fill="#1A1BE0" mask="url(#path-123-inside-2_2316_35888)"/>
<path d="M164.599 44.5859H163.996V38.7149H164.599V44.5859ZM164.17 41.5849H163.072V41.064H164.17V41.5849ZM163.249 44.2911H162.666V38.8362H163.249V44.2911ZM160.468 42.7971H159.849V39.4128H160.468V42.7971ZM160.222 42.5514C160.567 42.5514 160.905 42.5383 161.234 42.5121C161.566 42.4859 161.909 42.4367 162.263 42.3646L162.338 42.9118C161.956 42.9795 161.594 43.0275 161.251 43.0559C160.908 43.0843 160.565 43.0985 160.222 43.0985H159.849V42.5514H160.222ZM171.62 43.0297H171.001V38.7182H171.62V43.0297ZM172.475 40.9886H171.43V40.471H172.475V40.9886ZM171.869 44.4712H167.901V43.9569H171.869V44.4712ZM168.517 44.1698H167.901V42.5809H168.517V44.1698ZM168.658 39.1179C168.951 39.1179 169.216 39.1802 169.454 39.3047C169.695 39.4292 169.882 39.6028 170.018 39.8256C170.153 40.0484 170.222 40.2995 170.224 40.5791C170.222 40.8609 170.153 41.1131 170.018 41.3359C169.882 41.5565 169.695 41.7302 169.454 41.8568C169.216 41.9813 168.951 42.0436 168.658 42.0436C168.366 42.0436 168.1 41.9813 167.862 41.8568C167.624 41.7302 167.436 41.5554 167.299 41.3326C167.163 41.1099 167.096 40.8587 167.096 40.5791C167.096 40.2995 167.163 40.0484 167.299 39.8256C167.436 39.6028 167.623 39.4292 167.859 39.3047C168.097 39.1802 168.363 39.1179 168.658 39.1179ZM168.658 39.6618C168.481 39.6618 168.32 39.7 168.173 39.7764C168.029 39.8529 167.915 39.9621 167.829 40.1041C167.746 40.2438 167.705 40.4022 167.705 40.5791C167.705 40.7582 167.746 40.9177 167.829 41.0574C167.915 41.195 168.029 41.3032 168.173 41.3818C168.32 41.4582 168.481 41.4964 168.658 41.4964C168.84 41.4964 169.002 41.4582 169.146 41.3818C169.293 41.3032 169.407 41.195 169.49 41.0574C169.573 40.9177 169.615 40.7582 169.615 40.5791C169.615 40.4 169.573 40.2406 169.49 40.1008C169.407 39.961 169.293 39.8529 169.146 39.7764C169.002 39.7 168.84 39.6618 168.658 39.6618ZM177.701 43.0461H177.078V38.7215H177.701V43.0461ZM177.186 41.0116H175.863V40.4939H177.186V41.0116ZM175.899 39.1638C175.897 39.6683 175.785 40.1314 175.565 40.5529C175.344 40.9744 175.028 41.3414 174.618 41.6537C174.207 41.966 173.72 42.2128 173.157 42.3941L172.891 41.8961C173.365 41.7411 173.778 41.5412 174.13 41.2966C174.483 41.0498 174.755 40.768 174.945 40.4513C175.138 40.1346 175.234 39.7939 175.234 39.4292V39.1638H175.899ZM175.637 39.6814H173.193V39.1638H175.637V39.6814ZM177.851 44.4712H173.917V43.9569H177.851V44.4712ZM174.549 44.2255H173.917V42.6038H174.549V44.2255Z" fill="#A6A6A6"/>
</g>
<defs>
<linearGradient id="paint0_linear_2316_35888" x1="99.1893" y1="27.5" x2="99.1893" y2="80.3589" gradientUnits="userSpaceOnUse">
<stop stop-color="#DFDFDF"/>
<stop offset="0.229167" stop-color="#BABAE1"/>
<stop offset="0.380208" stop-color="#A2A3E3"/>
<stop offset="0.567708" stop-color="#8485E5"/>
<stop offset="0.692708" stop-color="#7071E6"/>
<stop offset="1" stop-color="#3F40E9"/>
</linearGradient>
<linearGradient id="paint1_linear_2316_35888" x1="137.337" y1="14.1598" x2="150.087" y2="14.1598" gradientUnits="userSpaceOnUse">
<stop stop-color="#DFDFDF"/>
<stop offset="0.229167" stop-color="#BABAE1"/>
<stop offset="0.380208" stop-color="#A2A3E3"/>
<stop offset="0.567708" stop-color="#8485E5"/>
<stop offset="0.692708" stop-color="#7071E6"/>
<stop offset="1" stop-color="#3F40E9"/>
</linearGradient>
<clipPath id="clip0_2316_35888">
<rect width="9" height="9" fill="white" transform="translate(57.5 133)"/>
</clipPath>
<clipPath id="clip1_2316_35888">
<rect width="9" height="9" fill="white" transform="translate(96 133)"/>
</clipPath>
<clipPath id="clip2_2316_35888">
<rect width="9" height="9" fill="white" transform="translate(495 6)"/>
</clipPath>
<clipPath id="clip3_2316_35888">
<rect width="416" height="345.548" fill="white" transform="translate(124 20)"/>
</clipPath>
<clipPath id="clip4_2316_35888">
<rect x="183.129" y="178.516" width="19.2903" height="8.3871" rx="1.67742" fill="white"/>
</clipPath>
<clipPath id="clip5_2316_35888">
<rect x="209.968" y="178.516" width="19.2903" height="8.3871" rx="1.67742" fill="white"/>
</clipPath>
<clipPath id="clip6_2316_35888">
<rect x="183.129" y="251.484" width="19.2903" height="8.3871" rx="1.67742" fill="white"/>
</clipPath>
<clipPath id="clip7_2316_35888">
<rect x="209.968" y="251.484" width="19.2903" height="8.3871" rx="1.67742" fill="white"/>
</clipPath>
</defs>
</svg>
