<svg width="540" height="380" viewBox="0 0 540 380" fill="none" xmlns="http://www.w3.org/2000/svg">
<rect width="540" height="380" fill="white"/>
<rect width="124" height="380" fill="#F6F6FE"/>
<path d="M19.4593 23.8898C19.6381 23.7819 19.8619 23.7819 20.0407 23.8898L22.0849 25.1236C22.5109 25.3808 23.0364 24.9988 22.9234 24.5143L22.3809 22.1888C22.3334 21.9854 22.4025 21.7725 22.5604 21.6358L24.3693 20.0688C24.7451 19.7432 24.5447 19.1259 24.0493 19.0832L21.6678 18.8778C21.4604 18.8599 21.2797 18.7289 21.1984 18.5372L20.2678 16.3448C20.0738 15.8879 19.4262 15.8879 19.2322 16.3448L18.3016 18.5372C18.2203 18.7289 18.0396 18.8599 17.8322 18.8778L15.449 19.0833C14.9539 19.126 14.7533 19.7428 15.1287 20.0686L16.9349 21.6362C17.0922 21.7727 17.1612 21.9851 17.1141 22.188L16.5743 24.5163C16.462 25.0007 16.9872 25.3819 17.4129 25.1249L19.4593 23.8898Z" fill="#FEB149"/>
<path d="M91.25 56.75C91.25 62.927 89.2945 68.9454 85.6637 73.9427C82.033 78.94 76.9134 82.6596 71.0387 84.5684C65.1641 86.4772 58.8359 86.4772 52.9613 84.5684C47.0866 82.6596 41.967 78.94 38.3363 73.9427C34.7055 68.9454 32.75 62.927 32.75 56.75C32.75 50.573 34.7055 44.5546 38.3363 39.5573C41.967 34.56 47.0866 30.8404 52.9613 28.9316C58.8359 27.0228 65.1641 27.0228 71.0387 28.9316L70.4964 30.6007C64.9742 28.8064 59.0258 28.8064 53.5036 30.6007C47.9814 32.395 43.169 35.8914 39.7561 40.5888C36.3432 45.2863 34.505 50.9436 34.505 56.75C34.505 62.5564 36.3432 68.2137 39.7561 72.9112C43.169 77.6086 47.9814 81.105 53.5036 82.8993C59.0258 84.6936 64.9742 84.6936 70.4964 82.8993C76.0186 81.105 80.831 77.6086 84.2439 72.9112C87.6568 68.2137 89.495 62.5564 89.495 56.75H91.25Z" fill="url(#paint0_linear_2316_37738)"/>
<mask id="mask0_2316_37738" style="mask-type:alpha" maskUnits="userSpaceOnUse" x="37" y="32" width="50" height="50">
<circle cx="62" cy="56.75" r="24.75" fill="#D9D9D9"/>
</mask>
<g mask="url(#mask0_2316_37738)">
<rect x="13.2734" y="30.4531" width="97.4531" height="54.9141" fill="#E3E3FD"/>
</g>
<rect x="13" y="92.75" width="98" height="10" rx="3.53519" fill="#DCDCDC"/>
<rect x="13" y="109.5" width="98" height="10" rx="3.53519" fill="#DCDCDC"/>
<path d="M21.2502 137.593C21.2502 137.393 21.0078 137.293 20.8661 137.434L19.6093 138.691C19.5214 138.779 19.5214 138.921 19.6093 139.009L20.8661 140.266C21.0078 140.408 21.2502 140.307 21.2502 140.107V139.3H24.1752C24.2995 139.3 24.4002 139.199 24.4002 139.075V138.625C24.4002 138.501 24.2995 138.4 24.1752 138.4H21.2502V137.593Z" fill="#9495A8"/>
<path d="M27.3911 135.991C27.479 136.079 27.479 136.221 27.3911 136.309L26.1343 137.566C25.9926 137.708 25.7502 137.607 25.7502 137.407V136.6L22.8252 136.6C22.7009 136.6 22.6002 136.499 22.6002 136.375V135.925C22.6002 135.801 22.7009 135.7 22.8252 135.7L25.7502 135.7V134.893C25.7502 134.693 25.9926 134.593 26.1343 134.734L27.3911 135.991Z" fill="#9495A8"/>
<path d="M18.4463 147.944H13.9749V147.576H18.4463V147.944ZM18.0178 144.538H14.3704V144.181H18.0178V144.538ZM18.0068 146.598H14.3813V146.246H18.0068V146.598ZM15.5734 146.29H15.1449V144.505H15.5734V146.29ZM17.2433 146.29H16.8203V144.505H17.2433V146.29ZM23.3077 147.966H18.8363V147.603H23.3077V147.966ZM21.2698 147.762H20.8468V146.554H21.2698V147.762ZM22.7419 145.527H19.8251V146.516H19.3966V145.175H22.319V144.406H19.3856V144.049H22.7419V145.527ZM22.8573 146.68H19.3966V146.323H22.8573V146.68ZM26.6366 145.307H25.7302V144.95H26.6366V145.307ZM26.8948 146.631H26.4773V143.796H26.8948V146.631ZM25.071 144.736C25.0692 144.99 25.0244 145.237 24.9365 145.477C24.8504 145.715 24.7231 145.929 24.5547 146.117C24.3862 146.306 24.1848 146.451 23.9504 146.554L23.7197 146.213C23.9248 146.127 24.1042 146.006 24.2581 145.848C24.4119 145.689 24.5281 145.512 24.6069 145.318C24.6874 145.124 24.7268 144.93 24.725 144.736V144.324H25.071V144.736ZM25.1425 144.736C25.1425 144.915 25.1818 145.094 25.2606 145.271C25.3393 145.449 25.4519 145.611 25.5984 145.757C25.7449 145.904 25.9188 146.019 26.1202 146.104L25.895 146.433C25.6661 146.338 25.4693 146.201 25.3045 146.024C25.1415 145.846 25.017 145.646 24.931 145.422C24.8467 145.199 24.8055 144.97 24.8074 144.736V144.324H25.1425V144.736ZM26.0049 144.445H23.8131V144.088H26.0049V144.445ZM27.8451 146.675H27.4331V143.687H27.8451V146.675ZM27.8451 148.57H27.4221V147.241H24.5547V146.889H27.8451V148.57ZM32.5143 146.68H29.136V146.329H32.5143V146.68ZM33.0306 147.933H28.5592V147.576H33.0306V147.933ZM32.4594 144.472H29.5754V146.433H29.136V144.109H32.4594V144.472ZM32.355 145.543H29.4381V145.197H32.355V145.543ZM22.698 152.4H21.4456V152.043H22.698V152.4ZM22.8848 154.274H22.4508V150.692H22.8848V154.274ZM23.0221 155.466H19.7482V155.103H23.0221V155.466ZM20.1821 155.279H19.7482V153.949H20.1821V155.279ZM20.4568 151.697C20.4568 151.988 20.3991 152.264 20.2838 152.524C20.1684 152.782 20.0063 153.009 19.7976 153.205C19.5907 153.399 19.3527 153.547 19.0835 153.647L18.8583 153.296C19.0963 153.212 19.3096 153.088 19.4982 152.925C19.6868 152.762 19.8342 152.574 19.9404 152.362C20.0466 152.148 20.0997 151.926 20.0997 151.697V151.296H20.4568V151.697ZM20.5337 151.697C20.5337 151.906 20.585 152.109 20.6875 152.307C20.79 152.505 20.9319 152.681 21.1132 152.834C21.2945 152.988 21.5023 153.105 21.7367 153.186L21.5115 153.532C21.2496 153.437 21.018 153.297 20.8166 153.112C20.617 152.927 20.4614 152.713 20.3497 152.469C20.238 152.226 20.1821 151.968 20.1821 151.697V151.296H20.5337V151.697ZM21.6268 151.445H18.9956V151.088H21.6268V151.445ZM27.51 154.51H27.076V150.687H27.51V154.51ZM28.2406 152.763H27.3287V152.4H28.2406V152.763ZM27.6858 155.466H24.4064V155.103H27.6858V155.466ZM24.8403 155.218H24.4064V154.252H24.8403V155.218ZM25.4281 153.741H24.9996V153.076H25.4281V153.741ZM23.6758 153.592C24.2727 153.591 24.8257 153.579 25.3347 153.557C25.8456 153.533 26.3253 153.486 26.7739 153.417L26.8124 153.724C26.3748 153.807 25.9188 153.862 25.4446 153.892C24.9722 153.919 24.4448 153.937 23.8625 153.944C23.8314 153.944 23.8085 153.944 23.7939 153.944C23.7792 153.944 23.7563 153.944 23.7252 153.944L23.6758 153.592ZM26.6256 151.494H23.7966V151.17H26.6256V151.494ZM25.2084 151.708C25.4373 151.708 25.6378 151.738 25.8099 151.796C25.9838 151.855 26.1175 151.942 26.2109 152.057C26.3061 152.171 26.3546 152.305 26.3564 152.461C26.3546 152.613 26.3061 152.746 26.2109 152.859C26.1175 152.971 25.9838 153.057 25.8099 153.117C25.6378 153.178 25.4373 153.208 25.2084 153.208C24.9795 153.208 24.779 153.177 24.6069 153.115C24.4366 153.052 24.3038 152.966 24.2086 152.856C24.1134 152.745 24.0658 152.613 24.0658 152.461C24.0658 152.307 24.1134 152.172 24.2086 152.057C24.3038 151.942 24.4366 151.855 24.6069 151.796C24.779 151.738 24.9795 151.708 25.2084 151.708ZM25.2084 152.016C25.0601 152.016 24.9301 152.033 24.8184 152.068C24.7085 152.103 24.6243 152.154 24.5657 152.222C24.5071 152.29 24.4778 152.369 24.4778 152.461C24.4778 152.549 24.5071 152.626 24.5657 152.692C24.6243 152.757 24.7085 152.809 24.8184 152.845C24.9301 152.882 25.0601 152.9 25.2084 152.9C25.3567 152.9 25.4858 152.882 25.5956 152.845C25.7073 152.809 25.7934 152.757 25.8538 152.692C25.9142 152.626 25.9445 152.549 25.9445 152.461C25.9445 152.369 25.9152 152.29 25.8566 152.222C25.798 152.154 25.7119 152.103 25.5984 152.068C25.4867 152.033 25.3567 152.016 25.2084 152.016ZM25.4281 151.324H24.9996V150.676H25.4281V151.324Z" fill="#9495A8"/>
<g clip-path="url(#clip0_2316_37738)">
<path d="M62 135.063C62.3481 135.063 62.6819 135.201 62.9281 135.447C63.1742 135.693 63.3125 136.027 63.3125 136.375C63.3125 136.723 63.1742 137.057 62.9281 137.303C62.6819 137.549 62.3481 137.688 62 137.688C61.6519 137.688 61.3181 137.549 61.0719 137.303C60.8258 137.057 60.6875 136.723 60.6875 136.375C60.6875 136.027 60.8258 135.693 61.0719 135.447C61.3181 135.201 61.6519 135.063 62 135.063ZM59.375 136C59.585 136 59.78 136.056 59.9488 136.158C59.8925 136.694 60.05 137.226 60.3725 137.643C60.185 138.003 59.81 138.25 59.375 138.25C59.0766 138.25 58.7905 138.131 58.5795 137.921C58.3685 137.71 58.25 137.423 58.25 137.125C58.25 136.827 58.3685 136.54 58.5795 136.33C58.7905 136.119 59.0766 136 59.375 136ZM64.625 136C64.9234 136 65.2095 136.119 65.4205 136.33C65.6315 136.54 65.75 136.827 65.75 137.125C65.75 137.423 65.6315 137.71 65.4205 137.921C65.2095 138.131 64.9234 138.25 64.625 138.25C64.19 138.25 63.815 138.003 63.6275 137.643C63.95 137.226 64.1075 136.694 64.0512 136.158C64.22 136.056 64.415 136 64.625 136ZM59.5625 139.844C59.5625 139.068 60.6537 138.438 62 138.438C63.3463 138.438 64.4375 139.068 64.4375 139.844V140.5H59.5625V139.844ZM57.5 140.5V139.938C57.5 139.416 58.2087 138.978 59.1687 138.85C58.9475 139.105 58.8125 139.458 58.8125 139.844V140.5H57.5ZM66.5 140.5H65.1875V139.844C65.1875 139.458 65.0525 139.105 64.8312 138.85C65.7912 138.978 66.5 139.416 66.5 139.938V140.5Z" fill="#9495A8"/>
</g>
<path d="M53.362 144.703C53.362 144.977 53.3043 145.234 53.189 145.472C53.0736 145.71 52.9116 145.916 52.7028 146.09C52.4941 146.264 52.2542 146.395 51.9832 146.483L51.769 146.142C52.0107 146.069 52.2258 145.96 52.4144 145.815C52.603 145.67 52.7495 145.503 52.8539 145.312C52.9583 145.12 53.0104 144.917 53.0104 144.703V144.494H53.362V144.703ZM53.4334 144.703C53.4334 144.901 53.4847 145.088 53.5872 145.266C53.6898 145.443 53.8317 145.601 54.0129 145.738C54.196 145.874 54.4075 145.977 54.6474 146.049L54.4442 146.389C54.1732 146.305 53.9351 146.18 53.73 146.013C53.525 145.846 53.3657 145.651 53.2521 145.428C53.1386 145.203 53.0818 144.961 53.0818 144.703V144.494H53.4334V144.703ZM54.5375 144.615H51.9063V144.269H54.5375V144.615ZM53.4444 144.406H53.0104V143.665H53.4444V144.406ZM55.5867 146.581H55.1583V143.687H55.5867V146.581ZM56.3228 145.291H55.4659V144.928H56.3228V145.291ZM55.5867 148.504H52.5051V146.807H55.5867V148.504ZM52.928 148.152H55.1583V147.147H52.928V148.152ZM60.3548 145.142H58.8497V144.78H60.3548V145.142ZM60.3548 146.686H58.8497V146.329H60.3548V146.686ZM57.9433 144.066C58.1795 144.066 58.3901 144.135 58.575 144.274C58.7618 144.413 58.9064 144.612 59.009 144.87C59.1115 145.128 59.1628 145.428 59.1628 145.768C59.1628 146.111 59.1115 146.41 59.009 146.667C58.9064 146.921 58.7618 147.118 58.575 147.257C58.3901 147.396 58.1795 147.466 57.9433 147.466C57.7034 147.466 57.4901 147.396 57.3033 147.257C57.1184 147.118 56.9747 146.921 56.8721 146.667C56.7696 146.41 56.7183 146.111 56.7183 145.768C56.7183 145.428 56.7696 145.128 56.8721 144.87C56.9747 144.612 57.1184 144.413 57.3033 144.274C57.4901 144.135 57.7034 144.066 57.9433 144.066ZM57.9433 144.45C57.784 144.45 57.643 144.505 57.5203 144.615C57.3995 144.725 57.3043 144.879 57.2347 145.079C57.1651 145.277 57.1303 145.507 57.1303 145.768C57.1303 146.03 57.1651 146.261 57.2347 146.461C57.3043 146.658 57.3995 146.811 57.5203 146.919C57.643 147.027 57.784 147.081 57.9433 147.081C58.1008 147.081 58.2418 147.027 58.3663 146.919C58.4908 146.811 58.5869 146.657 58.6547 146.458C58.7224 146.258 58.7563 146.028 58.7563 145.768C58.7563 145.508 58.7224 145.279 58.6547 145.079C58.5869 144.879 58.4908 144.725 58.3663 144.615C58.2418 144.505 58.1008 144.45 57.9433 144.45ZM60.6789 148.581H60.2504V143.687H60.6789V148.581ZM67.051 146.521H66.639V143.692H67.051V146.521ZM66.1171 146.461H65.7051V143.791H66.1171V146.461ZM65.8425 145.241H64.9031V144.884H65.8425V145.241ZM65.0185 146.153H63.1288V144.044H65.0185V146.153ZM63.5353 145.823H64.6175V144.384H63.5353V145.823ZM67.051 148.504H63.8265V146.763H67.051V148.504ZM64.2495 148.152H66.628V147.103H64.2495V148.152ZM71.8135 148.581H71.3851V143.687H71.8135V148.581ZM71.5114 145.862H70.0777V145.505H71.5114V145.862ZM68.3968 145.345H69.7921V144.071H70.215V147.345H67.9628V144.071H68.3968V145.345ZM69.7921 146.988V145.692H68.3968V146.988H69.7921ZM59.7917 151.428H57.611V151.066H59.7917V151.428ZM58.7865 153.373H58.358V152.148H58.7865V153.373ZM60.0444 151.357C60.0426 151.598 60.0344 151.827 60.0197 152.043C60.0051 152.258 59.9712 152.499 59.9181 152.768L59.4841 152.735C59.5391 152.466 59.5748 152.231 59.5912 152.03C59.6077 151.828 59.6178 151.611 59.6215 151.379V151.324V151.066H60.0444V151.324V151.357ZM61.165 154.361H60.7256V150.687H61.165V154.361ZM61.8792 152.648H60.9673V152.28H61.8792V152.648ZM61.3243 155.466H58.0614V155.103H61.3243V155.466ZM58.4954 155.218H58.0614V154.032H58.4954V155.218ZM57.3088 153.224C57.8911 153.223 58.4395 153.212 58.954 153.191C59.4686 153.169 59.9492 153.127 60.396 153.065L60.4235 153.384C59.9675 153.462 59.486 153.515 58.9788 153.54C58.4716 153.566 57.9296 153.58 57.3528 153.581L57.3088 153.224ZM66.2297 155.581H65.8013V150.687H66.2297V155.581ZM62.8899 154.032C63.333 154.034 63.745 154.022 64.1259 153.996C64.5085 153.971 64.9095 153.924 65.3289 153.856L65.3728 154.219C64.948 154.285 64.5415 154.33 64.1533 154.356C63.7651 154.382 63.344 154.394 62.8899 154.394H62.4834V154.032H62.8899ZM64.7466 152.878H62.9229V154.169H62.4834V152.527H64.3126V151.5H62.4724V151.142H64.7466V152.878Z" fill="#9495A8"/>
<g clip-path="url(#clip1_2316_37738)">
<path d="M100.5 138.812C100.152 138.812 99.8181 138.674 99.572 138.428C99.3258 138.182 99.1876 137.848 99.1876 137.5C99.1876 137.152 99.3258 136.818 99.572 136.572C99.8181 136.326 100.152 136.187 100.5 136.187C100.848 136.187 101.182 136.326 101.428 136.572C101.674 136.818 101.813 137.152 101.813 137.5C101.813 137.848 101.674 138.182 101.428 138.428C101.182 138.674 100.848 138.812 100.5 138.812ZM103.286 137.864C103.301 137.744 103.313 137.624 103.313 137.5C103.313 137.376 103.301 137.252 103.286 137.125L104.078 136.514C104.149 136.457 104.168 136.356 104.123 136.274L103.373 134.976C103.328 134.894 103.226 134.86 103.144 134.894L102.21 135.269C102.015 135.122 101.813 134.995 101.576 134.901L101.438 133.907C101.423 133.817 101.344 133.75 101.25 133.75H99.7501C99.6563 133.75 99.5776 133.817 99.5626 133.907L99.4238 134.901C99.1876 134.995 98.9851 135.122 98.7901 135.269L97.8563 134.894C97.7738 134.86 97.6726 134.894 97.6276 134.976L96.8776 136.274C96.8288 136.356 96.8513 136.457 96.9226 136.514L97.7138 137.125C97.6988 137.252 97.6876 137.376 97.6876 137.5C97.6876 137.624 97.6988 137.744 97.7138 137.864L96.9226 138.486C96.8513 138.542 96.8288 138.644 96.8776 138.726L97.6276 140.024C97.6726 140.106 97.7738 140.136 97.8563 140.106L98.7901 139.727C98.9851 139.877 99.1876 140.005 99.4238 140.099L99.5626 141.092C99.5776 141.182 99.6563 141.25 99.7501 141.25H101.25C101.344 141.25 101.423 141.182 101.438 141.092L101.576 140.099C101.813 140.001 102.015 139.877 102.21 139.727L103.144 140.106C103.226 140.136 103.328 140.106 103.373 140.024L104.123 138.726C104.168 138.644 104.149 138.542 104.078 138.486L103.286 137.864Z" fill="#9495A8"/>
</g>
<path d="M95.4463 147.944H90.9749V147.576H95.4463V147.944ZM95.0178 144.538H91.3704V144.181H95.0178V144.538ZM95.0068 146.598H91.3813V146.246H95.0068V146.598ZM92.5734 146.29H92.1449V144.505H92.5734V146.29ZM94.2433 146.29H93.8203V144.505H94.2433V146.29ZM100.308 147.966H95.8363V147.603H100.308V147.966ZM98.2698 147.762H97.8468V146.554H98.2698V147.762ZM99.7419 145.527H96.8251V146.516H96.3966V145.175H99.319V144.406H96.3856V144.049H99.7419V145.527ZM99.8573 146.68H96.3966V146.323H99.8573V146.68ZM103.637 145.307H102.73V144.95H103.637V145.307ZM103.895 146.631H103.477V143.796H103.895V146.631ZM102.071 144.736C102.069 144.99 102.024 145.237 101.936 145.477C101.85 145.715 101.723 145.929 101.555 146.117C101.386 146.306 101.185 146.451 100.95 146.554L100.72 146.213C100.925 146.127 101.104 146.006 101.258 145.848C101.412 145.689 101.528 145.512 101.607 145.318C101.687 145.124 101.727 144.93 101.725 144.736V144.324H102.071V144.736ZM102.142 144.736C102.142 144.915 102.182 145.094 102.261 145.271C102.339 145.449 102.452 145.611 102.598 145.757C102.745 145.904 102.919 146.019 103.12 146.104L102.895 146.433C102.666 146.338 102.469 146.201 102.305 146.024C102.142 145.846 102.017 145.646 101.931 145.422C101.847 145.199 101.806 144.97 101.807 144.736V144.324H102.142V144.736ZM103.005 144.445H100.813V144.088H103.005V144.445ZM104.845 146.675H104.433V143.687H104.845V146.675ZM104.845 148.57H104.422V147.241H101.555V146.889H104.845V148.57ZM109.514 146.68H106.136V146.329H109.514V146.68ZM110.031 147.933H105.559V147.576H110.031V147.933ZM109.459 144.472H106.575V146.433H106.136V144.109H109.459V144.472ZM109.355 145.543H106.438V145.197H109.355V145.543ZM99.6321 151.944H98.3632V151.587H99.6321V151.944ZM99.8848 153.213H99.4508V150.687H99.8848V153.213ZM99.8848 154.625H97.1547V155.372H96.7317V154.296H99.4563V153.807H96.7207V153.461H99.8848V154.625ZM100.066 155.504H96.7317V155.158H100.066V155.504ZM97.4238 151.307C97.4238 151.604 97.3671 151.879 97.2535 152.134C97.14 152.388 96.9807 152.61 96.7756 152.799C96.5724 152.985 96.3362 153.127 96.067 153.224L95.8308 152.878C96.0743 152.798 96.2895 152.679 96.4763 152.521C96.6649 152.364 96.8113 152.181 96.9157 151.972C97.0219 151.763 97.0759 151.542 97.0778 151.307V150.846H97.4238V151.307ZM97.5007 151.307C97.4989 151.518 97.5493 151.72 97.6518 151.914C97.7562 152.107 97.8999 152.278 98.083 152.428C98.2679 152.578 98.4785 152.692 98.7147 152.768L98.484 153.104C98.2222 153.01 97.9896 152.876 97.7864 152.7C97.585 152.522 97.4275 152.313 97.314 152.074C97.2004 151.834 97.1437 151.578 97.1437 151.307V150.846H97.5007V151.307ZM104.444 152.318H103.329V151.961H104.444V152.318ZM104.746 153.598H104.312V150.687H104.746V153.598ZM103.126 153.752C103.463 153.752 103.754 153.787 103.999 153.859C104.245 153.93 104.433 154.034 104.565 154.169C104.697 154.305 104.763 154.468 104.763 154.658C104.763 154.849 104.697 155.011 104.565 155.147C104.433 155.282 104.245 155.386 103.999 155.457C103.754 155.531 103.463 155.568 103.126 155.57C102.787 155.568 102.495 155.531 102.25 155.457C102.006 155.386 101.818 155.282 101.687 155.147C101.555 155.011 101.489 154.849 101.489 154.658C101.489 154.468 101.555 154.305 101.687 154.169C101.818 154.034 102.007 153.93 102.252 153.859C102.498 153.787 102.789 153.752 103.126 153.752ZM103.126 154.087C102.877 154.087 102.662 154.11 102.48 154.155C102.299 154.201 102.16 154.267 102.063 154.353C101.966 154.439 101.917 154.541 101.917 154.658C101.917 154.775 101.966 154.876 102.063 154.96C102.16 155.044 102.299 155.109 102.48 155.155C102.662 155.201 102.877 155.224 103.126 155.224C103.373 155.224 103.587 155.201 103.768 155.155C103.952 155.109 104.092 155.044 104.189 154.96C104.286 154.876 104.334 154.775 104.334 154.658C104.334 154.541 104.286 154.439 104.189 154.353C104.092 154.267 103.952 154.201 103.768 154.155C103.587 154.11 103.373 154.087 103.126 154.087ZM102.318 151.587C102.318 151.88 102.261 152.158 102.145 152.42C102.03 152.681 101.868 152.91 101.659 153.106C101.452 153.302 101.214 153.451 100.945 153.554L100.72 153.208C100.96 153.122 101.173 152.995 101.36 152.829C101.548 152.66 101.696 152.469 101.802 152.255C101.908 152.039 101.961 151.816 101.961 151.587V151.181H102.318V151.587ZM102.395 151.582C102.395 151.792 102.445 151.997 102.546 152.194C102.647 152.39 102.789 152.565 102.972 152.719C103.155 152.873 103.364 152.99 103.598 153.071L103.373 153.417C103.111 153.321 102.879 153.181 102.678 152.996C102.478 152.811 102.323 152.597 102.211 152.354C102.099 152.108 102.044 151.851 102.044 151.582V151.181H102.395V151.582ZM103.488 151.406H100.857V151.044H103.488V151.406Z" fill="#9495A8"/>
<path d="M20.9937 198.75C21.118 198.75 21.2188 198.649 21.2188 198.525V196.444C21.2188 196.319 21.3195 196.219 21.4437 196.219H22.6813C22.8055 196.219 22.9062 196.319 22.9062 196.444V198.525C22.9062 198.649 23.007 198.75 23.1312 198.75H24.7906C24.9149 198.75 25.0156 198.649 25.0156 198.525V195.6C25.0156 195.476 25.1164 195.375 25.2406 195.375H25.6949C25.9011 195.375 25.9987 195.121 25.8454 194.983L22.213 191.714C22.1274 191.637 21.9976 191.637 21.912 191.714L18.2796 194.983C18.1263 195.121 18.2239 195.375 18.4301 195.375H18.8844C19.0086 195.375 19.1094 195.476 19.1094 195.6V198.525C19.1094 198.649 19.2101 198.75 19.3344 198.75H20.9937Z" fill="#9495A8"/>
<path d="M38.8342 196.88H36.5436V193.192H38.8342V196.88ZM37.1302 196.382H38.2476V193.689H37.1302V196.382ZM41.4248 198.432H40.8217V192.526H41.4248V198.432ZM39.8889 195.242H38.5277V194.731H39.8889V195.242ZM40.2218 198.142H39.6285V192.638H40.2218V198.142ZM47.074 196.827H46.451V192.532H47.074V196.827ZM47.252 198.317H43.2145V197.799H47.252V198.317ZM43.8407 197.987H43.2145V196.392H43.8407V197.987ZM43.8704 192.931C44.1648 192.931 44.4318 192.994 44.6713 193.119C44.9108 193.244 45.0986 193.418 45.2349 193.64C45.3733 193.862 45.4425 194.113 45.4425 194.395C45.4425 194.678 45.3733 194.932 45.2349 195.156C45.0986 195.378 44.9108 195.551 44.6713 195.677C44.4318 195.802 44.1648 195.865 43.8704 195.865C43.5759 195.865 43.309 195.802 43.0695 195.677C42.8322 195.551 42.6443 195.378 42.5059 195.156C42.3674 194.932 42.2982 194.678 42.2982 194.395C42.2982 194.113 42.3674 193.862 42.5059 193.64C42.6443 193.418 42.8322 193.244 43.0695 193.119C43.309 192.994 43.5759 192.931 43.8704 192.931ZM43.8704 193.478C43.688 193.478 43.5232 193.517 43.376 193.594C43.231 193.671 43.1167 193.778 43.0332 193.917C42.9497 194.055 42.9091 194.214 42.9113 194.395C42.9091 194.577 42.9497 194.738 43.0332 194.879C43.1167 195.017 43.231 195.125 43.376 195.202C43.5232 195.279 43.688 195.317 43.8704 195.317C44.0505 195.317 44.2131 195.279 44.3582 195.202C44.5032 195.125 44.6174 195.017 44.7009 194.879C44.7844 194.738 44.8262 194.577 44.8262 194.395C44.8262 194.214 44.7844 194.055 44.7009 193.917C44.6174 193.778 44.5032 193.671 44.3582 193.594C44.2131 193.517 44.0505 193.478 43.8704 193.478Z" fill="#9495A8"/>
<rect x="8" y="206.625" width="108" height="22.5" rx="3" fill="#3F40E9"/>
<path d="M25.8594 214.528C25.8594 214.28 25.6579 214.078 25.4094 214.078H22.9344C22.6858 214.078 22.4844 214.28 22.4844 214.528V216.159C22.4844 216.408 22.6858 216.609 22.9344 216.609H25.4094C25.6579 216.609 25.8594 216.408 25.8594 216.159V214.528ZM21.6406 214.528C21.6406 214.28 21.4392 214.078 21.1906 214.078H18.7156C18.4671 214.078 18.2656 214.28 18.2656 214.528V217.847C18.2656 218.095 18.4671 218.297 18.7156 218.297H21.1906C21.4392 218.297 21.6406 218.095 21.6406 217.847V214.528ZM25.8594 217.903C25.8594 217.655 25.6579 217.453 25.4094 217.453H22.9344C22.6858 217.453 22.4844 217.655 22.4844 217.903V221.222C22.4844 221.47 22.6858 221.672 22.9344 221.672H25.4094C25.6579 221.672 25.8594 221.47 25.8594 221.222V217.903ZM21.6406 219.591C21.6406 219.342 21.4392 219.141 21.1906 219.141H18.7156C18.4671 219.141 18.2656 219.342 18.2656 219.591V221.222C18.2656 221.47 18.4671 221.672 18.7156 221.672H21.1906C21.4392 221.672 21.6406 221.47 21.6406 221.222V219.591Z" fill="white"/>
<path d="M39.3748 215.471C39.3726 216 39.2781 216.477 39.0913 216.901C38.9045 217.323 38.6123 217.695 38.2146 218.018C37.8191 218.341 37.3104 218.607 36.6886 218.816L36.4249 218.318C36.9633 218.143 37.4027 217.926 37.7433 217.669C38.0839 217.412 38.3333 217.121 38.4915 216.796C38.6497 216.468 38.7288 216.104 38.7288 215.701V215.471H39.3748ZM39.1012 215.982H36.7084V215.471H39.1012V215.982ZM36.5073 217.234L36.4084 216.73L38.7452 216.628V217.059L36.5073 217.234ZM40.9832 219.422H40.3503V215.026H40.9832V219.422ZM41.8434 217.339H40.792V216.825H41.8434V217.339ZM41.2303 220.817H37.2357V220.299H41.2303V220.817ZM37.8619 220.632H37.2357V219.001H37.8619V220.632ZM46.8169 219.376H46.194V215.032H46.8169V219.376ZM47.6771 217.3H46.6257V216.779H47.6771V217.3ZM47.0674 220.817H43.076V220.299H47.0674V220.817ZM43.6957 220.415H43.076V218.945H43.6957V220.415ZM43.02 216.407H44.5658V215.458H45.192V218.397H42.4037V215.458H43.02V216.407ZM44.5658 217.896V216.891H43.02V217.896H44.5658ZM53.4153 220.2H48.01V219.686H53.4153V220.2ZM51.006 219.831H50.3929V218.308H51.006V219.831ZM49.2559 216.45H52.1562V215.431H52.7726V218.473H48.6263V215.431H49.2559V216.45ZM52.1562 217.966V216.954H49.2559V217.966H52.1562ZM58.6294 218.345H54.5161V217.834H58.6294V218.345ZM59.249 220.157H53.8438V219.637H59.249V220.157ZM58.5734 216.071H55.1357V218.055H54.5161V215.56H58.5734V216.071Z" fill="white"/>
<path d="M21.6406 236.156C21.8644 236.156 22.079 236.245 22.2372 236.403C22.3955 236.562 22.4844 236.776 22.4844 237V243.75C22.4844 243.974 22.3955 244.188 22.2372 244.347C22.079 244.505 21.8644 244.594 21.6406 244.594H17.8438V236.156H21.6406ZM18.6875 239.531V241.219H21.6406V239.531H18.6875ZM18.6875 242.062V243.75H21.6406V242.062H18.6875ZM18.6875 237V238.688H21.6406V237H18.6875ZM23.3281 239.953H24.5938V238.688H25.4375V239.953H26.7031V240.797H25.4375V242.062H24.5938V240.797H23.3281V239.953Z" fill="#9495A8"/>
<path d="M40.9832 241.866H40.3602V237.529H40.9832V241.866ZM41.8434 239.813H40.792V239.292H41.8434V239.813ZM41.2336 243.317H37.2423V242.799H41.2336V243.317ZM37.8619 243.013H37.2423V241.415H37.8619V243.013ZM38.0037 237.931C38.2981 237.931 38.5651 237.994 38.8046 238.119C39.0463 238.244 39.2352 238.419 39.3715 238.643C39.5077 238.867 39.5769 239.12 39.5791 239.401C39.5769 239.685 39.5077 239.938 39.3715 240.162C39.2352 240.384 39.0463 240.559 38.8046 240.687C38.5651 240.812 38.2981 240.874 38.0037 240.874C37.7092 240.874 37.4423 240.812 37.2028 240.687C36.9633 240.559 36.7743 240.383 36.6359 240.159C36.4996 239.935 36.4315 239.682 36.4315 239.401C36.4315 239.12 36.4996 238.867 36.6359 238.643C36.7743 238.419 36.9622 238.244 37.1995 238.119C37.439 237.994 37.707 237.931 38.0037 237.931ZM38.0037 238.478C37.8257 238.478 37.6631 238.517 37.5159 238.594C37.3708 238.671 37.2555 238.78 37.1698 238.923C37.0863 239.064 37.0446 239.223 37.0446 239.401C37.0446 239.581 37.0863 239.742 37.1698 239.882C37.2555 240.021 37.3708 240.13 37.5159 240.209C37.6631 240.286 37.8257 240.324 38.0037 240.324C38.186 240.324 38.3497 240.286 38.4948 240.209C38.642 240.13 38.7573 240.021 38.8408 239.882C38.9243 239.742 38.9661 239.581 38.9661 239.401C38.9661 239.221 38.9243 239.061 38.8408 238.92C38.7573 238.779 38.642 238.671 38.4948 238.594C38.3497 238.517 38.186 238.478 38.0037 238.478ZM47.1003 241.883H46.4741V237.532H47.1003V241.883ZM46.5829 239.836H45.2513V239.315H46.5829V239.836ZM45.2876 237.977C45.2854 238.485 45.1733 238.951 44.9514 239.375C44.7295 239.799 44.412 240.168 43.9989 240.482C43.5858 240.796 43.0958 241.045 42.5289 241.227L42.262 240.726C42.7388 240.57 43.1541 240.369 43.5078 240.123C43.8638 239.875 44.1373 239.591 44.3285 239.273C44.5219 238.954 44.6185 238.611 44.6185 238.244V237.977H45.2876ZM45.0239 238.498H42.5652V237.977H45.0239V238.498ZM47.252 243.317H43.2936V242.799H47.252V243.317ZM43.9297 243.069H43.2936V241.438H43.9297V243.069Z" fill="#9495A8"/>
<mask id="path-22-inside-1_2316_37738" fill="white">
<path d="M124 0H540V21H124V0Z"/>
</mask>
<path d="M124 0H540V21H124V0Z" fill="white"/>
<path d="M140.485 8.29935C140.662 8.00222 141.103 8.00222 141.28 8.29935L142.793 10.8379L143.856 9.04807C144.032 8.74994 144.475 8.74994 144.652 9.04807L146.729 12.5486H149.152C149.337 12.5486 149.504 12.6531 149.579 12.8154C149.79 13.2701 149.851 13.4087 150.046 13.8786C150.107 14.0264 149.994 14.1875 149.829 14.1875H145.712L144.652 12.4003C144.475 12.1021 144.032 12.1021 143.855 12.4003L142.795 14.1875H137.773C137.419 14.1875 137.198 13.8144 137.375 13.5164L140.485 8.29935Z" fill="url(#paint1_linear_2316_37738)"/>
<path d="M145.321 6.92256C145.321 7.4666 144.863 7.90763 144.298 7.90763C143.733 7.90763 143.275 7.4666 143.275 6.92256C143.275 6.37852 143.733 5.93748 144.298 5.93748C144.863 5.93748 145.321 6.37852 145.321 6.92256Z" fill="#8788E4"/>
<path d="M157.683 9.05733C157.722 9.13249 157.745 9.20013 157.75 9.26027C157.759 9.3204 157.764 9.40809 157.764 9.52334V13.6949C157.764 14.0406 157.671 14.2436 157.484 14.3037C157.391 14.3338 157.273 14.3488 157.13 14.3488C156.987 14.3488 156.874 14.3363 156.791 14.3112C156.707 14.2862 156.643 14.2561 156.599 14.221C156.555 14.1859 156.52 14.1358 156.496 14.0707C156.471 13.9855 156.459 13.8552 156.459 13.6798V11.1619C156.336 11.3172 156.156 11.5653 155.92 11.906C155.684 12.2417 155.534 12.4522 155.47 12.5374C155.407 12.6226 155.362 12.6827 155.338 12.7178C155.313 12.7478 155.252 12.7929 155.153 12.8531C155.06 12.9082 154.957 12.9357 154.844 12.9357C154.735 12.9357 154.635 12.9107 154.541 12.8606C154.453 12.8054 154.389 12.7528 154.349 12.7027L154.29 12.62C154.192 12.4948 153.998 12.2292 153.708 11.8233C153.418 11.4124 153.26 11.192 153.236 11.1619V13.6949C153.236 13.8101 153.231 13.8978 153.221 13.9579C153.216 14.0131 153.194 14.0757 153.154 14.1459C153.081 14.2811 152.889 14.3488 152.579 14.3488C152.279 14.3488 152.092 14.2811 152.019 14.1459C151.979 14.0757 151.955 14.0106 151.945 13.9504C151.94 13.8903 151.938 13.8001 151.938 13.6798V9.5083C151.938 9.39305 151.94 9.30787 151.945 9.25275C151.955 9.19262 151.979 9.12497 152.019 9.04981C152.092 8.91953 152.284 8.85439 152.594 8.85439C152.727 8.85439 152.84 8.87192 152.933 8.907C153.032 8.93706 153.095 8.96964 153.125 9.00471L153.169 9.04981L154.844 11.2897C155.679 10.1622 156.238 9.41811 156.518 9.05733C156.601 8.92203 156.798 8.85439 157.108 8.85439C157.423 8.85439 157.614 8.92203 157.683 9.05733Z" fill="#3F40E9"/>
<path d="M158.245 12.3795C158.245 11.7782 158.451 11.2821 158.864 10.8913C159.277 10.5005 159.749 10.305 160.28 10.305C160.811 10.305 161.281 10.5005 161.689 10.8913C162.097 11.2771 162.301 11.7707 162.301 12.372C162.301 12.7879 162.195 13.1587 161.984 13.4844C161.773 13.8051 161.514 14.0431 161.21 14.1985C160.91 14.3488 160.597 14.424 160.273 14.424C159.948 14.424 159.634 14.3438 159.329 14.1834C159.024 14.0181 158.766 13.7776 158.554 13.4619C158.348 13.1412 158.245 12.7804 158.245 12.3795ZM159.786 12.9207C159.943 13.041 160.103 13.1011 160.266 13.1011C160.428 13.1011 160.59 13.0385 160.752 12.9132C160.915 12.7879 160.996 12.6025 160.996 12.357C160.996 12.1114 160.919 11.9285 160.767 11.8083C160.615 11.688 160.45 11.6279 160.273 11.6279C160.096 11.6279 159.931 11.6905 159.779 11.8158C159.626 11.9411 159.55 12.1265 159.55 12.372C159.55 12.6125 159.629 12.7954 159.786 12.9207Z" fill="#3F40E9"/>
<path d="M162.86 11.0566C162.86 10.9414 162.863 10.8562 162.868 10.8011C162.878 10.7409 162.9 10.6733 162.934 10.5981C163.003 10.4678 163.195 10.4027 163.509 10.4027C163.745 10.4027 163.913 10.4453 164.011 10.5305C164.095 10.6006 164.139 10.7084 164.144 10.8537C164.149 10.9038 164.151 10.9764 164.151 11.0717V13.7024C164.151 13.8176 164.146 13.9053 164.136 13.9654C164.131 14.0205 164.109 14.0857 164.07 14.1608C164.006 14.2911 163.817 14.3563 163.502 14.3563C163.192 14.3563 163.003 14.2886 162.934 14.1533C162.9 14.0782 162.878 14.013 162.868 13.9579C162.863 13.9028 162.86 13.8151 162.86 13.6948V11.0566Z" fill="#3F40E9"/>
<path d="M166.901 10.3952C167.393 10.3952 167.801 10.5881 168.126 10.9739C168.455 11.3548 168.62 11.8208 168.62 12.372V13.6948C168.62 13.8101 168.615 13.8978 168.605 13.9579C168.6 14.013 168.581 14.0757 168.546 14.1458C168.477 14.2811 168.286 14.3488 167.971 14.3488C167.622 14.3488 167.42 14.2561 167.366 14.0707C167.337 13.9855 167.322 13.8577 167.322 13.6873V12.3645C167.322 12.159 167.263 11.9987 167.145 11.8834C167.032 11.7682 166.877 11.7105 166.68 11.7105C166.488 11.7105 166.331 11.7707 166.208 11.8909C166.09 12.0112 166.031 12.169 166.031 12.3645V13.6948C166.031 13.8101 166.026 13.8978 166.016 13.9579C166.011 14.013 165.989 14.0757 165.95 14.1458C165.886 14.2811 165.697 14.3488 165.382 14.3488C165.072 14.3488 164.883 14.2811 164.814 14.1458C164.78 14.0707 164.757 14.0055 164.748 13.9504C164.743 13.8903 164.74 13.8026 164.74 13.6873V11.0266C164.74 10.9163 164.743 10.8336 164.748 10.7785C164.757 10.7184 164.782 10.6532 164.821 10.5831C164.89 10.4578 165.08 10.3952 165.389 10.3952C165.689 10.3952 165.874 10.4528 165.943 10.5681C165.992 10.6532 166.016 10.756 166.016 10.8762C166.036 10.8412 166.08 10.791 166.149 10.7259C166.218 10.6608 166.284 10.6081 166.348 10.5681C166.515 10.4528 166.7 10.3952 166.901 10.3952Z" fill="#3F40E9"/>
<path d="M171.677 13.8602C171.49 14.1107 171.192 14.236 170.784 14.236C170.376 14.236 169.993 14.0456 169.634 13.6648C169.28 13.2789 169.103 12.8305 169.103 12.3194C169.103 11.8082 169.282 11.3598 169.641 10.9739C170 10.5881 170.393 10.3952 170.821 10.3952C170.988 10.3952 171.141 10.4278 171.278 10.4929C171.416 10.553 171.51 10.6107 171.559 10.6658C171.613 10.7159 171.655 10.7635 171.684 10.8086C171.699 10.6683 171.748 10.5631 171.832 10.4929C171.92 10.4177 172.06 10.3802 172.252 10.3802C172.444 10.3802 172.584 10.3952 172.672 10.4253C172.761 10.4553 172.822 10.5079 172.857 10.5831C172.896 10.6532 172.918 10.7159 172.923 10.771C172.933 10.8261 172.938 10.9113 172.938 11.0266V14.1383C172.938 14.7145 172.741 15.1781 172.348 15.5288C171.955 15.8846 171.512 16.0625 171.02 16.0625C170.647 16.0625 170.29 15.9698 169.951 15.7844C169.612 15.599 169.442 15.4311 169.442 15.2808C169.442 15.0854 169.516 14.9125 169.663 14.7622C169.757 14.6569 169.828 14.5843 169.877 14.5442C169.931 14.5041 169.993 14.484 170.061 14.484C170.13 14.484 170.202 14.5141 170.275 14.5742C170.511 14.7596 170.767 14.8523 171.042 14.8523C171.229 14.8523 171.382 14.7772 171.5 14.6269C171.618 14.4765 171.677 14.2961 171.677 14.0857V13.8602ZM170.364 12.3269C170.364 12.4872 170.425 12.6325 170.548 12.7628C170.676 12.8931 170.829 12.9582 171.006 12.9582C171.187 12.9582 171.337 12.8931 171.455 12.7628C171.573 12.6275 171.632 12.4822 171.632 12.3269C171.632 12.1665 171.576 12.0187 171.463 11.8834C171.35 11.7431 171.197 11.673 171.006 11.673C170.814 11.673 170.659 11.7406 170.541 11.8759C170.423 12.0112 170.364 12.1615 170.364 12.3269Z" fill="#3F40E9"/>
<path d="M164.164 9.22014C164.164 9.58337 163.875 9.87782 163.519 9.87782C163.162 9.87782 162.873 9.58337 162.873 9.22014C162.873 8.85692 163.162 8.56247 163.519 8.56247C163.875 8.56247 164.164 8.85692 164.164 9.22014Z" fill="#3F40E9"/>
<path d="M477.75 13.875H479.25C479.25 14.2875 478.912 14.625 478.5 14.625C478.088 14.625 477.75 14.2875 477.75 13.875ZM481.875 13.125V13.5H475.125V13.125L475.875 12.375V10.125C475.875 8.9625 476.625 7.95 477.75 7.6125V7.5C477.75 7.0875 478.088 6.75 478.5 6.75C478.912 6.75 479.25 7.0875 479.25 7.5V7.6125C480.375 7.95 481.125 8.9625 481.125 10.125V12.375L481.875 13.125ZM480.375 10.125C480.375 9.075 479.55 8.25 478.5 8.25C477.45 8.25 476.625 9.075 476.625 10.125V12.75H480.375V10.125Z" fill="#A6A6A6"/>
<g clip-path="url(#clip2_2316_37738)">
<path d="M500.625 7.5V10.125H496.939L496.5 10.5638V7.5H500.625ZM501 6.75H496.125C496.026 6.75 495.93 6.78951 495.86 6.85983C495.79 6.93016 495.75 7.02554 495.75 7.125V12.375L497.25 10.875H501C501.099 10.875 501.195 10.8355 501.265 10.7652C501.335 10.6948 501.375 10.5995 501.375 10.5V7.125C501.375 7.02554 501.335 6.93016 501.265 6.85983C501.195 6.78951 501.099 6.75 501 6.75ZM502.875 8.25H502.125V11.625H497.25V12.375C497.25 12.4745 497.29 12.5698 497.36 12.6402C497.43 12.7105 497.526 12.75 497.625 12.75H501.75L503.25 14.25V8.625C503.25 8.52554 503.21 8.43016 503.14 8.35984C503.07 8.28951 502.974 8.25 502.875 8.25Z" fill="#A6A6A6"/>
</g>
<circle cx="522" cy="10.5" r="6" fill="#B1B2F6"/>
<rect x="185.5" y="4.125" width="120" height="12.75" rx="3.75" fill="#F4F4F4"/>
<path d="M192.219 7.6875C192.757 7.6875 193.274 7.90151 193.655 8.28244C194.036 8.66337 194.25 9.18003 194.25 9.71875C194.25 10.2219 194.066 10.6844 193.762 11.0406L193.847 11.125H194.094L195.656 12.6875L195.188 13.1562L193.625 11.5938V11.3469L193.541 11.2625C193.184 11.5656 192.722 11.75 192.219 11.75C191.68 11.75 191.163 11.536 190.782 11.1551C190.402 10.7741 190.188 10.2575 190.188 9.71875C190.188 9.18003 190.402 8.66337 190.782 8.28244C191.163 7.90151 191.68 7.6875 192.219 7.6875ZM192.219 8.3125C191.438 8.3125 190.812 8.9375 190.812 9.71875C190.812 10.5 191.438 11.125 192.219 11.125C193 11.125 193.625 10.5 193.625 9.71875C193.625 8.9375 193 8.3125 192.219 8.3125Z" fill="#3F40E9"/>
<path d="M540 20.625H124V21.375H540V20.625Z" fill="#EBEBEB" mask="url(#path-22-inside-1_2316_37738)"/>
<g clip-path="url(#clip3_2316_37738)">
<rect width="420" height="354" transform="translate(120 26)" fill="white"/>
<rect x="129" y="74" width="100.5" height="12.75" rx="3.75" fill="#F4F4F4"/>
<path d="M135.719 77.5625C136.257 77.5625 136.774 77.7765 137.155 78.1574C137.536 78.5384 137.75 79.055 137.75 79.5938C137.75 80.0969 137.566 80.5594 137.262 80.9156L137.347 81H137.594L139.156 82.5625L138.688 83.0312L137.125 81.4688V81.2219L137.041 81.1375C136.684 81.4406 136.222 81.625 135.719 81.625C135.18 81.625 134.663 81.411 134.282 81.0301C133.902 80.6491 133.688 80.1325 133.688 79.5938C133.688 79.055 133.902 78.5384 134.282 78.1574C134.663 77.7765 135.18 77.5625 135.719 77.5625ZM135.719 78.1875C134.938 78.1875 134.312 78.8125 134.312 79.5938C134.312 80.375 134.938 81 135.719 81C136.5 81 137.125 80.375 137.125 79.5938C137.125 78.8125 136.5 78.1875 135.719 78.1875Z" fill="#3F40E9"/>
<rect x="234" y="74" width="52.5" height="12.75" rx="3" fill="white"/>
<path d="M240.207 78.9989C240.207 79.2894 240.157 79.5612 240.056 79.8141C239.955 80.067 239.807 80.2875 239.61 80.4755C239.415 80.6635 239.18 80.8044 238.905 80.8984L238.603 80.4575C238.845 80.3772 239.052 80.2618 239.223 80.1115C239.394 79.9594 239.523 79.7885 239.61 79.5988C239.699 79.4073 239.743 79.2074 239.743 78.9989V78.6733H240.207V78.9989ZM240.318 79.004C240.316 79.1971 240.357 79.3834 240.441 79.5629C240.524 79.7423 240.648 79.903 240.812 80.0448C240.976 80.1866 241.177 80.2969 241.415 80.3755L241.125 80.8164C240.853 80.7258 240.622 80.59 240.43 80.4088C240.241 80.2277 240.096 80.0166 239.997 79.7756C239.9 79.5347 239.851 79.2775 239.851 79.004V78.6733H240.318V79.004ZM241.279 78.9451H238.764V78.4888H241.279V78.9451ZM242.309 80.9907H241.74V78.1965H242.309V80.9907ZM242.958 79.832H242.148V79.3552H242.958V79.832ZM242.309 82.8262H241.74V81.6598H239.22V81.2035H242.309V82.8262ZM244.783 78.8861C244.783 79.1971 244.733 79.486 244.632 79.7526C244.531 80.0175 244.381 80.2482 244.183 80.4447C243.987 80.6412 243.747 80.7891 243.465 80.8882L243.16 80.4268C243.41 80.3447 243.621 80.226 243.794 80.0704C243.968 79.9149 244.098 79.7363 244.183 79.5347C244.27 79.3313 244.315 79.1151 244.317 78.8861V78.4478H244.783V78.8861ZM244.888 78.8605C244.888 79.0758 244.929 79.2783 245.011 79.468C245.093 79.656 245.215 79.8235 245.378 79.9705C245.542 80.1157 245.742 80.226 245.978 80.3011L245.67 80.7446C245.402 80.6489 245.174 80.5096 244.988 80.3268C244.804 80.1439 244.664 79.9286 244.57 79.6808C244.476 79.4313 244.429 79.1578 244.429 78.8605V78.4478H244.888V78.8605ZM247.072 80.9215H246.503V78.1965H247.072V80.9215ZM245.506 81.0471C245.831 81.0471 246.112 81.0822 246.349 81.1522C246.587 81.2206 246.769 81.3223 246.895 81.4573C247.024 81.5906 247.088 81.7512 247.088 81.9392C247.088 82.1255 247.024 82.2844 246.895 82.416C246.769 82.5493 246.587 82.6501 246.349 82.7185C246.112 82.7886 245.831 82.8236 245.506 82.8236C245.18 82.8236 244.898 82.7886 244.663 82.7185C244.427 82.6501 244.245 82.5493 244.117 82.416C243.99 82.2844 243.927 82.1255 243.927 81.9392C243.927 81.7529 243.99 81.5923 244.117 81.4573C244.245 81.3223 244.427 81.2206 244.663 81.1522C244.898 81.0822 245.18 81.0471 245.506 81.0471ZM245.506 81.4906C245.289 81.4906 245.105 81.5077 244.955 81.5419C244.804 81.576 244.69 81.6265 244.611 81.6931C244.533 81.7598 244.493 81.8418 244.493 81.9392C244.493 82.0332 244.533 82.1127 244.611 82.1776C244.69 82.2426 244.804 82.2921 244.955 82.3263C245.107 82.3605 245.291 82.3776 245.506 82.3776C245.721 82.3776 245.904 82.3605 246.055 82.3263C246.207 82.2921 246.322 82.2426 246.401 82.1776C246.479 82.1127 246.519 82.0332 246.519 81.9392C246.519 81.8418 246.479 81.7598 246.401 81.6931C246.324 81.6265 246.209 81.576 246.057 81.5419C245.905 81.5077 245.721 81.4906 245.506 81.4906ZM246.593 79.5629H245.58V79.0963H246.593V79.5629ZM252.85 82.8262H252.274V78.1965H252.85V82.8262ZM251.469 78.6887C251.467 79.1724 251.397 79.6158 251.258 80.0192C251.12 80.4208 250.891 80.7908 250.571 81.1292C250.254 81.4675 249.833 81.7606 249.31 82.0084L249.008 81.5521C249.454 81.3402 249.816 81.0992 250.095 80.8292C250.373 80.5575 250.577 80.2542 250.707 79.9192C250.837 79.5842 250.902 79.2065 250.902 78.7861V78.6887H251.469ZM251.158 79.1399H249.244V78.6887H251.158V79.1399ZM257.172 81.5393H256.596V78.1965H257.172V81.5393ZM257.821 80.0038H257.003V79.5321H257.821V80.0038ZM255.914 78.5477C255.914 78.9545 255.828 79.3228 255.657 79.6526C255.486 79.9807 255.238 80.2644 254.911 80.5037C254.587 80.7412 254.195 80.9275 253.737 81.0625L253.496 80.6088C253.881 80.4977 254.207 80.3533 254.476 80.1755C254.746 79.9961 254.951 79.7919 255.091 79.5629C255.231 79.3339 255.301 79.0878 255.301 78.8246V78.5477H255.914ZM255.614 79.0168H253.696V78.5477H255.614V79.0168ZM257.349 82.7441H254.196V82.2776H257.349V82.7441ZM254.77 82.4801H254.196V81.1984H254.77V82.4801Z" fill="#202020"/>
<path d="M275.779 79.0925L277.5 80.8137L279.221 79.0925L279.75 79.625L277.5 81.875L275.25 79.625L275.779 79.0925Z" fill="#A6A6A6"/>
<rect x="234" y="74" width="52.5" height="12.75" rx="3" stroke="#A6A6A6" stroke-width="0.375"/>
<rect x="291" y="74" width="52.5" height="12.75" rx="3" fill="white"/>
<path d="M299.271 79.891H298.143V79.427H299.271V79.891ZM299.535 81.588H298.966V78.2017H299.535V81.588ZM299.653 82.7441H296.495V82.2776H299.653V82.7441ZM297.066 82.5391H296.495V81.2881H297.066V82.5391ZM297.243 79.1194C297.243 79.4116 297.193 79.6859 297.092 79.9423C296.991 80.1969 296.842 80.4208 296.646 80.6139C296.451 80.807 296.215 80.9514 295.938 81.0471L295.644 80.5857C295.883 80.5071 296.088 80.3926 296.259 80.2422C296.43 80.0901 296.559 79.9175 296.646 79.7244C296.733 79.5312 296.777 79.3296 296.777 79.1194V78.7938H297.243V79.1194ZM297.356 79.1245C297.356 79.3142 297.398 79.4988 297.482 79.6782C297.567 79.8577 297.691 80.0192 297.853 80.1627C298.017 80.3063 298.215 80.4165 298.445 80.4934L298.161 80.9471C297.891 80.8566 297.661 80.719 297.471 80.5344C297.282 80.3499 297.137 80.1371 297.038 79.8961C296.941 79.6534 296.892 79.3962 296.892 79.1245V78.7938H297.356V79.1245ZM298.317 78.9963H295.81V78.5349H298.317V78.9963ZM302.893 80.4498H302.093V79.9781H302.893V80.4498ZM301.501 79.6116C301.499 79.9397 301.46 80.2542 301.383 80.5549C301.308 80.854 301.192 81.124 301.035 81.365C300.877 81.6042 300.682 81.7922 300.45 81.929L300.119 81.4983C300.331 81.377 300.507 81.2163 300.647 81.0164C300.789 80.8147 300.894 80.5942 300.963 80.355C301.031 80.1157 301.066 79.8679 301.068 79.6116V79.4449H301.501V79.6116ZM301.606 79.6116C301.606 79.8611 301.64 80.0995 301.709 80.3268C301.777 80.5541 301.882 80.7617 302.024 80.9497C302.166 81.1377 302.341 81.2881 302.55 81.4009L302.234 81.8213C301.998 81.6982 301.801 81.5231 301.642 81.2958C301.485 81.0685 301.367 80.8113 301.288 80.5242C301.211 80.2371 301.174 79.9329 301.176 79.6116V79.4449H301.606V79.6116ZM302.383 79.468H300.278V79.0066H302.383V79.468ZM301.604 79.3732H301.068V78.3606H301.604V79.3732ZM304.177 82.8262H303.639V78.1965H304.177V82.8262ZM303.234 82.6057H302.701V78.2863H303.234V82.6057ZM308.338 81.6829H306.141V78.6451H308.338V81.6829ZM306.7 81.2291H307.771V79.0938H306.7V81.2291ZM309.609 82.8262H309.04V78.1965H309.609V82.8262ZM310.325 80.4575H309.481V79.9781H310.325V80.4575ZM314.172 80.7985H313.603V78.1965H314.172V80.7985ZM314.821 79.7192H314.011V79.2527H314.821V79.7192ZM312.885 78.4785C312.884 78.8784 312.798 79.2373 312.629 79.5552C312.462 79.8713 312.216 80.1414 311.891 80.3652C311.566 80.5891 311.172 80.7634 310.709 80.8882L310.481 80.4293C310.867 80.3319 311.194 80.2003 311.463 80.0345C311.731 79.8671 311.934 79.6748 312.07 79.4578C312.209 79.239 312.278 79.0023 312.278 78.7477V78.4785H312.885ZM312.616 78.9374H310.704V78.4785H312.616V78.9374ZM314.172 82.7723H311.176V80.9882H314.172V82.7723ZM311.742 82.3186H313.608V81.4496H311.742V82.3186ZM316.369 78.3452C316.6 78.3452 316.808 78.3896 316.995 78.4785C317.183 78.5674 317.329 78.6921 317.433 78.8528C317.539 79.0117 317.592 79.1912 317.592 79.3911C317.592 79.5928 317.539 79.7731 317.433 79.932C317.329 80.0892 317.184 80.2131 316.997 80.3037C316.811 80.3926 316.602 80.437 316.369 80.437C316.135 80.437 315.924 80.3926 315.736 80.3037C315.55 80.2131 315.404 80.0892 315.298 79.932C315.192 79.7731 315.139 79.5928 315.139 79.3911C315.139 79.1912 315.192 79.0117 315.298 78.8528C315.404 78.6921 315.55 78.5674 315.736 78.4785C315.924 78.3896 316.135 78.3452 316.369 78.3452ZM316.369 78.8143C316.238 78.816 316.121 78.84 316.018 78.8861C315.916 78.9323 315.835 78.9998 315.777 79.0886C315.721 79.1758 315.693 79.2766 315.695 79.3911C315.693 79.509 315.721 79.6124 315.777 79.7013C315.835 79.7885 315.916 79.856 316.018 79.9038C316.121 79.9517 316.238 79.9756 316.369 79.9756C316.497 79.9756 316.613 79.9517 316.715 79.9038C316.818 79.856 316.898 79.7885 316.956 79.7013C317.014 79.6124 317.043 79.509 317.043 79.3911C317.043 79.2766 317.014 79.1758 316.956 79.0886C316.898 78.9998 316.818 78.9323 316.715 78.8861C316.613 78.84 316.497 78.816 316.369 78.8143ZM318.912 80.5396H318.341V78.1965H318.912V80.5396ZM318.912 81.952H316.405V82.5621H315.849V81.5316H318.343V81.1855H315.839V80.7395H318.912V81.952ZM319.051 82.7723H315.849V82.3237H319.051V82.7723Z" fill="#202020"/>
<path d="M332.779 79.0925L334.5 80.8137L336.221 79.0925L336.75 79.625L334.5 81.875L332.25 79.625L332.779 79.0925Z" fill="#A6A6A6"/>
<rect x="291" y="74" width="52.5" height="12.75" rx="3" stroke="#A6A6A6" stroke-width="0.375"/>
<rect x="348" y="74" width="52.5" height="12.75" rx="3" fill="white"/>
<path d="M356.271 79.891H355.143V79.427H356.271V79.891ZM356.535 81.588H355.966V78.2017H356.535V81.588ZM356.653 82.7441H353.495V82.2776H356.653V82.7441ZM354.066 82.5391H353.495V81.2881H354.066V82.5391ZM354.243 79.1194C354.243 79.4116 354.193 79.6859 354.092 79.9423C353.991 80.1969 353.842 80.4208 353.646 80.6139C353.451 80.807 353.215 80.9514 352.938 81.0471L352.644 80.5857C352.883 80.5071 353.088 80.3926 353.259 80.2422C353.43 80.0901 353.559 79.9175 353.646 79.7244C353.733 79.5312 353.777 79.3296 353.777 79.1194V78.7938H354.243V79.1194ZM354.356 79.1245C354.356 79.3142 354.398 79.4988 354.482 79.6782C354.567 79.8577 354.691 80.0192 354.853 80.1627C355.017 80.3063 355.215 80.4165 355.445 80.4934L355.161 80.9471C354.891 80.8566 354.661 80.719 354.471 80.5344C354.282 80.3499 354.137 80.1371 354.038 79.8961C353.941 79.6534 353.892 79.3962 353.892 79.1245V78.7938H354.356V79.1245ZM355.317 78.9963H352.81V78.5349H355.317V78.9963ZM359.893 80.4498H359.093V79.9781H359.893V80.4498ZM358.501 79.6116C358.499 79.9397 358.46 80.2542 358.383 80.5549C358.308 80.854 358.192 81.124 358.035 81.365C357.877 81.6042 357.682 81.7922 357.45 81.929L357.119 81.4983C357.331 81.377 357.507 81.2163 357.647 81.0164C357.789 80.8147 357.894 80.5942 357.963 80.355C358.031 80.1157 358.066 79.8679 358.068 79.6116V79.4449H358.501V79.6116ZM358.606 79.6116C358.606 79.8611 358.64 80.0995 358.709 80.3268C358.777 80.5541 358.882 80.7617 359.024 80.9497C359.166 81.1377 359.341 81.2881 359.55 81.4009L359.234 81.8213C358.998 81.6982 358.801 81.5231 358.642 81.2958C358.485 81.0685 358.367 80.8113 358.288 80.5242C358.211 80.2371 358.174 79.9329 358.176 79.6116V79.4449H358.606V79.6116ZM359.383 79.468H357.278V79.0066H359.383V79.468ZM358.604 79.3732H358.068V78.3606H358.604V79.3732ZM361.177 82.8262H360.639V78.1965H361.177V82.8262ZM360.234 82.6057H359.701V78.2863H360.234V82.6057ZM365.389 78.6554C365.387 79.1664 365.328 79.6252 365.212 80.032C365.096 80.437 364.884 80.8164 364.577 81.1702C364.269 81.5222 363.842 81.8341 363.295 82.1058L362.982 81.6752C363.457 81.441 363.83 81.1787 364.1 80.8882C364.371 80.5959 364.561 80.2764 364.669 79.9294C364.778 79.5825 364.834 79.1818 364.835 78.7272V78.6554H365.389ZM365.174 79.1168H363.261V78.6554H365.174V79.1168ZM363.095 80.3986L363.021 79.9064L364.82 79.7961V80.2345L363.095 80.3986ZM366.609 82.8236H366.04V78.1965H366.609V82.8236ZM367.296 80.4806H366.463V80.0089H367.296V80.4806ZM370.28 80.3704H369.434V79.9115H370.28V80.3704ZM367.976 81.3188C368.335 81.3154 368.632 81.306 368.868 81.2906C369.105 81.2753 369.349 81.2471 369.598 81.2061L369.645 81.6649C369.4 81.7111 369.16 81.741 368.924 81.7546C368.69 81.7683 368.374 81.7751 367.976 81.7751H367.671V81.3188H367.976ZM369.401 79.1809H368.214V81.4803H367.671V78.7297H369.401V79.1809ZM369.209 80.4139H368.055V79.973H369.209V80.4139ZM371.513 82.8262H370.965V78.1965H371.513V82.8262ZM370.544 82.6083H370.009V78.2888H370.544V82.6083ZM375.474 79.0784H372.493V78.6195H375.474V79.0784ZM376.276 82.2314H372.057V81.7675H376.276V82.2314ZM374.177 82.0059H373.615V80.1525H374.177V82.0059ZM375.835 79.1219C375.834 79.5031 375.823 79.8508 375.802 80.1653C375.781 80.478 375.733 80.842 375.656 81.2573L375.079 81.1958C375.134 80.9207 375.174 80.6609 375.2 80.4165C375.227 80.1704 375.244 79.9542 375.251 79.7679C375.258 79.5817 375.261 79.3586 375.261 79.0989V79.0681V78.6195H375.835V79.0681V79.1219ZM380.452 82.839H379.886V78.1965H380.452V82.839ZM377.253 81.2701C377.684 81.2719 378.075 81.2616 378.427 81.2394C378.779 81.2155 379.142 81.1727 379.516 81.1112L379.568 81.5778C379.195 81.641 378.829 81.6846 378.471 81.7085C378.112 81.7307 377.706 81.7418 377.253 81.7418H376.848V81.2701H377.253ZM379.027 80.337H377.435V81.447H376.848V79.8859H378.448V79.063H376.843V78.599H379.027V80.337Z" fill="#202020"/>
<path d="M389.779 79.0925L391.5 80.8137L393.221 79.0925L393.75 79.625L391.5 81.875L389.25 79.625L389.779 79.0925Z" fill="#A6A6A6"/>
<rect x="348" y="74" width="52.5" height="12.75" rx="3" stroke="#A6A6A6" stroke-width="0.375"/>
<path d="M136.386 45.2539H135.073V44.7969H136.386V45.2539ZM136.635 47.2227H136.078V43.376H136.635V47.2227ZM136.775 48.5176H133.225V48.0576H136.775V48.5176ZM133.784 48.3008H133.225V46.877H133.784V48.3008ZM134.03 44.4365C134.03 44.7588 133.971 45.0625 133.852 45.3477C133.732 45.6309 133.562 45.8799 133.339 46.0947C133.116 46.3076 132.854 46.4688 132.554 46.5781L132.264 46.127C132.527 46.0371 132.758 45.9062 132.955 45.7344C133.154 45.5605 133.307 45.3613 133.412 45.1367C133.52 44.9121 133.573 44.6787 133.573 44.4365V44.0352H134.03V44.4365ZM134.136 44.4395C134.136 44.6602 134.188 44.875 134.291 45.084C134.395 45.291 134.541 45.4766 134.73 45.6406C134.92 45.8047 135.144 45.9297 135.401 46.0156L135.117 46.458C134.824 46.3564 134.569 46.2041 134.353 46.001C134.138 45.7959 133.972 45.5596 133.854 45.292C133.739 45.0244 133.683 44.7402 133.685 44.4395V44.0352H134.136V44.4395ZM135.267 44.2314H132.431V43.7773H135.267V44.2314ZM140.561 45.8809H139.603V45.415H140.561V45.8809ZM138.917 44.9814C138.915 45.3428 138.868 45.6924 138.776 46.0303C138.685 46.3682 138.548 46.6719 138.366 46.9414C138.185 47.2109 137.966 47.4219 137.71 47.5742L137.382 47.1523C137.618 47.0156 137.819 46.832 137.985 46.6016C138.151 46.3711 138.276 46.1162 138.36 45.8369C138.444 45.5576 138.487 45.2725 138.489 44.9814V44.7471H138.917V44.9814ZM139.014 44.9814C139.016 45.2646 139.059 45.5391 139.143 45.8047C139.227 46.0684 139.352 46.3096 139.518 46.5283C139.686 46.7451 139.887 46.916 140.121 47.041L139.808 47.4541C139.548 47.3154 139.326 47.1182 139.143 46.8623C138.961 46.6064 138.823 46.3174 138.729 45.9951C138.636 45.6709 138.59 45.333 138.592 44.9814V44.7471H139.014V44.9814ZM139.945 44.7705H137.543V44.3164H139.945V44.7705ZM139.017 44.668H138.489V43.5605H139.017V44.668ZM141.949 48.6201H141.422V43.3701H141.949V48.6201ZM140.883 48.3594H140.358V43.4873H140.883V48.3594Z" fill="#1A1BE0"/>
<path d="M145.5 52.625H129V53.375H145.5V52.625Z" fill="#1A1BE0" mask="url(#path-44-inside-2_2316_37738)"/>
<path d="M157.494 48.6201H156.955V43.3701H157.494V48.6201ZM157.11 45.9365H156.129V45.4707H157.11V45.9365ZM156.287 48.3564H155.766V43.4785H156.287V48.3564ZM153.8 47.0205H153.246V43.9941H153.8V47.0205ZM153.58 46.8008C153.889 46.8008 154.19 46.7891 154.485 46.7656C154.782 46.7422 155.089 46.6982 155.405 46.6338L155.473 47.123C155.131 47.1836 154.807 47.2266 154.5 47.252C154.193 47.2773 153.887 47.29 153.58 47.29H153.246V46.8008H153.58ZM162.343 43.7656C162.341 44.2363 162.257 44.6602 162.091 45.0371C161.925 45.4121 161.665 45.7432 161.312 46.0303C160.96 46.3174 160.508 46.5537 159.955 46.7393L159.721 46.2969C160.199 46.1406 160.59 45.9482 160.893 45.7197C161.195 45.4912 161.417 45.2324 161.558 44.9434C161.698 44.6523 161.769 44.3281 161.769 43.9707V43.7656H162.343ZM162.1 44.2197H159.973V43.7656H162.1V44.2197ZM159.794 45.333L159.706 44.8848L161.783 44.7939V45.1777L159.794 45.333ZM163.772 47.2783H163.21V43.3701H163.772V47.2783ZM164.537 45.4268H163.603V44.9697H164.537V45.4268ZM163.992 48.5176H160.441V48.0576H163.992V48.5176ZM160.998 48.3535H160.441V46.9033H160.998V48.3535ZM168.958 47.2373H168.404V43.376H168.958V47.2373ZM169.723 45.3916H168.788V44.9287H169.723V45.3916ZM169.181 48.5176H165.633V48.0576H169.181V48.5176ZM166.184 48.1602H165.633V46.8535H166.184V48.1602ZM165.583 44.5977H166.957V43.7539H167.514V46.3672H165.035V43.7539H165.583V44.5977ZM166.957 45.9219V45.0283H165.583V45.9219H166.957ZM174.823 47.9697H170.019V47.5127H174.823V47.9697ZM172.682 47.6416H172.137V46.2881H172.682V47.6416ZM171.126 44.6357H173.704V43.7305H174.252V46.4346H170.566V43.7305H171.126V44.6357ZM173.704 45.9834V45.084H171.126V45.9834H173.704ZM179.458 46.3203H175.802V45.8662H179.458V46.3203ZM180.009 47.9316H175.204V47.4688H180.009V47.9316ZM179.408 44.2988H176.353V46.0625H175.802V43.8447H179.408V44.2988Z" fill="#A6A6A6"/>
<g filter="url(#filter0_d_2316_37738)">
<rect x="131" y="107.75" width="90.2917" height="14.3646" rx="1.36806" fill="#13C53B"/>
<path d="M139.496 116.608H139.005V112.385H139.496V116.608ZM139.126 114.459H138.376V114.041H139.126V114.459ZM138.525 116.4H138.051V112.465H138.525V116.4ZM136.279 115.186C136.6 115.186 136.872 115.179 137.095 115.165C137.319 115.151 137.548 115.122 137.782 115.079L137.822 115.504C137.585 115.551 137.353 115.582 137.125 115.598C136.897 115.613 136.615 115.622 136.279 115.623H135.991V115.186H136.279ZM137.569 113.306H136.512V115.397H135.991V112.886H137.569V113.306ZM143.529 116.608H143.003V112.385H143.529V116.608ZM142.269 112.834C142.267 113.275 142.203 113.68 142.077 114.048C141.951 114.414 141.742 114.751 141.45 115.06C141.16 115.369 140.777 115.636 140.3 115.862L140.024 115.446C140.431 115.252 140.761 115.033 141.015 114.786C141.269 114.539 141.456 114.262 141.574 113.956C141.693 113.651 141.752 113.306 141.752 112.923V112.834H142.269ZM141.986 113.246H140.239V112.834H141.986V113.246Z" fill="white"/>
<path d="M216.048 115.16H214.68V116.528H214.224V115.16H212.855V114.704H214.224V113.336H214.68V114.704H216.048V115.16Z" fill="white"/>
</g>
<g filter="url(#filter1_d_2316_37738)">
<rect x="131" y="127.587" width="90.29" height="50.62" rx="3" fill="white" shape-rendering="crispEdges"/>
<rect x="136.25" y="132.837" width="17.25" height="7.5" rx="1.5" fill="#8788E4"/>
<rect x="136" y="144.587" width="80" height="6" rx="3" fill="#DCDCDC"/>
<rect x="136" y="153.337" width="29" height="6" rx="3" fill="#DCDCDC"/>
<rect x="167" y="153.337" width="36" height="6" rx="3" fill="#DCDCDC"/>
</g>
<g filter="url(#filter2_d_2316_37738)">
<rect x="131" y="183.679" width="90.29" height="50.62" rx="3" fill="white" shape-rendering="crispEdges"/>
<rect x="136.25" y="188.929" width="17.25" height="7.5" rx="1.5" fill="#8788E4"/>
<rect x="136" y="200.429" width="54" height="6" rx="3" fill="#DCDCDC"/>
<rect x="193.42" y="200.679" width="25" height="6" rx="3" fill="#DCDCDC"/>
<rect x="136.42" y="209.429" width="69" height="6" rx="3" fill="#DCDCDC"/>
</g>
<g filter="url(#filter3_d_2316_37738)">
<rect x="233.292" y="107.75" width="90.2917" height="14.3646" rx="1.36806" fill="#1F93FF"/>
<path d="M239.662 113.246C239.662 113.509 239.614 113.756 239.519 113.987C239.426 114.217 239.288 114.419 239.106 114.592C238.925 114.765 238.707 114.895 238.453 114.983L238.184 114.571C238.406 114.5 238.595 114.395 238.753 114.258C238.91 114.121 239.028 113.965 239.108 113.79C239.189 113.616 239.229 113.434 239.229 113.246V112.853H239.662V113.246ZM239.756 113.246C239.756 113.425 239.795 113.596 239.875 113.76C239.956 113.924 240.074 114.07 240.228 114.2C240.384 114.327 240.571 114.425 240.789 114.492L240.522 114.901C240.273 114.82 240.059 114.698 239.879 114.534C239.702 114.369 239.565 114.176 239.47 113.956C239.377 113.735 239.33 113.498 239.33 113.246V112.853H239.756V113.246ZM240.646 113.124H238.32V112.708H240.646V113.124ZM241.67 115.457H241.149V112.39H241.67V115.457ZM241.79 116.533H238.874V116.107H241.79V116.533ZM239.398 116.313H238.874V115.174H239.398V116.313ZM245.904 115.041H245.409V112.385H245.904V115.041ZM245.544 113.893H244.813V113.468H245.544V113.893ZM244.997 114.899H244.511V112.467H244.997V114.899ZM244.371 113.253H242.269V112.843H244.371V113.253ZM243.326 113.423C243.503 113.423 243.662 113.454 243.8 113.514C243.939 113.574 244.047 113.659 244.125 113.772C244.203 113.882 244.242 114.01 244.242 114.155C244.242 114.298 244.203 114.425 244.125 114.534C244.047 114.643 243.939 114.728 243.8 114.789C243.662 114.849 243.503 114.88 243.326 114.88C243.15 114.88 242.992 114.849 242.853 114.789C242.716 114.728 242.609 114.643 242.531 114.534C242.454 114.425 242.416 114.298 242.416 114.155C242.416 114.01 242.454 113.882 242.531 113.772C242.609 113.659 242.716 113.574 242.853 113.514C242.992 113.454 243.15 113.423 243.326 113.423ZM243.326 113.797C243.238 113.797 243.161 113.812 243.094 113.842C243.027 113.87 242.974 113.911 242.935 113.966C242.898 114.019 242.879 114.082 242.879 114.155C242.879 114.225 242.898 114.288 242.935 114.342C242.973 114.395 243.025 114.436 243.092 114.466C243.159 114.494 243.237 114.508 243.326 114.508C243.413 114.508 243.49 114.494 243.557 114.466C243.626 114.436 243.679 114.395 243.716 114.342C243.753 114.288 243.772 114.225 243.772 114.155C243.772 114.082 243.753 114.019 243.716 113.966C243.679 113.911 243.626 113.87 243.557 113.842C243.49 113.812 243.413 113.797 243.326 113.797ZM243.58 113.115H243.064V112.423H243.58V113.115ZM244.478 115.095C244.779 115.095 245.038 115.125 245.254 115.184C245.471 115.241 245.637 115.328 245.752 115.443C245.868 115.557 245.925 115.694 245.925 115.855C245.925 116.012 245.868 116.147 245.752 116.259C245.637 116.373 245.47 116.459 245.252 116.516C245.035 116.576 244.778 116.605 244.478 116.605C244.177 116.605 243.918 116.576 243.7 116.516C243.483 116.459 243.317 116.373 243.202 116.259C243.086 116.147 243.029 116.012 243.031 115.855C243.029 115.694 243.086 115.557 243.202 115.443C243.317 115.328 243.483 115.241 243.7 115.184C243.918 115.125 244.177 115.095 244.478 115.095ZM244.478 115.488C244.276 115.488 244.106 115.501 243.969 115.527C243.831 115.554 243.727 115.595 243.655 115.651C243.585 115.706 243.55 115.774 243.55 115.855C243.55 115.931 243.585 115.996 243.655 116.049C243.727 116.102 243.831 116.142 243.969 116.17C244.107 116.198 244.277 116.213 244.478 116.213C244.678 116.213 244.846 116.198 244.983 116.17C245.122 116.142 245.226 116.102 245.297 116.049C245.368 115.996 245.405 115.931 245.406 115.855C245.405 115.772 245.368 115.704 245.297 115.649C245.226 115.595 245.123 115.554 244.986 115.527C244.848 115.501 244.679 115.488 244.478 115.488Z" fill="white"/>
<path d="M318.339 115.16H316.971V116.528H316.515V115.16H315.147V114.704H316.515V113.336H316.971V114.704H318.339V115.16Z" fill="white"/>
</g>
<g filter="url(#filter4_d_2316_37738)">
<rect x="233.292" y="127.587" width="90.29" height="50.62" rx="3" fill="white" shape-rendering="crispEdges"/>
<rect x="238.542" y="132.837" width="17.25" height="7.5" rx="1.5" fill="#8788E4"/>
<rect x="236.001" y="144.587" width="86" height="6" rx="3" fill="#DCDCDC"/>
<rect x="236.001" y="153.337" width="29" height="6" rx="3" fill="#DCDCDC"/>
</g>
<g filter="url(#filter5_d_2316_37738)">
<rect x="233.292" y="183.679" width="90.29" height="50.62" rx="3" fill="white" shape-rendering="crispEdges"/>
<rect x="238.542" y="188.929" width="17.25" height="7.5" rx="1.5" fill="#8788E4"/>
<rect x="238.292" y="200.679" width="80" height="6" rx="3" fill="#DCDCDC"/>
<rect x="238.292" y="209.429" width="29" height="6" rx="3" fill="#DCDCDC"/>
<rect x="269.292" y="209.429" width="36" height="6" rx="3" fill="#DCDCDC"/>
</g>
<g filter="url(#filter6_d_2316_37738)">
<rect x="233.292" y="239.771" width="90.29" height="50.62" rx="3" fill="white" shape-rendering="crispEdges"/>
<g clip-path="url(#clip4_2316_37738)">
<rect x="238.542" y="245.021" width="17.25" height="7.5" rx="1.5" fill="#8788E4"/>
</g>
<rect x="236.001" y="256.771" width="86" height="6" rx="3" fill="#DCDCDC"/>
<rect x="236.001" y="265.521" width="29" height="6" rx="3" fill="#DCDCDC"/>
</g>
<g filter="url(#filter7_d_2316_37738)">
<rect x="233.292" y="295.863" width="90.29" height="50.62" rx="3" fill="white" shape-rendering="crispEdges"/>
<g clip-path="url(#clip5_2316_37738)">
<rect x="238.542" y="301.113" width="17.25" height="7.5" rx="1.5" fill="#8788E4"/>
</g>
<rect x="237.421" y="312.863" width="80" height="6" rx="3" fill="#DCDCDC"/>
<rect x="237.421" y="321.613" width="29" height="6" rx="3" fill="#DCDCDC"/>
<rect x="268.421" y="321.613" width="36" height="6" rx="3" fill="#DCDCDC"/>
</g>
<g filter="url(#filter8_d_2316_37738)">
<rect x="335.583" y="107.75" width="90.2917" height="14.3646" rx="1.36806" fill="#7100E1"/>
<path d="M341.989 114.756H341.468V114.113H341.989V114.756ZM341.72 112.568C341.924 112.568 342.107 112.603 342.267 112.675C342.428 112.745 342.553 112.845 342.644 112.974C342.734 113.104 342.779 113.252 342.779 113.419C342.779 113.582 342.733 113.729 342.641 113.858C342.551 113.986 342.426 114.086 342.265 114.157C342.106 114.229 341.924 114.265 341.72 114.265C341.516 114.265 341.334 114.229 341.173 114.157C341.013 114.086 340.887 113.986 340.797 113.858C340.708 113.729 340.663 113.582 340.663 113.419C340.663 113.252 340.708 113.104 340.797 112.974C340.887 112.845 341.012 112.745 341.171 112.675C341.331 112.603 341.514 112.568 341.72 112.568ZM341.72 112.963C341.606 112.964 341.507 112.984 341.421 113.021C341.335 113.057 341.268 113.109 341.22 113.178C341.172 113.246 341.148 113.327 341.15 113.419C341.148 113.511 341.172 113.591 341.22 113.659C341.268 113.726 341.335 113.779 341.421 113.816C341.508 113.852 341.608 113.87 341.72 113.87C341.832 113.87 341.931 113.852 342.017 113.816C342.104 113.779 342.171 113.726 342.218 113.659C342.267 113.591 342.291 113.511 342.291 113.419C342.291 113.325 342.267 113.244 342.218 113.175C342.171 113.105 342.104 113.053 342.017 113.019C341.931 112.983 341.832 112.964 341.72 112.963ZM343.794 115.614H343.273V112.39H343.794V115.614ZM344.364 114.188H343.602V113.753H344.364V114.188ZM343.941 116.526H341.012V116.103H343.941V116.526ZM341.536 116.292H341.012V115.333H341.536V116.292ZM340.434 114.62C340.894 114.622 341.345 114.613 341.788 114.595C342.231 114.576 342.643 114.539 343.025 114.482L343.062 114.864C342.671 114.934 342.26 114.98 341.83 115.004C341.401 115.027 340.956 115.038 340.493 115.037L340.434 114.62ZM346.111 115.866H345.604V114.849H346.111V115.866ZM347.467 115.862H346.957V114.845H347.467V115.862ZM348.447 116.121H344.584V115.693H348.447V116.121ZM347.986 114.031H345.559V114.798H345.04V113.615H347.474V113.094H345.033V112.673H347.986V114.031ZM348.087 114.994H345.04V114.571H348.087V114.994Z" fill="white"/>
<path d="M420.631 115.16H419.263V116.528H418.807V115.16H417.439V114.704H418.807V113.336H419.263V114.704H420.631V115.16Z" fill="white"/>
</g>
<g filter="url(#filter9_d_2316_37738)">
<rect x="335.583" y="127.587" width="90.29" height="50.62" rx="3" fill="white" shape-rendering="crispEdges"/>
<rect x="340.833" y="132.837" width="17.25" height="7.5" rx="1.5" fill="#8788E4"/>
<rect x="338.293" y="144.587" width="86" height="6" rx="3" fill="#DCDCDC"/>
<rect x="338.293" y="153.337" width="29" height="6" rx="3" fill="#DCDCDC"/>
</g>
<g filter="url(#filter10_d_2316_37738)">
<rect x="335.583" y="183.679" width="90.29" height="50.62" rx="3" fill="white" shape-rendering="crispEdges"/>
<rect x="340.833" y="188.929" width="17.25" height="7.5" rx="1.5" fill="#8788E4"/>
<rect x="340.583" y="200.429" width="54" height="6" rx="3" fill="#DCDCDC"/>
<rect x="398.003" y="200.679" width="25" height="6" rx="3" fill="#DCDCDC"/>
<rect x="341.003" y="209.429" width="69" height="6" rx="3" fill="#DCDCDC"/>
</g>
<g filter="url(#filter11_d_2316_37738)">
<rect x="335.583" y="239.771" width="90.29" height="50.62" rx="3" fill="white" shape-rendering="crispEdges"/>
<g clip-path="url(#clip6_2316_37738)">
<rect x="340.833" y="245.021" width="17.25" height="7.5" rx="1.5" fill="#8788E4"/>
</g>
<rect x="338.293" y="256.771" width="86" height="6" rx="3" fill="#DCDCDC"/>
<rect x="338.293" y="265.521" width="29" height="6" rx="3" fill="#DCDCDC"/>
</g>
<g filter="url(#filter12_d_2316_37738)">
<rect x="437.875" y="107.75" width="90.2917" height="14.3646" rx="1.36806" fill="#FC3B3B"/>
<path d="M446.6 116.103H442.738V115.677H446.6V116.103ZM444.914 115.789H444.402V114.728H444.914V115.789ZM443.682 113.358H445.639V112.666H446.156V114.852H443.161V112.666H443.682V113.358ZM445.639 114.436V113.772H443.682V114.436H445.639ZM450.733 115.289H446.871V114.88H450.733V115.289ZM448.33 116.608H447.806V115.095H448.33V116.608ZM449.801 116.608H449.277V115.095H449.801V116.608ZM450.28 113.709H447.858V114.391H447.332V113.323H449.747V112.949H447.322V112.528H450.28V113.709ZM450.376 114.532H447.332V114.111H450.376V114.532Z" fill="white"/>
<path d="M522.923 115.16H521.555V116.528H521.099V115.16H519.73V114.704H521.099V113.336H521.555V114.704H522.923V115.16Z" fill="white"/>
</g>
<g filter="url(#filter13_d_2316_37738)">
<rect x="437.875" y="127.587" width="90.29" height="50.62" rx="3" fill="white" shape-rendering="crispEdges"/>
<rect x="443.125" y="132.837" width="17.25" height="7.5" rx="1.5" fill="#8788E4"/>
<rect x="442.875" y="144.337" width="54" height="6" rx="3" fill="#DCDCDC"/>
<rect x="500.295" y="144.587" width="25" height="6" rx="3" fill="#DCDCDC"/>
<rect x="443.295" y="153.337" width="69" height="6" rx="3" fill="#DCDCDC"/>
</g>
</g>
<defs>
<filter id="filter0_d_2316_37738" x="126.212" y="102.962" width="99.8679" height="23.941" filterUnits="userSpaceOnUse" color-interpolation-filters="sRGB">
<feFlood flood-opacity="0" result="BackgroundImageFix"/>
<feColorMatrix in="SourceAlpha" type="matrix" values="0 0 0 0 0 0 0 0 0 0 0 0 0 0 0 0 0 0 127 0" result="hardAlpha"/>
<feMorphology radius="1.36806" operator="erode" in="SourceAlpha" result="effect1_dropShadow_2316_37738"/>
<feOffset/>
<feGaussianBlur stdDeviation="3.07812"/>
<feComposite in2="hardAlpha" operator="out"/>
<feColorMatrix type="matrix" values="0 0 0 0 0 0 0 0 0 0 0 0 0 0 0 0 0 0 0.1 0"/>
<feBlend mode="normal" in2="BackgroundImageFix" result="effect1_dropShadow_2316_37738"/>
<feBlend mode="normal" in="SourceGraphic" in2="effect1_dropShadow_2316_37738" result="shape"/>
</filter>
<filter id="filter1_d_2316_37738" x="125.75" y="122.337" width="100.79" height="61.12" filterUnits="userSpaceOnUse" color-interpolation-filters="sRGB">
<feFlood flood-opacity="0" result="BackgroundImageFix"/>
<feColorMatrix in="SourceAlpha" type="matrix" values="0 0 0 0 0 0 0 0 0 0 0 0 0 0 0 0 0 0 127 0" result="hardAlpha"/>
<feMorphology radius="1.5" operator="erode" in="SourceAlpha" result="effect1_dropShadow_2316_37738"/>
<feOffset/>
<feGaussianBlur stdDeviation="3.375"/>
<feComposite in2="hardAlpha" operator="out"/>
<feColorMatrix type="matrix" values="0 0 0 0 0 0 0 0 0 0 0 0 0 0 0 0 0 0 0.1 0"/>
<feBlend mode="normal" in2="BackgroundImageFix" result="effect1_dropShadow_2316_37738"/>
<feBlend mode="normal" in="SourceGraphic" in2="effect1_dropShadow_2316_37738" result="shape"/>
</filter>
<filter id="filter2_d_2316_37738" x="125.75" y="178.429" width="100.79" height="61.12" filterUnits="userSpaceOnUse" color-interpolation-filters="sRGB">
<feFlood flood-opacity="0" result="BackgroundImageFix"/>
<feColorMatrix in="SourceAlpha" type="matrix" values="0 0 0 0 0 0 0 0 0 0 0 0 0 0 0 0 0 0 127 0" result="hardAlpha"/>
<feMorphology radius="1.5" operator="erode" in="SourceAlpha" result="effect1_dropShadow_2316_37738"/>
<feOffset/>
<feGaussianBlur stdDeviation="3.375"/>
<feComposite in2="hardAlpha" operator="out"/>
<feColorMatrix type="matrix" values="0 0 0 0 0 0 0 0 0 0 0 0 0 0 0 0 0 0 0.1 0"/>
<feBlend mode="normal" in2="BackgroundImageFix" result="effect1_dropShadow_2316_37738"/>
<feBlend mode="normal" in="SourceGraphic" in2="effect1_dropShadow_2316_37738" result="shape"/>
</filter>
<filter id="filter3_d_2316_37738" x="228.503" y="102.962" width="99.8679" height="23.941" filterUnits="userSpaceOnUse" color-interpolation-filters="sRGB">
<feFlood flood-opacity="0" result="BackgroundImageFix"/>
<feColorMatrix in="SourceAlpha" type="matrix" values="0 0 0 0 0 0 0 0 0 0 0 0 0 0 0 0 0 0 127 0" result="hardAlpha"/>
<feMorphology radius="1.36806" operator="erode" in="SourceAlpha" result="effect1_dropShadow_2316_37738"/>
<feOffset/>
<feGaussianBlur stdDeviation="3.07812"/>
<feComposite in2="hardAlpha" operator="out"/>
<feColorMatrix type="matrix" values="0 0 0 0 0 0 0 0 0 0 0 0 0 0 0 0 0 0 0.1 0"/>
<feBlend mode="normal" in2="BackgroundImageFix" result="effect1_dropShadow_2316_37738"/>
<feBlend mode="normal" in="SourceGraphic" in2="effect1_dropShadow_2316_37738" result="shape"/>
</filter>
<filter id="filter4_d_2316_37738" x="228.042" y="122.337" width="100.79" height="61.12" filterUnits="userSpaceOnUse" color-interpolation-filters="sRGB">
<feFlood flood-opacity="0" result="BackgroundImageFix"/>
<feColorMatrix in="SourceAlpha" type="matrix" values="0 0 0 0 0 0 0 0 0 0 0 0 0 0 0 0 0 0 127 0" result="hardAlpha"/>
<feMorphology radius="1.5" operator="erode" in="SourceAlpha" result="effect1_dropShadow_2316_37738"/>
<feOffset/>
<feGaussianBlur stdDeviation="3.375"/>
<feComposite in2="hardAlpha" operator="out"/>
<feColorMatrix type="matrix" values="0 0 0 0 0 0 0 0 0 0 0 0 0 0 0 0 0 0 0.1 0"/>
<feBlend mode="normal" in2="BackgroundImageFix" result="effect1_dropShadow_2316_37738"/>
<feBlend mode="normal" in="SourceGraphic" in2="effect1_dropShadow_2316_37738" result="shape"/>
</filter>
<filter id="filter5_d_2316_37738" x="228.042" y="178.429" width="100.79" height="61.12" filterUnits="userSpaceOnUse" color-interpolation-filters="sRGB">
<feFlood flood-opacity="0" result="BackgroundImageFix"/>
<feColorMatrix in="SourceAlpha" type="matrix" values="0 0 0 0 0 0 0 0 0 0 0 0 0 0 0 0 0 0 127 0" result="hardAlpha"/>
<feMorphology radius="1.5" operator="erode" in="SourceAlpha" result="effect1_dropShadow_2316_37738"/>
<feOffset/>
<feGaussianBlur stdDeviation="3.375"/>
<feComposite in2="hardAlpha" operator="out"/>
<feColorMatrix type="matrix" values="0 0 0 0 0 0 0 0 0 0 0 0 0 0 0 0 0 0 0.1 0"/>
<feBlend mode="normal" in2="BackgroundImageFix" result="effect1_dropShadow_2316_37738"/>
<feBlend mode="normal" in="SourceGraphic" in2="effect1_dropShadow_2316_37738" result="shape"/>
</filter>
<filter id="filter6_d_2316_37738" x="228.042" y="234.521" width="100.79" height="61.12" filterUnits="userSpaceOnUse" color-interpolation-filters="sRGB">
<feFlood flood-opacity="0" result="BackgroundImageFix"/>
<feColorMatrix in="SourceAlpha" type="matrix" values="0 0 0 0 0 0 0 0 0 0 0 0 0 0 0 0 0 0 127 0" result="hardAlpha"/>
<feMorphology radius="1.5" operator="erode" in="SourceAlpha" result="effect1_dropShadow_2316_37738"/>
<feOffset/>
<feGaussianBlur stdDeviation="3.375"/>
<feComposite in2="hardAlpha" operator="out"/>
<feColorMatrix type="matrix" values="0 0 0 0 0 0 0 0 0 0 0 0 0 0 0 0 0 0 0.1 0"/>
<feBlend mode="normal" in2="BackgroundImageFix" result="effect1_dropShadow_2316_37738"/>
<feBlend mode="normal" in="SourceGraphic" in2="effect1_dropShadow_2316_37738" result="shape"/>
</filter>
<filter id="filter7_d_2316_37738" x="228.042" y="290.613" width="100.79" height="61.12" filterUnits="userSpaceOnUse" color-interpolation-filters="sRGB">
<feFlood flood-opacity="0" result="BackgroundImageFix"/>
<feColorMatrix in="SourceAlpha" type="matrix" values="0 0 0 0 0 0 0 0 0 0 0 0 0 0 0 0 0 0 127 0" result="hardAlpha"/>
<feMorphology radius="1.5" operator="erode" in="SourceAlpha" result="effect1_dropShadow_2316_37738"/>
<feOffset/>
<feGaussianBlur stdDeviation="3.375"/>
<feComposite in2="hardAlpha" operator="out"/>
<feColorMatrix type="matrix" values="0 0 0 0 0 0 0 0 0 0 0 0 0 0 0 0 0 0 0.1 0"/>
<feBlend mode="normal" in2="BackgroundImageFix" result="effect1_dropShadow_2316_37738"/>
<feBlend mode="normal" in="SourceGraphic" in2="effect1_dropShadow_2316_37738" result="shape"/>
</filter>
<filter id="filter8_d_2316_37738" x="330.795" y="102.962" width="99.8679" height="23.941" filterUnits="userSpaceOnUse" color-interpolation-filters="sRGB">
<feFlood flood-opacity="0" result="BackgroundImageFix"/>
<feColorMatrix in="SourceAlpha" type="matrix" values="0 0 0 0 0 0 0 0 0 0 0 0 0 0 0 0 0 0 127 0" result="hardAlpha"/>
<feMorphology radius="1.36806" operator="erode" in="SourceAlpha" result="effect1_dropShadow_2316_37738"/>
<feOffset/>
<feGaussianBlur stdDeviation="3.07812"/>
<feComposite in2="hardAlpha" operator="out"/>
<feColorMatrix type="matrix" values="0 0 0 0 0 0 0 0 0 0 0 0 0 0 0 0 0 0 0.1 0"/>
<feBlend mode="normal" in2="BackgroundImageFix" result="effect1_dropShadow_2316_37738"/>
<feBlend mode="normal" in="SourceGraphic" in2="effect1_dropShadow_2316_37738" result="shape"/>
</filter>
<filter id="filter9_d_2316_37738" x="330.333" y="122.337" width="100.79" height="61.12" filterUnits="userSpaceOnUse" color-interpolation-filters="sRGB">
<feFlood flood-opacity="0" result="BackgroundImageFix"/>
<feColorMatrix in="SourceAlpha" type="matrix" values="0 0 0 0 0 0 0 0 0 0 0 0 0 0 0 0 0 0 127 0" result="hardAlpha"/>
<feMorphology radius="1.5" operator="erode" in="SourceAlpha" result="effect1_dropShadow_2316_37738"/>
<feOffset/>
<feGaussianBlur stdDeviation="3.375"/>
<feComposite in2="hardAlpha" operator="out"/>
<feColorMatrix type="matrix" values="0 0 0 0 0 0 0 0 0 0 0 0 0 0 0 0 0 0 0.1 0"/>
<feBlend mode="normal" in2="BackgroundImageFix" result="effect1_dropShadow_2316_37738"/>
<feBlend mode="normal" in="SourceGraphic" in2="effect1_dropShadow_2316_37738" result="shape"/>
</filter>
<filter id="filter10_d_2316_37738" x="330.333" y="178.429" width="100.79" height="61.12" filterUnits="userSpaceOnUse" color-interpolation-filters="sRGB">
<feFlood flood-opacity="0" result="BackgroundImageFix"/>
<feColorMatrix in="SourceAlpha" type="matrix" values="0 0 0 0 0 0 0 0 0 0 0 0 0 0 0 0 0 0 127 0" result="hardAlpha"/>
<feMorphology radius="1.5" operator="erode" in="SourceAlpha" result="effect1_dropShadow_2316_37738"/>
<feOffset/>
<feGaussianBlur stdDeviation="3.375"/>
<feComposite in2="hardAlpha" operator="out"/>
<feColorMatrix type="matrix" values="0 0 0 0 0 0 0 0 0 0 0 0 0 0 0 0 0 0 0.1 0"/>
<feBlend mode="normal" in2="BackgroundImageFix" result="effect1_dropShadow_2316_37738"/>
<feBlend mode="normal" in="SourceGraphic" in2="effect1_dropShadow_2316_37738" result="shape"/>
</filter>
<filter id="filter11_d_2316_37738" x="330.333" y="234.521" width="100.79" height="61.12" filterUnits="userSpaceOnUse" color-interpolation-filters="sRGB">
<feFlood flood-opacity="0" result="BackgroundImageFix"/>
<feColorMatrix in="SourceAlpha" type="matrix" values="0 0 0 0 0 0 0 0 0 0 0 0 0 0 0 0 0 0 127 0" result="hardAlpha"/>
<feMorphology radius="1.5" operator="erode" in="SourceAlpha" result="effect1_dropShadow_2316_37738"/>
<feOffset/>
<feGaussianBlur stdDeviation="3.375"/>
<feComposite in2="hardAlpha" operator="out"/>
<feColorMatrix type="matrix" values="0 0 0 0 0 0 0 0 0 0 0 0 0 0 0 0 0 0 0.1 0"/>
<feBlend mode="normal" in2="BackgroundImageFix" result="effect1_dropShadow_2316_37738"/>
<feBlend mode="normal" in="SourceGraphic" in2="effect1_dropShadow_2316_37738" result="shape"/>
</filter>
<filter id="filter12_d_2316_37738" x="433.087" y="102.962" width="99.8679" height="23.941" filterUnits="userSpaceOnUse" color-interpolation-filters="sRGB">
<feFlood flood-opacity="0" result="BackgroundImageFix"/>
<feColorMatrix in="SourceAlpha" type="matrix" values="0 0 0 0 0 0 0 0 0 0 0 0 0 0 0 0 0 0 127 0" result="hardAlpha"/>
<feMorphology radius="1.36806" operator="erode" in="SourceAlpha" result="effect1_dropShadow_2316_37738"/>
<feOffset/>
<feGaussianBlur stdDeviation="3.07812"/>
<feComposite in2="hardAlpha" operator="out"/>
<feColorMatrix type="matrix" values="0 0 0 0 0 0 0 0 0 0 0 0 0 0 0 0 0 0 0.1 0"/>
<feBlend mode="normal" in2="BackgroundImageFix" result="effect1_dropShadow_2316_37738"/>
<feBlend mode="normal" in="SourceGraphic" in2="effect1_dropShadow_2316_37738" result="shape"/>
</filter>
<filter id="filter13_d_2316_37738" x="432.625" y="122.337" width="100.79" height="61.12" filterUnits="userSpaceOnUse" color-interpolation-filters="sRGB">
<feFlood flood-opacity="0" result="BackgroundImageFix"/>
<feColorMatrix in="SourceAlpha" type="matrix" values="0 0 0 0 0 0 0 0 0 0 0 0 0 0 0 0 0 0 127 0" result="hardAlpha"/>
<feMorphology radius="1.5" operator="erode" in="SourceAlpha" result="effect1_dropShadow_2316_37738"/>
<feOffset/>
<feGaussianBlur stdDeviation="3.375"/>
<feComposite in2="hardAlpha" operator="out"/>
<feColorMatrix type="matrix" values="0 0 0 0 0 0 0 0 0 0 0 0 0 0 0 0 0 0 0.1 0"/>
<feBlend mode="normal" in2="BackgroundImageFix" result="effect1_dropShadow_2316_37738"/>
<feBlend mode="normal" in="SourceGraphic" in2="effect1_dropShadow_2316_37738" result="shape"/>
</filter>
<linearGradient id="paint0_linear_2316_37738" x1="99.1893" y1="27.5" x2="99.1893" y2="80.3589" gradientUnits="userSpaceOnUse">
<stop stop-color="#DFDFDF"/>
<stop offset="0.229167" stop-color="#BABAE1"/>
<stop offset="0.380208" stop-color="#A2A3E3"/>
<stop offset="0.567708" stop-color="#8485E5"/>
<stop offset="0.692708" stop-color="#7071E6"/>
<stop offset="1" stop-color="#3F40E9"/>
</linearGradient>
<linearGradient id="paint1_linear_2316_37738" x1="137.337" y1="14.1598" x2="150.087" y2="14.1598" gradientUnits="userSpaceOnUse">
<stop stop-color="#DFDFDF"/>
<stop offset="0.229167" stop-color="#BABAE1"/>
<stop offset="0.380208" stop-color="#A2A3E3"/>
<stop offset="0.567708" stop-color="#8485E5"/>
<stop offset="0.692708" stop-color="#7071E6"/>
<stop offset="1" stop-color="#3F40E9"/>
</linearGradient>
<clipPath id="clip0_2316_37738">
<rect width="9" height="9" fill="white" transform="translate(57.5 133)"/>
</clipPath>
<clipPath id="clip1_2316_37738">
<rect width="9" height="9" fill="white" transform="translate(96 133)"/>
</clipPath>
<clipPath id="clip2_2316_37738">
<rect width="9" height="9" fill="white" transform="translate(495 6)"/>
</clipPath>
<clipPath id="clip3_2316_37738">
<rect width="420" height="354" fill="white" transform="translate(120 26)"/>
</clipPath>
<clipPath id="clip4_2316_37738">
<rect x="238.542" y="245.021" width="17.25" height="7.5" rx="1.5" fill="white"/>
</clipPath>
<clipPath id="clip5_2316_37738">
<rect x="238.542" y="301.113" width="17.25" height="7.5" rx="1.5" fill="white"/>
</clipPath>
<clipPath id="clip6_2316_37738">
<rect x="340.833" y="245.021" width="17.25" height="7.5" rx="1.5" fill="white"/>
</clipPath>
</defs>
</svg>
