<svg width="540" height="380" viewBox="0 0 540 380" fill="none" xmlns="http://www.w3.org/2000/svg">
<rect width="540" height="380" fill="white"/>
<mask id="path-1-inside-1_2316_35056" fill="white">
<path d="M0 0H540V26H0V0Z"/>
</mask>
<path d="M0 0H540V26H0V0Z" fill="white"/>
<path d="M19.7819 9.75922C19.9945 9.40267 20.5239 9.40267 20.7365 9.75922L22.5523 12.8055L23.8267 10.6577C24.039 10.2999 24.5701 10.2999 24.7824 10.6577L27.2749 14.8584H30.1829C30.4043 14.8584 30.6051 14.9837 30.6952 15.1784C30.9478 15.7241 31.0209 15.8904 31.2548 16.4543C31.3284 16.6317 31.1928 16.825 30.9945 16.825H26.0549L24.7823 14.6803C24.57 14.3226 24.039 14.3226 23.8267 14.6803L22.5541 16.825H16.5276C16.1025 16.825 15.8372 16.3773 16.0503 16.0197L19.7819 9.75922Z" fill="url(#paint0_linear_2316_35056)"/>
<path d="M25.5857 8.10708C25.5857 8.75993 25.0361 9.28917 24.3581 9.28917C23.6801 9.28917 23.1305 8.75993 23.1305 8.10708C23.1305 7.45423 23.6801 6.92499 24.3581 6.92499C25.0361 6.92499 25.5857 7.45423 25.5857 8.10708Z" fill="#8788E4"/>
<path d="M40.4197 10.6688C40.4669 10.759 40.4934 10.8402 40.4993 10.9123C40.5111 10.9845 40.517 11.0897 40.517 11.228V16.2339C40.517 16.6488 40.4049 16.8923 40.1807 16.9645C40.0686 17.0005 39.927 17.0186 39.7559 17.0186C39.5848 17.0186 39.449 17.0035 39.3487 16.9735C39.2484 16.9434 39.1717 16.9073 39.1186 16.8652C39.0655 16.8232 39.0242 16.763 38.9947 16.6849C38.9652 16.5826 38.9505 16.4263 38.9505 16.2158V13.1943C38.8029 13.3807 38.5876 13.6783 38.3043 14.0872C38.0211 14.4901 37.8412 14.7426 37.7644 14.8449C37.6877 14.9471 37.6346 15.0192 37.6051 15.0613C37.5756 15.0974 37.5019 15.1515 37.3839 15.2237C37.2717 15.2898 37.1478 15.3229 37.0121 15.3229C36.8823 15.3229 36.7614 15.2928 36.6492 15.2327C36.543 15.1666 36.4663 15.1034 36.4191 15.0433L36.3483 14.9441C36.2303 14.7938 35.9972 14.4751 35.6491 13.988C35.301 13.4949 35.1121 13.2304 35.0826 13.1943V16.2339C35.0826 16.3722 35.0767 16.4774 35.0649 16.5496C35.059 16.6157 35.0325 16.6909 34.9853 16.7751C34.8968 16.9374 34.6667 17.0186 34.2949 17.0186C33.935 17.0186 33.7108 16.9374 33.6223 16.7751C33.5751 16.6909 33.5456 16.6127 33.5338 16.5405C33.5279 16.4684 33.5249 16.3602 33.5249 16.2158V11.21C33.5249 11.0717 33.5279 10.9695 33.5338 10.9033C33.5456 10.8312 33.5751 10.75 33.6223 10.6598C33.7108 10.5035 33.9409 10.4253 34.3126 10.4253C34.4719 10.4253 34.6077 10.4463 34.7198 10.4884C34.8378 10.5245 34.9145 10.5636 34.9499 10.6057L35.003 10.6598L37.0121 13.3476C38.0152 11.9947 38.6849 11.1018 39.0213 10.6688C39.1216 10.5065 39.3576 10.4253 39.7293 10.4253C40.107 10.4253 40.3371 10.5065 40.4197 10.6688Z" fill="#3F40E9"/>
<path d="M41.0934 14.6555C41.0934 13.9339 41.3412 13.3386 41.8369 12.8696C42.3325 12.4006 42.899 12.1661 43.5362 12.1661C44.1735 12.1661 44.737 12.4006 45.2267 12.8696C45.7165 13.3326 45.9613 13.9249 45.9613 14.6464C45.9613 15.1455 45.8345 15.5905 45.5808 15.9813C45.327 16.3662 45.0173 16.6518 44.6514 16.8382C44.2915 17.0186 43.9168 17.1088 43.5274 17.1088C43.1379 17.1088 42.7603 17.0126 42.3945 16.8202C42.0286 16.6217 41.7188 16.3331 41.4651 15.9543C41.2173 15.5694 41.0934 15.1365 41.0934 14.6555ZM42.9432 15.3049C43.132 15.4492 43.3238 15.5213 43.5185 15.5213C43.7132 15.5213 43.9079 15.4462 44.1027 15.2958C44.2974 15.1455 44.3947 14.923 44.3947 14.6284C44.3947 14.3338 44.3033 14.1143 44.1204 13.97C43.9375 13.8257 43.7398 13.7535 43.5274 13.7535C43.3149 13.7535 43.1173 13.8287 42.9344 13.979C42.7514 14.1293 42.66 14.3518 42.66 14.6464C42.66 14.9351 42.7544 15.1545 42.9432 15.3049Z" fill="#3F40E9"/>
<path d="M46.6323 13.068C46.6323 12.9297 46.6353 12.8275 46.6412 12.7613C46.653 12.6892 46.6795 12.608 46.7208 12.5178C46.8034 12.3615 47.0336 12.2833 47.4112 12.2833C47.6944 12.2833 47.895 12.3344 48.0131 12.4366C48.1134 12.5208 48.1665 12.6501 48.1724 12.8245C48.1783 12.8846 48.1812 12.9718 48.1812 13.086V16.2429C48.1812 16.3812 48.1753 16.4864 48.1635 16.5586C48.1576 16.6247 48.1311 16.7029 48.0839 16.7931C48.0072 16.9494 47.78 17.0276 47.4023 17.0276C47.0306 17.0276 46.8034 16.9464 46.7208 16.784C46.6795 16.6939 46.653 16.6157 46.6412 16.5495C46.6353 16.4834 46.6323 16.3782 46.6323 16.2339V13.068Z" fill="#3F40E9"/>
<path d="M51.4815 12.2743C52.0716 12.2743 52.5613 12.5058 52.9508 12.9688C53.3461 13.4258 53.5438 13.985 53.5438 14.6464V16.2339C53.5438 16.3722 53.5379 16.4774 53.5261 16.5495C53.5202 16.6157 53.4966 16.6908 53.4553 16.775C53.3727 16.9374 53.1425 17.0186 52.7649 17.0186C52.346 17.0186 52.104 16.9073 52.0391 16.6848C52.0037 16.5826 51.986 16.4293 51.986 16.2248V14.6374C51.986 14.3909 51.9152 14.1984 51.7736 14.0601C51.6379 13.9218 51.452 13.8527 51.216 13.8527C50.9859 13.8527 50.7971 13.9249 50.6496 14.0692C50.5079 14.2135 50.4371 14.4029 50.4371 14.6374V16.2339C50.4371 16.3722 50.4312 16.4774 50.4194 16.5495C50.4135 16.6157 50.387 16.6908 50.3398 16.775C50.2631 16.9374 50.0359 17.0186 49.6583 17.0186C49.2865 17.0186 49.0594 16.9374 48.9768 16.775C48.9355 16.6848 48.9089 16.6067 48.8971 16.5405C48.8912 16.4684 48.8882 16.3631 48.8882 16.2248V13.0319C48.8882 12.8996 48.8912 12.8004 48.8971 12.7343C48.9089 12.6621 48.9384 12.5839 48.9856 12.4998C49.0682 12.3494 49.2954 12.2743 49.6671 12.2743C50.0271 12.2743 50.2483 12.3434 50.3309 12.4817C50.3899 12.5839 50.4194 12.7072 50.4194 12.8515C50.443 12.8094 50.4961 12.7493 50.5788 12.6711C50.6614 12.593 50.741 12.5298 50.8177 12.4817C51.0183 12.3434 51.2396 12.2743 51.4815 12.2743Z" fill="#3F40E9"/>
<path d="M57.212 16.4323C56.9877 16.7329 56.6308 16.8833 56.141 16.8833C55.6513 16.8833 55.191 16.6548 54.7603 16.1978C54.3354 15.7348 54.123 15.1966 54.123 14.5833C54.123 13.9699 54.3384 13.4318 54.7691 12.9688C55.1999 12.5058 55.6719 12.2743 56.1853 12.2743C56.3859 12.2743 56.5688 12.3134 56.734 12.3915C56.8992 12.4637 57.0113 12.5328 57.0703 12.599C57.1352 12.6591 57.1854 12.7162 57.2208 12.7703C57.2385 12.602 57.2975 12.4757 57.3978 12.3915C57.504 12.3013 57.6722 12.2562 57.9023 12.2562C58.1324 12.2562 58.3006 12.2743 58.4068 12.3104C58.513 12.3464 58.5868 12.4096 58.6281 12.4998C58.6753 12.5839 58.7018 12.6591 58.7077 12.7253C58.7195 12.7914 58.7254 12.8936 58.7254 13.0319V16.766C58.7254 17.4575 58.4894 18.0137 58.0174 18.4346C57.5453 18.8615 57.0143 19.075 56.4242 19.075C55.9758 19.075 55.548 18.9638 55.1409 18.7413C54.7337 18.5188 54.5302 18.3174 54.5302 18.137C54.5302 17.9025 54.6187 17.695 54.7957 17.5146C54.9078 17.3884 54.9934 17.3012 55.0524 17.2531C55.1173 17.205 55.191 17.1809 55.2736 17.1809C55.3562 17.1809 55.4418 17.217 55.5303 17.2891C55.8135 17.5116 56.1204 17.6229 56.4508 17.6229C56.675 17.6229 56.8579 17.5327 56.9995 17.3523C57.1411 17.1719 57.212 16.9554 57.212 16.7029V16.4323ZM55.6365 14.5923C55.6365 14.7847 55.7103 14.9591 55.8578 15.1154C56.0112 15.2718 56.1941 15.3499 56.4065 15.3499C56.6249 15.3499 56.8048 15.2718 56.9464 15.1154C57.088 14.9531 57.1589 14.7787 57.1589 14.5923C57.1589 14.3999 57.091 14.2225 56.9553 14.0601C56.8196 13.8918 56.6367 13.8076 56.4065 13.8076C56.1764 13.8076 55.9905 13.8888 55.8489 14.0511C55.7073 14.2135 55.6365 14.3939 55.6365 14.5923Z" fill="#3F40E9"/>
<path d="M48.1966 10.8642C48.1966 11.3001 47.8499 11.6534 47.4222 11.6534C46.9945 11.6534 46.6478 11.3001 46.6478 10.8642C46.6478 10.4284 46.9945 10.075 47.4222 10.075C47.8499 10.075 48.1966 10.4284 48.1966 10.8642Z" fill="#3F40E9"/>
<path d="M465.3 16.65H467.1C467.1 17.145 466.695 17.55 466.2 17.55C465.705 17.55 465.3 17.145 465.3 16.65ZM470.25 15.75V16.2H462.15V15.75L463.05 14.85V12.15C463.05 10.755 463.95 9.54004 465.3 9.13504V9.00004C465.3 8.50504 465.705 8.10004 466.2 8.10004C466.695 8.10004 467.1 8.50504 467.1 9.00004V9.13504C468.45 9.54004 469.35 10.755 469.35 12.15V14.85L470.25 15.75ZM468.45 12.15C468.45 10.89 467.46 9.90004 466.2 9.90004C464.94 9.90004 463.95 10.89 463.95 12.15V15.3H468.45V12.15Z" fill="#A6A6A6"/>
<path d="M492.75 9.00004V12.15H488.326L487.8 12.6765V9.00004H492.75ZM493.2 8.10004H487.35C487.231 8.10004 487.116 8.14745 487.032 8.23184C486.947 8.31623 486.9 8.43069 486.9 8.55004V14.85L488.7 13.05H493.2C493.319 13.05 493.434 13.0026 493.518 12.9182C493.602 12.8338 493.65 12.7194 493.65 12.6V8.55004C493.65 8.43069 493.602 8.31623 493.518 8.23184C493.434 8.14745 493.319 8.10004 493.2 8.10004ZM495.45 9.90004H494.55V13.95H488.7V14.85C488.7 14.9694 488.747 15.0838 488.832 15.1682C488.916 15.2526 489.031 15.3 489.15 15.3H494.1L495.9 17.1V10.35C495.9 10.2307 495.852 10.1162 495.768 10.0318C495.684 9.94745 495.569 9.90004 495.45 9.90004Z" fill="#A6A6A6"/>
<circle cx="518.4" cy="12.6" r="7.2" fill="#B1B2F6"/>
<rect x="73.7998" y="4.95001" width="144" height="15.3" rx="4.5" fill="#F4F4F4"/>
<path d="M81.8623 9.22504C82.5088 9.22504 83.1288 9.48184 83.5859 9.93896C84.043 10.3961 84.2998 11.0161 84.2998 11.6625C84.2998 12.2663 84.0786 12.8213 83.7148 13.2488L83.8161 13.35H84.1123L85.9873 15.225L85.4248 15.7875L83.5498 13.9125V13.6163L83.4486 13.515C83.0211 13.8788 82.4661 14.1 81.8623 14.1C81.2158 14.1 80.5959 13.8432 80.1387 13.3861C79.6816 12.929 79.4248 12.309 79.4248 11.6625C79.4248 11.0161 79.6816 10.3961 80.1387 9.93896C80.5959 9.48184 81.2158 9.22504 81.8623 9.22504ZM81.8623 9.97504C80.9248 9.97504 80.1748 10.725 80.1748 11.6625C80.1748 12.6 80.9248 13.35 81.8623 13.35C82.7998 13.35 83.5498 12.6 83.5498 11.6625C83.5498 10.725 82.7998 9.97504 81.8623 9.97504Z" fill="#3F40E9"/>
<path d="M540 25.55H0V26.45H540V25.55Z" fill="#EBEBEB" mask="url(#path-1-inside-1_2316_35056)"/>
<path d="M27.5873 54.002H25.3178V53.0684H27.5873V54.002ZM28.1185 57.4165H26.9735V50.6029H28.1185V57.4165ZM28.3558 59.7427H22.0013V58.804H28.3558V59.7427ZM23.1515 59.3301H22.0013V56.813H23.1515V59.3301ZM23.5074 52.4495C23.5074 53.0375 23.4059 53.5894 23.2031 54.1052C23.0002 54.6175 22.701 55.068 22.3056 55.4565C21.9136 55.8451 21.4391 56.1356 20.882 56.3282L20.2888 55.3998C20.7702 55.2416 21.1829 55.0112 21.5267 54.7086C21.8706 54.4026 22.1302 54.0553 22.3056 53.6667C22.481 53.2782 22.5686 52.8724 22.5686 52.4495V51.7944H23.5074V52.4495ZM23.7343 52.4598C23.7343 52.8415 23.8186 53.2128 23.9871 53.5739C24.159 53.9349 24.4083 54.2599 24.735 54.5487C25.0651 54.8376 25.4622 55.0594 25.9264 55.2141L25.3539 56.127C24.8106 55.9448 24.3481 55.668 23.9664 55.2966C23.5847 54.9253 23.2942 54.4972 23.0947 54.0123C22.8987 53.524 22.8007 53.0065 22.8007 52.4598V51.7944H23.7343V52.4598ZM25.6685 52.2019H20.6241V51.2735H25.6685V52.2019ZM34.8754 55.1264H33.2661V54.1774H34.8754V55.1264ZM32.0746 53.4398C32.0712 54.1 31.9921 54.7327 31.8374 55.3379C31.6861 55.9396 31.4523 56.4829 31.1359 56.9678C30.8196 57.4492 30.4276 57.8274 29.9599 58.1025L29.2945 57.236C29.7209 56.9919 30.0751 56.6686 30.3571 56.2663C30.6425 55.8606 30.8539 55.417 30.9915 54.9356C31.129 54.4542 31.1995 53.9556 31.203 53.4398V53.1045H32.0746V53.4398ZM32.2861 53.4398C32.2861 53.9418 32.3549 54.4215 32.4924 54.8788C32.63 55.3362 32.8415 55.754 33.1269 56.1322C33.4123 56.5105 33.7647 56.813 34.1842 57.04L33.5498 57.8859C33.0753 57.6383 32.6781 57.2859 32.3583 56.8285C32.042 56.3712 31.8047 55.8537 31.6465 55.276C31.4918 54.6983 31.4162 54.0862 31.4196 53.4398V53.1045H32.2861V53.4398ZM33.849 53.1509H29.6143V52.2225H33.849V53.1509ZM32.281 52.9601H31.203V50.9227H32.281V52.9601ZM37.4595 59.9078H36.3763V50.5926H37.4595V59.9078ZM35.5614 59.4642H34.4885V50.7731H35.5614V59.4642ZM42.7928 54.7499C43.7556 54.7499 44.5207 54.7344 45.088 54.7035C45.6588 54.6725 46.2279 54.6072 46.7953 54.5075L46.9088 55.4153C46.2864 55.5219 45.6554 55.5906 45.0158 55.6216C44.3797 55.6525 43.5063 55.6663 42.3956 55.6628H41.6116V54.7499H42.3956H42.7928ZM46.1041 52.0678H42.7618V55.1574H41.6116V51.1445H46.1041V52.0678ZM45.8359 53.8318H42.4008V52.9395H45.8359V53.8318ZM48.8481 56.1425H47.6979V50.6029H48.8481V56.1425ZM48.8481 59.7995H42.669V56.55H48.8481V59.7995ZM43.7986 58.8762H47.7237V57.4475H43.7986V58.8762ZM60.1543 54.2083H53.8049V50.9743H60.1543V54.2083ZM54.9242 53.3057H59.0195V51.8718H54.9242V53.3057ZM61.2271 56.1219H52.7372V55.1986H61.2271V56.1219ZM57.5444 55.5029H56.3942V54.002H57.5444V55.5029ZM60.1904 59.9078H59.0402V57.8137H53.6759V56.9059H60.1904V59.9078ZM70.3772 56.5603H61.8564V55.637H70.3772V56.5603ZM69.325 53.2283H64.0743V54.3269H62.9344V52.3927H68.1696V51.6964H62.9086V50.7938H69.325V53.2283ZM69.5055 54.8634H62.9344V53.971H69.5055V54.8634ZM66.679 56.1322H65.5443V54.3992H66.679V56.1322ZM69.3766 59.8562H68.2161V58.0613H62.8054V57.1483H69.3766V59.8562Z" fill="#202020"/>
<rect x="20" y="68.3662" width="61.6198" height="14.9648" rx="3.52113" fill="white"/>
<path d="M30.4358 78.2071H25.4653V77.6475H30.4358V78.2071ZM29.9995 74.4672H25.8684V73.9256H29.9995V74.4672ZM29.9784 76.7298H25.8895V76.1942H29.9784V76.7298ZM27.3247 76.2514H26.6537V74.413H27.3247V76.2514ZM29.2052 76.2514H28.5463V74.413H29.2052V76.2514ZM35.7613 78.2312H30.7908V77.6806H35.7613V78.2312ZM33.592 77.9153H32.9331V76.6064H33.592V77.9153ZM35.1686 75.5413H32.0455V76.5282H31.3775V75.0148H34.5097V74.3348H31.3685V73.7932H35.1686V75.5413ZM35.298 76.79H31.3775V76.2454H35.298V76.79ZM39.2906 75.3337H38.3759V74.7891H39.2906V75.3337ZM39.6938 76.7057H39.0529V73.5375H39.6938V76.7057ZM37.6689 74.5906C37.6669 74.8954 37.6207 75.1843 37.5305 75.4571C37.4422 75.7279 37.3048 75.9696 37.1183 76.1822C36.9317 76.3928 36.7 76.5543 36.4232 76.6666L36.0712 76.1431C36.3059 76.0508 36.5045 75.9224 36.6669 75.758C36.8294 75.5935 36.9488 75.4109 37.025 75.2104C37.1032 75.0098 37.1423 74.8032 37.1423 74.5906V74.1964H37.6689V74.5906ZM37.7922 74.5936C37.7922 74.7941 37.8293 74.9877 37.9036 75.1743C37.9798 75.3588 38.0941 75.5273 38.2466 75.6797C38.399 75.8302 38.5875 75.9505 38.8122 76.0408L38.4722 76.5523C38.2054 76.448 37.9828 76.2955 37.8043 76.0949C37.6257 75.8944 37.4924 75.6657 37.4041 75.4089C37.3178 75.1522 37.2757 74.8804 37.2777 74.5936V74.1964H37.7922V74.5936ZM38.6527 74.3739H36.2247V73.8354H38.6527V74.3739ZM40.7649 76.7448H40.127V73.4231H40.7649V76.7448ZM40.7649 78.857H40.103V77.488H37.04V76.9524H40.7649V78.857ZM45.8588 76.808H42.0436V76.2785H45.8588V76.808ZM46.4124 78.2011H41.4419V77.6565H46.4124V78.2011ZM45.8106 74.395H42.7236V76.4229H42.0436V73.8474H45.8106V74.395ZM45.6873 75.5714H42.522V75.0449H45.6873V75.5714ZM53.2002 76.7719H48.2297V76.2424H53.2002V76.7719ZM51.1 77.7107H50.4381V76.5192H51.1V77.7107ZM52.6496 78.7607H48.8284V78.2131H52.6496V78.7607ZM49.4934 78.4388H48.8284V77.2593H49.4934V78.4388ZM49.5355 74.2114H51.8823V73.5977H52.5473V75.8121H48.8766V73.5977H49.5355V74.2114ZM51.8823 75.2796V74.7109H49.5355V75.2796H51.8823ZM55.0205 73.8203C55.2913 73.8203 55.533 73.8985 55.7456 74.055C55.9602 74.2114 56.1277 74.4361 56.2481 74.729C56.3704 75.0198 56.4326 75.3568 56.4346 75.7399C56.4326 76.127 56.3704 76.466 56.2481 76.7569C56.1277 77.0477 55.9602 77.2724 55.7456 77.4308C55.533 77.5873 55.2913 77.6655 55.0205 77.6655C54.7457 77.6655 54.501 77.5873 54.2863 77.4308C54.0737 77.2724 53.9072 77.0487 53.7869 76.7599C53.6665 76.469 53.6064 76.129 53.6064 75.7399C53.6064 75.3568 53.6665 75.0198 53.7869 74.729C53.9072 74.4361 54.0737 74.2114 54.2863 74.055C54.501 73.8985 54.7457 73.8203 55.0205 73.8203ZM55.0205 74.4221C54.868 74.4221 54.7336 74.4752 54.6173 74.5815C54.503 74.6858 54.4127 74.8373 54.3465 75.0359C54.2803 75.2324 54.2482 75.4671 54.2502 75.7399C54.2482 76.0147 54.2803 76.2514 54.3465 76.45C54.4127 76.6486 54.503 76.8 54.6173 76.9043C54.7336 77.0086 54.868 77.0598 55.0205 77.0578C55.1729 77.0598 55.3073 77.0086 55.4237 76.9043C55.542 76.8 55.6323 76.6486 55.6944 76.45C55.7566 76.2514 55.7877 76.0147 55.7877 75.7399C55.7877 75.4671 55.7566 75.2314 55.6944 75.0328C55.6323 74.8343 55.542 74.6828 55.4237 74.5785C55.3073 74.4742 55.1729 74.4221 55.0205 74.4221ZM58.625 75.2856H57.6381V74.7229H58.625V75.2856ZM58.625 76.8802H57.6381V76.3296H58.625V76.8802ZM57.8186 78.857H57.1507V73.4231H57.8186V78.857Z" fill="#202020"/>
<path d="M69.0361 74.3433L71.0564 76.3636L73.0766 74.3433L73.6972 74.9683L71.0564 77.6092L68.4155 74.9683L69.0361 74.3433Z" fill="#A6A6A6"/>
<rect x="20" y="68.3662" width="61.6198" height="14.9648" rx="3.52113" stroke="#A6A6A6" stroke-width="0.440141"/>
<rect x="86.9014" y="68.3662" width="61.6198" height="14.9648" rx="3.52113" fill="white"/>
<path d="M96.9069 78.857H96.2299V73.4231H96.9069V78.857ZM95.2852 74.0008C95.2831 74.5685 95.2009 75.089 95.0384 75.5624C94.876 76.0338 94.6072 76.468 94.2321 76.8652C93.859 77.2623 93.3656 77.6064 92.7518 77.8972L92.3967 77.3616C92.9203 77.1129 93.3455 76.8301 93.6724 76.5132C93.9994 76.1942 94.2391 75.8382 94.3915 75.445C94.544 75.0519 94.6202 74.6086 94.6202 74.1152V74.0008H95.2852ZM94.9211 74.5304H92.6735V74.0008H94.9211V74.5304ZM100.394 73.6007C100.392 73.8995 100.297 74.1713 100.108 74.416C99.9217 74.6588 99.6599 74.8603 99.3229 75.0208C98.9859 75.1813 98.6018 75.2876 98.1706 75.3397L97.9449 74.8343C98.316 74.7921 98.644 74.7099 98.9288 74.5875C99.2156 74.4652 99.4363 74.3188 99.5907 74.1483C99.7452 73.9778 99.8234 73.7952 99.8254 73.6007V73.4532H100.394V73.6007ZM100.514 73.6007C100.514 73.7952 100.592 73.9778 100.746 74.1483C100.903 74.3188 101.123 74.4652 101.408 74.5875C101.693 74.7099 102.021 74.7921 102.392 74.8343L102.163 75.3397C101.728 75.2876 101.342 75.1813 101.005 75.0208C100.67 74.8603 100.408 74.6588 100.22 74.416C100.031 74.1713 99.9367 73.8995 99.9367 73.6007V73.4532H100.514V73.6007ZM100.493 76.796H99.8254V76.0077H100.493V76.796ZM102.645 76.1371H97.6922V75.6075H102.645V76.1371ZM102.031 77.9062H98.9378V78.4448H98.2759V77.4248H101.369V77.0668H98.2729V76.5553H102.031V77.9062ZM102.178 78.8149H98.2759V78.3034H102.178V78.8149ZM107.17 74.1663C107.172 74.5555 107.076 74.9195 106.881 75.2585C106.688 75.5955 106.422 75.8823 106.081 76.119C105.74 76.3557 105.355 76.5192 104.925 76.6094L104.636 76.0528C105.001 75.9866 105.332 75.8572 105.629 75.6647C105.926 75.4721 106.159 75.2445 106.327 74.9817C106.496 74.7189 106.581 74.4471 106.583 74.1663V73.7692H107.17V74.1663ZM107.29 74.1663C107.29 74.4491 107.374 74.7219 107.543 74.9847C107.713 75.2475 107.948 75.4751 108.247 75.6677C108.546 75.8603 108.881 75.9886 109.252 76.0528L108.954 76.6094C108.527 76.5212 108.143 76.3587 107.802 76.122C107.463 75.8853 107.197 75.5985 107.004 75.2615C106.812 74.9245 106.716 74.5595 106.719 74.1663V73.7692H107.29V74.1663ZM109.456 78.168H104.486V77.6174H109.456V78.168ZM110.377 75.9535C110.82 75.9515 111.183 75.9415 111.463 75.9234C111.744 75.9054 112.028 75.8713 112.315 75.8211L112.381 76.3627C112.08 76.4169 111.784 76.454 111.493 76.474C111.205 76.4921 110.833 76.5011 110.377 76.5011H110.016V75.9535H110.377ZM112.152 74.3408H110.657V76.2514H110.016V73.7962H112.152V74.3408ZM112.095 75.3789H110.461V74.8674H112.095V75.3789ZM114.46 76.7388H113.822V73.4292H114.46V76.7388ZM114.009 75.3247H113.076V74.7891H114.009V75.3247ZM113.254 76.7027H112.634V73.5285H113.254V76.7027ZM114.46 78.857H113.798V77.5211H110.735V76.9825H114.46V78.857Z" fill="#202020"/>
<path d="M135.937 74.3433L137.958 76.3636L139.978 74.3433L140.599 74.9683L137.958 77.6092L135.317 74.9683L135.937 74.3433Z" fill="#A6A6A6"/>
<rect x="86.9014" y="68.3662" width="61.6198" height="14.9648" rx="3.52113" stroke="#A6A6A6" stroke-width="0.440141"/>
<rect x="153.803" y="68.3662" width="61.6198" height="14.9648" rx="3.52113" fill="white"/>
<path d="M173.056 78.2041H168.085V77.6535H173.056V78.2041ZM170.887 77.7889H170.228V76.3627H170.887V77.7889ZM172.481 76.468H168.63V73.8474H172.481V76.468ZM169.289 75.9415H171.825V74.3799H169.289V75.9415ZM175.34 74.2686C175.34 74.5936 175.278 74.8974 175.156 75.1803C175.036 75.4631 174.858 75.7098 174.624 75.9204C174.389 76.131 174.109 76.2875 173.784 76.3898L173.441 75.8633C173.726 75.779 173.97 75.6557 174.172 75.4932C174.377 75.3287 174.531 75.1412 174.636 74.9305C174.742 74.7199 174.795 74.4993 174.795 74.2686V73.8925H175.34V74.2686ZM175.472 74.2686C175.472 74.4873 175.524 74.6959 175.628 74.8944C175.733 75.093 175.884 75.2695 176.083 75.424C176.283 75.5784 176.525 75.6948 176.808 75.773L176.471 76.2995C176.148 76.2033 175.87 76.0548 175.638 75.8542C175.405 75.6537 175.227 75.418 175.105 75.1472C174.985 74.8744 174.924 74.5815 174.924 74.2686V73.8925H175.472V74.2686ZM176.618 74.2806H173.625V73.7481H176.618V74.2806ZM177.936 76.3717H177.265V73.4231H177.936V76.3717ZM175 77.1691H177.268V76.6094H177.936V78.7938H174.341V76.6094H175V77.1691ZM177.268 78.2552V77.6926H175V78.2552H177.268ZM181.538 77.1029H180.879V76.1431H181.538V77.1029ZM183.689 76.456H178.737V75.9174H183.689V76.456ZM181.207 76.9103C181.598 76.9103 181.935 76.9474 182.218 77.0216C182.501 77.0959 182.716 77.2072 182.865 77.3556C183.015 77.502 183.09 77.6786 183.09 77.8852C183.09 78.0918 183.015 78.2673 182.865 78.4117C182.716 78.5561 182.5 78.6654 182.215 78.7397C181.932 78.8159 181.596 78.854 181.207 78.854C180.81 78.854 180.47 78.8159 180.187 78.7397C179.906 78.6654 179.689 78.5561 179.537 78.4117C179.386 78.2673 179.311 78.0918 179.311 77.8852C179.311 77.6786 179.386 77.502 179.537 77.3556C179.687 77.2072 179.904 77.0959 180.187 77.0216C180.47 76.9474 180.81 76.9103 181.207 76.9103ZM181.207 77.4188C180.942 77.4208 180.719 77.4399 180.539 77.476C180.36 77.5101 180.224 77.5622 180.13 77.6324C180.037 77.7006 179.992 77.7849 179.994 77.8852C179.992 77.9835 180.037 78.0677 180.13 78.1379C180.224 78.2081 180.361 78.2613 180.542 78.2974C180.722 78.3315 180.944 78.3485 181.207 78.3485C181.466 78.3485 181.685 78.3305 181.866 78.2944C182.046 78.2583 182.184 78.2061 182.278 78.1379C182.372 78.0677 182.419 77.9835 182.419 77.8852C182.419 77.7849 182.373 77.7006 182.281 77.6324C182.189 77.5622 182.051 77.5101 181.869 77.476C181.688 77.4399 181.468 77.4208 181.207 77.4188ZM181.348 74.061C181.348 74.3378 181.26 74.5906 181.083 74.8192C180.909 75.0459 180.659 75.2334 180.334 75.3819C180.009 75.5303 179.631 75.6266 179.2 75.6707L178.974 75.1442C179.331 75.1101 179.645 75.0399 179.916 74.9336C180.187 74.8252 180.394 74.6949 180.539 74.5424C180.683 74.39 180.755 74.2295 180.755 74.061V73.9106H181.348V74.061ZM181.661 74.061C181.661 74.2295 181.732 74.391 181.875 74.5454C182.019 74.6979 182.228 74.8272 182.501 74.9336C182.773 75.0399 183.092 75.1101 183.457 75.1442L183.22 75.6707C182.79 75.6266 182.412 75.5303 182.085 75.3819C181.76 75.2334 181.509 75.0459 181.33 74.8192C181.154 74.5906 181.064 74.3378 181.062 74.061V73.9106H181.661V74.061ZM183.244 74.1964H179.185V73.6639H183.244V74.1964ZM186.821 76.465H184.246V73.8895H186.821V76.465ZM184.905 75.9355H186.165V74.4251H184.905V75.9355ZM188.35 77.3977H187.682V73.4262H188.35V77.3977ZM189.111 75.5744H188.151V75.0208H189.111V75.5744ZM188.563 78.7607H184.865V78.2131H188.563V78.7607ZM185.53 78.4719H184.865V77.0096H185.53V78.4719ZM195.826 78.2071H190.856V77.6595H195.826V78.2071ZM193.657 77.8039H192.998V76.4379H193.657V77.8039ZM192.071 74.6748H194.59V73.7842H195.255V76.5974H191.4V73.7842H192.071V74.6748ZM194.59 76.0618V75.2074H192.071V76.0618H194.59ZM200.722 78.857H200.045V73.4231H200.722V78.857ZM199.1 74.0008C199.098 74.5685 199.016 75.089 198.853 75.5624C198.691 76.0338 198.422 76.468 198.047 76.8652C197.674 77.2623 197.18 77.6064 196.567 77.8972L196.212 77.3616C196.735 77.1129 197.16 76.8301 197.487 76.5132C197.814 76.1942 198.054 75.8382 198.206 75.445C198.359 75.0519 198.435 74.6086 198.435 74.1152V74.0008H199.1ZM198.736 74.5304H196.488V74.0008H198.736V74.5304Z" fill="#202020"/>
<rect x="153.803" y="68.3662" width="61.6198" height="14.9648" rx="3.52113" stroke="#A6A6A6" stroke-width="0.440141"/>
<rect x="402.042" y="68.3662" width="117.958" height="14.9648" rx="4.40141" fill="#F4F4F4"/>
<path d="M409.928 72.5475C410.56 72.5475 411.167 72.7987 411.614 73.2458C412.061 73.6929 412.312 74.2993 412.312 74.9316C412.312 75.5222 412.096 76.065 411.74 76.4831L411.839 76.5822H412.129L413.963 78.4161L413.412 78.9663L411.579 77.1323V76.8426L411.48 76.7436C411.061 77.0993 410.519 77.3157 409.928 77.3157C409.296 77.3157 408.689 77.0646 408.242 76.6175C407.795 76.1703 407.544 75.5639 407.544 74.9316C407.544 74.2993 407.795 73.6929 408.242 73.2458C408.689 72.7987 409.296 72.5475 409.928 72.5475ZM409.928 73.2811C409.011 73.2811 408.278 74.0147 408.278 74.9316C408.278 75.8486 409.011 76.5822 409.928 76.5822C410.845 76.5822 411.579 75.8486 411.579 74.9316C411.579 74.0147 410.845 73.2811 409.928 73.2811Z" fill="#3F40E9"/>
<g filter="url(#filter0_d_2316_35056)">
<rect x="20" y="101" width="160" height="77" rx="6" fill="white" shape-rendering="crispEdges"/>
<path d="M83.3333 140C83.3333 135.333 86 131.333 90 129.5C92.0127 129.106 92.0127 126.227 90 125.833C84.1667 128 80 133.5 80 140C80 146.5 84.1667 152 90 154.167C92.0127 153.773 92.0127 150.894 90 150.5C86 148.667 83.3333 144.667 83.3333 140ZM105 125C96.6667 125 90 131.667 90 140C90 148.333 96.6667 155 105 155C113.333 155 120 148.333 120 140C120 131.667 113.333 125 105 125ZM113.333 141.667H106.667V148.333C106.395 150.265 103.605 150.265 103.333 148.333V141.667H96.6667C94.7842 141.353 94.7842 138.647 96.6667 138.333H103.333V131.667C103.613 129.744 106.387 129.744 106.667 131.667V138.333H113.333C115.295 138.579 115.295 141.421 113.333 141.667Z" fill="#1A1BE0"/>
</g>
<g filter="url(#filter1_d_2316_35056)">
<rect x="190" y="101" width="160" height="77" rx="6" fill="white" shape-rendering="crispEdges"/>
<rect x="235.188" y="128.938" width="19.625" height="8.625" rx="1.3125" fill="#F6F6FE"/>
<rect x="235.188" y="128.938" width="19.625" height="8.625" rx="1.3125" stroke="#3F40E9" stroke-width="0.375"/>
<rect x="257.188" y="128.938" width="19.625" height="8.625" rx="1.3125" fill="#F6F6FE"/>
<rect x="257.188" y="128.938" width="19.625" height="8.625" rx="1.3125" stroke="#3F40E9" stroke-width="0.375"/>
<rect x="279.188" y="128.938" width="19.625" height="8.625" rx="1.3125" fill="#F6F6FE"/>
<rect x="279.188" y="128.938" width="19.625" height="8.625" rx="1.3125" stroke="#3F40E9" stroke-width="0.375"/>
<rect x="301.188" y="128.938" width="19.625" height="8.625" rx="1.3125" fill="#F6F6FE"/>
<rect x="301.188" y="128.938" width="19.625" height="8.625" rx="1.3125" stroke="#3F40E9" stroke-width="0.375"/>
<rect x="196.75" y="107.75" width="33.75" height="33.75" rx="6" fill="#F4F4F4"/>
<rect x="197" y="148" width="124" height="6" rx="2" fill="#DCDCDC"/>
<rect x="235" y="109" width="86" height="13" rx="2" fill="#DCDCDC"/>
<rect x="197" y="158" width="124" height="6" rx="2" fill="#DCDCDC"/>
</g>
<g filter="url(#filter2_d_2316_35056)">
<rect x="360" y="101" width="160" height="77" rx="6" fill="white" shape-rendering="crispEdges"/>
<rect x="405.188" y="128.938" width="19.625" height="8.625" rx="1.3125" fill="#F6F6FE"/>
<rect x="405.188" y="128.938" width="19.625" height="8.625" rx="1.3125" stroke="#3F40E9" stroke-width="0.375"/>
<rect x="427.188" y="128.938" width="19.625" height="8.625" rx="1.3125" fill="#F6F6FE"/>
<rect x="427.188" y="128.938" width="19.625" height="8.625" rx="1.3125" stroke="#3F40E9" stroke-width="0.375"/>
<rect x="449.188" y="128.938" width="19.625" height="8.625" rx="1.3125" fill="#F6F6FE"/>
<rect x="449.188" y="128.938" width="19.625" height="8.625" rx="1.3125" stroke="#3F40E9" stroke-width="0.375"/>
<rect x="471.188" y="128.938" width="19.625" height="8.625" rx="1.3125" fill="#F6F6FE"/>
<rect x="471.188" y="128.938" width="19.625" height="8.625" rx="1.3125" stroke="#3F40E9" stroke-width="0.375"/>
<rect x="366.75" y="107.75" width="33.75" height="33.75" rx="6" fill="#F4F4F4"/>
<rect x="367" y="148" width="124" height="6" rx="2" fill="#DCDCDC"/>
<rect x="405" y="109" width="86" height="13" rx="2" fill="#DCDCDC"/>
<rect x="367" y="158" width="124" height="6" rx="2" fill="#DCDCDC"/>
</g>
<g filter="url(#filter3_d_2316_35056)">
<rect x="20" y="192" width="160" height="77" rx="6" fill="white" shape-rendering="crispEdges"/>
<rect x="65.1875" y="219.938" width="19.625" height="8.625" rx="1.3125" fill="#F6F6FE"/>
<rect x="65.1875" y="219.938" width="19.625" height="8.625" rx="1.3125" stroke="#3F40E9" stroke-width="0.375"/>
<rect x="87.1875" y="219.938" width="19.625" height="8.625" rx="1.3125" fill="#F6F6FE"/>
<rect x="87.1875" y="219.938" width="19.625" height="8.625" rx="1.3125" stroke="#3F40E9" stroke-width="0.375"/>
<rect x="109.188" y="219.938" width="19.625" height="8.625" rx="1.3125" fill="#F6F6FE"/>
<rect x="109.188" y="219.938" width="19.625" height="8.625" rx="1.3125" stroke="#3F40E9" stroke-width="0.375"/>
<rect x="131.188" y="219.938" width="19.625" height="8.625" rx="1.3125" fill="#F6F6FE"/>
<rect x="131.188" y="219.938" width="19.625" height="8.625" rx="1.3125" stroke="#3F40E9" stroke-width="0.375"/>
<rect x="26.75" y="198.75" width="33.75" height="33.75" rx="6" fill="#F4F4F4"/>
<rect x="27" y="239" width="124" height="6" rx="2" fill="#DCDCDC"/>
<rect x="65" y="200" width="86" height="13" rx="2" fill="#DCDCDC"/>
<rect x="27" y="249" width="124" height="6" rx="2" fill="#DCDCDC"/>
</g>
<g filter="url(#filter4_d_2316_35056)">
<rect x="190" y="192" width="160" height="77" rx="6" fill="white" shape-rendering="crispEdges"/>
<rect x="235.188" y="219.938" width="19.625" height="8.625" rx="1.3125" fill="#F6F6FE"/>
<rect x="235.188" y="219.938" width="19.625" height="8.625" rx="1.3125" stroke="#3F40E9" stroke-width="0.375"/>
<rect x="257.188" y="219.938" width="19.625" height="8.625" rx="1.3125" fill="#F6F6FE"/>
<rect x="257.188" y="219.938" width="19.625" height="8.625" rx="1.3125" stroke="#3F40E9" stroke-width="0.375"/>
<rect x="279.188" y="219.938" width="19.625" height="8.625" rx="1.3125" fill="#F6F6FE"/>
<rect x="279.188" y="219.938" width="19.625" height="8.625" rx="1.3125" stroke="#3F40E9" stroke-width="0.375"/>
<rect x="301.188" y="219.938" width="19.625" height="8.625" rx="1.3125" fill="#F6F6FE"/>
<rect x="301.188" y="219.938" width="19.625" height="8.625" rx="1.3125" stroke="#3F40E9" stroke-width="0.375"/>
<rect x="196.75" y="198.75" width="33.75" height="33.75" rx="6" fill="#F4F4F4"/>
<rect x="197" y="239" width="124" height="6" rx="2" fill="#DCDCDC"/>
<rect x="235" y="200" width="86" height="13" rx="2" fill="#DCDCDC"/>
<rect x="197" y="249" width="124" height="6" rx="2" fill="#DCDCDC"/>
</g>
<g filter="url(#filter5_d_2316_35056)">
<rect x="360" y="192" width="160" height="77" rx="6" fill="white" shape-rendering="crispEdges"/>
<rect x="405.188" y="219.938" width="19.625" height="8.625" rx="1.3125" fill="#F6F6FE"/>
<rect x="405.188" y="219.938" width="19.625" height="8.625" rx="1.3125" stroke="#3F40E9" stroke-width="0.375"/>
<rect x="427.188" y="219.938" width="19.625" height="8.625" rx="1.3125" fill="#F6F6FE"/>
<rect x="427.188" y="219.938" width="19.625" height="8.625" rx="1.3125" stroke="#3F40E9" stroke-width="0.375"/>
<rect x="449.188" y="219.938" width="19.625" height="8.625" rx="1.3125" fill="#F6F6FE"/>
<rect x="449.188" y="219.938" width="19.625" height="8.625" rx="1.3125" stroke="#3F40E9" stroke-width="0.375"/>
<rect x="471.188" y="219.938" width="19.625" height="8.625" rx="1.3125" fill="#F6F6FE"/>
<rect x="471.188" y="219.938" width="19.625" height="8.625" rx="1.3125" stroke="#3F40E9" stroke-width="0.375"/>
<rect x="366.75" y="198.75" width="33.75" height="33.75" rx="6" fill="#F4F4F4"/>
<rect x="367" y="239" width="124" height="6" rx="2" fill="#DCDCDC"/>
<rect x="405" y="200" width="86" height="13" rx="2" fill="#DCDCDC"/>
<rect x="367" y="249" width="124" height="6" rx="2" fill="#DCDCDC"/>
</g>
<g filter="url(#filter6_d_2316_35056)">
<rect x="20" y="283" width="160" height="77" rx="6" fill="white" shape-rendering="crispEdges"/>
<rect x="65.1875" y="310.938" width="19.625" height="8.625" rx="1.3125" fill="#F6F6FE"/>
<rect x="65.1875" y="310.938" width="19.625" height="8.625" rx="1.3125" stroke="#3F40E9" stroke-width="0.375"/>
<rect x="87.1875" y="310.938" width="19.625" height="8.625" rx="1.3125" fill="#F6F6FE"/>
<rect x="87.1875" y="310.938" width="19.625" height="8.625" rx="1.3125" stroke="#3F40E9" stroke-width="0.375"/>
<rect x="109.188" y="310.938" width="19.625" height="8.625" rx="1.3125" fill="#F6F6FE"/>
<rect x="109.188" y="310.938" width="19.625" height="8.625" rx="1.3125" stroke="#3F40E9" stroke-width="0.375"/>
<rect x="131.188" y="310.938" width="19.625" height="8.625" rx="1.3125" fill="#F6F6FE"/>
<rect x="131.188" y="310.938" width="19.625" height="8.625" rx="1.3125" stroke="#3F40E9" stroke-width="0.375"/>
<rect x="26.75" y="289.75" width="33.75" height="33.75" rx="6" fill="#F4F4F4"/>
<rect x="27" y="330" width="124" height="6" rx="2" fill="#DCDCDC"/>
<rect x="65" y="291" width="86" height="13" rx="2" fill="#DCDCDC"/>
<rect x="27" y="340" width="124" height="6" rx="2" fill="#DCDCDC"/>
</g>
<g filter="url(#filter7_d_2316_35056)">
<rect x="20" y="86" width="62" height="100" rx="3" fill="white"/>
<path d="M20 89C20 87.3431 21.3431 86 23 86H79C80.6569 86 82 87.3431 82 89V100H20V89Z" fill="white"/>
<rect x="23" y="89" width="40" height="8" rx="2" fill="#DCDCDC"/>
<path d="M20 103C20 101.343 21.3431 100 23 100H79C80.6569 100 82 101.343 82 103V114H20V103Z" fill="white"/>
<rect x="23" y="103" width="40" height="8" rx="2" fill="#DCDCDC"/>
<path d="M20 117C20 115.343 21.3431 114 23 114H79C80.6569 114 82 115.343 82 117V128H20V117Z" fill="white"/>
<rect x="23" y="117" width="40" height="8" rx="2" fill="#DCDCDC"/>
<rect width="62" height="14" transform="translate(20 128)" fill="#B1B2F6"/>
<rect x="23" y="131" width="40" height="8" rx="2" fill="#DCDCDC"/>
<path d="M20 145C20 143.343 21.3431 142 23 142H79C80.6569 142 82 143.343 82 145V156H20V145Z" fill="white"/>
<rect x="23" y="145" width="40" height="8" rx="2" fill="#DCDCDC"/>
<path d="M20 159C20 157.343 21.3431 156 23 156H79C80.6569 156 82 157.343 82 159V170H20V159Z" fill="white"/>
<rect x="23" y="159" width="40" height="8" rx="2" fill="#DCDCDC"/>
<path d="M20 173C20 171.343 21.3431 170 23 170H79C80.6569 170 82 171.343 82 173V184H20V173Z" fill="white"/>
<rect x="23" y="173" width="40" height="8" rx="2" fill="#DCDCDC"/>
<rect x="20" y="86" width="62" height="100" rx="3" stroke="#CCCCCC" stroke-width="0.375"/>
</g>
<defs>
<filter id="filter0_d_2316_35056" x="14.75" y="95.75" width="170.5" height="87.5" filterUnits="userSpaceOnUse" color-interpolation-filters="sRGB">
<feFlood flood-opacity="0" result="BackgroundImageFix"/>
<feColorMatrix in="SourceAlpha" type="matrix" values="0 0 0 0 0 0 0 0 0 0 0 0 0 0 0 0 0 0 127 0" result="hardAlpha"/>
<feMorphology radius="1.5" operator="erode" in="SourceAlpha" result="effect1_dropShadow_2316_35056"/>
<feOffset/>
<feGaussianBlur stdDeviation="3.375"/>
<feComposite in2="hardAlpha" operator="out"/>
<feColorMatrix type="matrix" values="0 0 0 0 0 0 0 0 0 0 0 0 0 0 0 0 0 0 0.1 0"/>
<feBlend mode="normal" in2="BackgroundImageFix" result="effect1_dropShadow_2316_35056"/>
<feBlend mode="normal" in="SourceGraphic" in2="effect1_dropShadow_2316_35056" result="shape"/>
</filter>
<filter id="filter1_d_2316_35056" x="184.75" y="95.75" width="170.5" height="87.5" filterUnits="userSpaceOnUse" color-interpolation-filters="sRGB">
<feFlood flood-opacity="0" result="BackgroundImageFix"/>
<feColorMatrix in="SourceAlpha" type="matrix" values="0 0 0 0 0 0 0 0 0 0 0 0 0 0 0 0 0 0 127 0" result="hardAlpha"/>
<feMorphology radius="1.5" operator="erode" in="SourceAlpha" result="effect1_dropShadow_2316_35056"/>
<feOffset/>
<feGaussianBlur stdDeviation="3.375"/>
<feComposite in2="hardAlpha" operator="out"/>
<feColorMatrix type="matrix" values="0 0 0 0 0 0 0 0 0 0 0 0 0 0 0 0 0 0 0.1 0"/>
<feBlend mode="normal" in2="BackgroundImageFix" result="effect1_dropShadow_2316_35056"/>
<feBlend mode="normal" in="SourceGraphic" in2="effect1_dropShadow_2316_35056" result="shape"/>
</filter>
<filter id="filter2_d_2316_35056" x="354.75" y="95.75" width="170.5" height="87.5" filterUnits="userSpaceOnUse" color-interpolation-filters="sRGB">
<feFlood flood-opacity="0" result="BackgroundImageFix"/>
<feColorMatrix in="SourceAlpha" type="matrix" values="0 0 0 0 0 0 0 0 0 0 0 0 0 0 0 0 0 0 127 0" result="hardAlpha"/>
<feMorphology radius="1.5" operator="erode" in="SourceAlpha" result="effect1_dropShadow_2316_35056"/>
<feOffset/>
<feGaussianBlur stdDeviation="3.375"/>
<feComposite in2="hardAlpha" operator="out"/>
<feColorMatrix type="matrix" values="0 0 0 0 0 0 0 0 0 0 0 0 0 0 0 0 0 0 0.1 0"/>
<feBlend mode="normal" in2="BackgroundImageFix" result="effect1_dropShadow_2316_35056"/>
<feBlend mode="normal" in="SourceGraphic" in2="effect1_dropShadow_2316_35056" result="shape"/>
</filter>
<filter id="filter3_d_2316_35056" x="14.75" y="186.75" width="170.5" height="87.5" filterUnits="userSpaceOnUse" color-interpolation-filters="sRGB">
<feFlood flood-opacity="0" result="BackgroundImageFix"/>
<feColorMatrix in="SourceAlpha" type="matrix" values="0 0 0 0 0 0 0 0 0 0 0 0 0 0 0 0 0 0 127 0" result="hardAlpha"/>
<feMorphology radius="1.5" operator="erode" in="SourceAlpha" result="effect1_dropShadow_2316_35056"/>
<feOffset/>
<feGaussianBlur stdDeviation="3.375"/>
<feComposite in2="hardAlpha" operator="out"/>
<feColorMatrix type="matrix" values="0 0 0 0 0 0 0 0 0 0 0 0 0 0 0 0 0 0 0.1 0"/>
<feBlend mode="normal" in2="BackgroundImageFix" result="effect1_dropShadow_2316_35056"/>
<feBlend mode="normal" in="SourceGraphic" in2="effect1_dropShadow_2316_35056" result="shape"/>
</filter>
<filter id="filter4_d_2316_35056" x="184.75" y="186.75" width="170.5" height="87.5" filterUnits="userSpaceOnUse" color-interpolation-filters="sRGB">
<feFlood flood-opacity="0" result="BackgroundImageFix"/>
<feColorMatrix in="SourceAlpha" type="matrix" values="0 0 0 0 0 0 0 0 0 0 0 0 0 0 0 0 0 0 127 0" result="hardAlpha"/>
<feMorphology radius="1.5" operator="erode" in="SourceAlpha" result="effect1_dropShadow_2316_35056"/>
<feOffset/>
<feGaussianBlur stdDeviation="3.375"/>
<feComposite in2="hardAlpha" operator="out"/>
<feColorMatrix type="matrix" values="0 0 0 0 0 0 0 0 0 0 0 0 0 0 0 0 0 0 0.1 0"/>
<feBlend mode="normal" in2="BackgroundImageFix" result="effect1_dropShadow_2316_35056"/>
<feBlend mode="normal" in="SourceGraphic" in2="effect1_dropShadow_2316_35056" result="shape"/>
</filter>
<filter id="filter5_d_2316_35056" x="354.75" y="186.75" width="170.5" height="87.5" filterUnits="userSpaceOnUse" color-interpolation-filters="sRGB">
<feFlood flood-opacity="0" result="BackgroundImageFix"/>
<feColorMatrix in="SourceAlpha" type="matrix" values="0 0 0 0 0 0 0 0 0 0 0 0 0 0 0 0 0 0 127 0" result="hardAlpha"/>
<feMorphology radius="1.5" operator="erode" in="SourceAlpha" result="effect1_dropShadow_2316_35056"/>
<feOffset/>
<feGaussianBlur stdDeviation="3.375"/>
<feComposite in2="hardAlpha" operator="out"/>
<feColorMatrix type="matrix" values="0 0 0 0 0 0 0 0 0 0 0 0 0 0 0 0 0 0 0.1 0"/>
<feBlend mode="normal" in2="BackgroundImageFix" result="effect1_dropShadow_2316_35056"/>
<feBlend mode="normal" in="SourceGraphic" in2="effect1_dropShadow_2316_35056" result="shape"/>
</filter>
<filter id="filter6_d_2316_35056" x="14.75" y="277.75" width="170.5" height="87.5" filterUnits="userSpaceOnUse" color-interpolation-filters="sRGB">
<feFlood flood-opacity="0" result="BackgroundImageFix"/>
<feColorMatrix in="SourceAlpha" type="matrix" values="0 0 0 0 0 0 0 0 0 0 0 0 0 0 0 0 0 0 127 0" result="hardAlpha"/>
<feMorphology radius="1.5" operator="erode" in="SourceAlpha" result="effect1_dropShadow_2316_35056"/>
<feOffset/>
<feGaussianBlur stdDeviation="3.375"/>
<feComposite in2="hardAlpha" operator="out"/>
<feColorMatrix type="matrix" values="0 0 0 0 0 0 0 0 0 0 0 0 0 0 0 0 0 0 0.1 0"/>
<feBlend mode="normal" in2="BackgroundImageFix" result="effect1_dropShadow_2316_35056"/>
<feBlend mode="normal" in="SourceGraphic" in2="effect1_dropShadow_2316_35056" result="shape"/>
</filter>
<filter id="filter7_d_2316_35056" x="16.0625" y="82.0625" width="69.875" height="107.875" filterUnits="userSpaceOnUse" color-interpolation-filters="sRGB">
<feFlood flood-opacity="0" result="BackgroundImageFix"/>
<feColorMatrix in="SourceAlpha" type="matrix" values="0 0 0 0 0 0 0 0 0 0 0 0 0 0 0 0 0 0 127 0" result="hardAlpha"/>
<feMorphology radius="1.5" operator="erode" in="SourceAlpha" result="effect1_dropShadow_2316_35056"/>
<feOffset/>
<feGaussianBlur stdDeviation="2.625"/>
<feComposite in2="hardAlpha" operator="out"/>
<feColorMatrix type="matrix" values="0 0 0 0 0 0 0 0 0 0 0 0 0 0 0 0 0 0 0.15 0"/>
<feBlend mode="normal" in2="BackgroundImageFix" result="effect1_dropShadow_2316_35056"/>
<feBlend mode="normal" in="SourceGraphic" in2="effect1_dropShadow_2316_35056" result="shape"/>
</filter>
<linearGradient id="paint0_linear_2316_35056" x1="16.004" y1="16.7918" x2="31.3039" y2="16.7918" gradientUnits="userSpaceOnUse">
<stop stop-color="#DFDFDF"/>
<stop offset="0.229167" stop-color="#BABAE1"/>
<stop offset="0.380208" stop-color="#A2A3E3"/>
<stop offset="0.567708" stop-color="#8485E5"/>
<stop offset="0.692708" stop-color="#7071E6"/>
<stop offset="1" stop-color="#3F40E9"/>
</linearGradient>
</defs>
</svg>
