<svg width="25" height="22" viewBox="0 0 25 22" fill="none" xmlns="http://www.w3.org/2000/svg">
<g id="Group 316">
<path id="Vector" d="M12.4914 0C5.85332 0 0.5 4.24707 0.5 9.40308C0.5 12.7498 2.72698 15.6803 6.06745 17.3537L4.93683 21.5414C4.91551 21.6041 4.91223 21.6715 4.92736 21.736C4.94249 21.8005 4.97543 21.8596 5.02248 21.9066C5.0911 21.9666 5.17939 21.9998 5.27088 22C5.34674 21.994 5.41871 21.9642 5.47644 21.9151L10.3415 18.6618C11.0597 18.7601 11.7836 18.8111 12.5086 18.8147C19.1381 18.8147 24.5 14.5676 24.5 9.40308C24.5 4.23858 19.121 0 12.4914 0Z" fill="#392020"/>
<g id="Group 7233">
<path id="Vector_2" d="M4.69548 8.18626H3.48223C3.33185 8.19058 3.18334 8.15239 3.05402 8.07615C2.99661 8.04048 2.94725 7.9934 2.90904 7.93792C2.87083 7.88243 2.8446 7.81972 2.83199 7.7537C2.82814 7.71185 2.82814 7.6698 2.83199 7.62795C2.82822 7.54963 2.84355 7.47153 2.87668 7.40034C2.90981 7.32916 2.95976 7.26697 3.0223 7.21901C3.16055 7.11972 3.32741 7.06727 3.49809 7.06954H7.1537C7.30527 7.06426 7.4548 7.10547 7.58191 7.18752C7.64068 7.22162 7.69108 7.26827 7.72947 7.32403C7.76787 7.37978 7.7933 7.44328 7.80394 7.50997C7.80781 7.5492 7.80781 7.58872 7.80394 7.62795C7.80768 7.70739 7.79239 7.78656 7.75931 7.85901C7.72622 7.93146 7.6763 7.99505 7.61363 8.04467C7.47875 8.14384 7.3135 8.19387 7.14577 8.18626H5.97217V12.3227C5.97694 12.4108 5.96318 12.4989 5.93179 12.5815C5.90039 12.6641 5.85204 12.7393 5.78978 12.8024C5.73009 12.8627 5.65834 12.91 5.57913 12.9411C5.49992 12.9723 5.415 12.9866 5.32986 12.9833C5.18093 12.9875 5.03517 12.9403 4.91751 12.8496C4.8055 12.7611 4.72948 12.6354 4.70341 12.4957C4.69558 12.4383 4.69558 12.3801 4.70341 12.3227L4.69548 8.18626Z" fill="#FEE500"/>
<path id="Vector_3" d="M8.56371 7.37622C8.59858 7.24681 8.68049 7.13475 8.79367 7.06164C8.91426 6.99386 9.05168 6.96116 9.19016 6.96728H9.49148C9.63842 6.96206 9.78393 6.99746 9.91176 7.06951C10.0472 7.15985 10.1435 7.29739 10.1814 7.45484L11.7673 11.898C11.8084 12.0139 11.8429 12.1321 11.8704 12.2519C11.8731 12.3017 11.8731 12.3515 11.8704 12.4013C11.8731 12.4779 11.8589 12.5542 11.8287 12.6249C11.7986 12.6955 11.7533 12.7588 11.696 12.8102C11.6404 12.8667 11.5737 12.9112 11.5 12.941C11.4264 12.9707 11.3473 12.9851 11.2677 12.9832C11.1454 12.9953 11.0226 12.9662 10.919 12.9006C10.8155 12.8349 10.7372 12.7366 10.6968 12.6215L10.3638 11.6543H8.27823L7.94519 12.6215C7.90579 12.7389 7.82657 12.8391 7.72101 12.9051C7.61546 12.971 7.4901 12.9986 7.36631 12.9832C7.23222 12.9867 7.10088 12.9451 6.99361 12.8652C6.88911 12.7828 6.8186 12.6654 6.79537 12.535C6.79116 12.4906 6.79116 12.4458 6.79537 12.4013C6.78175 12.3232 6.78175 12.2435 6.79537 12.1654C6.79537 12.0789 6.85088 11.9845 6.8826 11.898L8.56371 7.37622ZM9.35668 8.40644L8.60335 10.7656H10.1021L9.35668 8.40644Z" fill="#FEE500"/>
<path id="Vector_4" d="M12.2673 7.62809C12.2592 7.45161 12.322 7.27916 12.4417 7.1484C12.5026 7.08749 12.5757 7.03988 12.6563 7.00873C12.7369 6.97758 12.8232 6.96348 12.9096 6.96745C13.0581 6.96573 13.2031 7.01276 13.3219 7.10117C13.4321 7.19342 13.5052 7.32173 13.5281 7.46289C13.5359 7.51766 13.5359 7.57332 13.5281 7.62809V11.7645H15.7088C15.86 11.7626 16.0085 11.8034 16.137 11.8824C16.1947 11.9177 16.2443 11.9647 16.2826 12.0203C16.3208 12.0758 16.3469 12.1387 16.359 12.2049C16.359 12.2049 16.359 12.2835 16.359 12.3228C16.3628 12.4012 16.3475 12.4792 16.3143 12.5504C16.2812 12.6215 16.2313 12.6838 16.1687 12.7318C16.0305 12.8311 15.8636 12.8834 15.6929 12.8812H13.0127C12.842 12.8921 12.6723 12.848 12.529 12.7554C12.4008 12.6603 12.3153 12.5191 12.2911 12.3622C12.2853 12.2758 12.2853 12.189 12.2911 12.1026L12.2673 7.62809Z" fill="#FEE500"/>
<path id="Vector_5" d="M16.864 7.62802C16.8593 7.45206 16.9215 7.28079 17.0385 7.14833C17.1573 7.04123 17.3097 6.97799 17.4701 6.9694C17.6304 6.9608 17.7889 7.00733 17.9187 7.1011C18.0312 7.19254 18.1071 7.32079 18.1328 7.46281C18.1367 7.51779 18.1367 7.57304 18.1328 7.62802V9.55465L20.139 7.25834C20.2163 7.18001 20.2984 7.10654 20.3848 7.03823C20.4663 6.99013 20.5596 6.96554 20.6544 6.96738C20.793 6.96663 20.9286 7.0078 21.043 7.08536C21.0969 7.12136 21.1429 7.16782 21.1784 7.22187C21.2138 7.27591 21.2379 7.33646 21.2492 7.39994C21.2524 7.4155 21.2524 7.4316 21.2492 7.44717C21.2453 7.46532 21.2453 7.48402 21.2492 7.50217C21.2489 7.58492 21.227 7.66623 21.1857 7.73813C21.1436 7.81426 21.0931 7.88539 21.0351 7.95038L19.7187 9.38167L21.1454 11.6312L21.3047 11.8981C21.387 12.0108 21.4512 12.1355 21.495 12.2678V12.307C21.5041 12.3981 21.4909 12.4901 21.4564 12.5751C21.4218 12.66 21.3671 12.7353 21.2967 12.7946C21.1644 12.8937 21.0026 12.9464 20.8368 12.9441C20.7266 12.9486 20.6172 12.9241 20.5196 12.8732C20.414 12.803 20.327 12.7086 20.2659 12.598L18.7909 10.2388L18.0852 10.9702V12.2834C18.0899 12.4594 18.0276 12.6307 17.9107 12.7631C17.8481 12.8239 17.7735 12.8713 17.6917 12.9024C17.6099 12.9335 17.5225 12.9477 17.4349 12.9441C17.2886 12.9471 17.1457 12.8998 17.0305 12.8103C16.9185 12.7218 16.8425 12.5962 16.8164 12.4565C16.8086 12.3991 16.8086 12.3408 16.8164 12.2834L16.864 7.62802Z" fill="#FEE500"/>
</g>
</g>
</svg>
